<svg width="334" height="72" viewBox="0 0 334 72" fill="none" xmlns="http://www.w3.org/2000/svg">
<g filter="url(#filter0_i_79_511)">
<path d="M38.4394 13.7545H33.8394V9.75451H47.4394V13.7545H42.8394V37.7545H38.4394V13.7545ZM49.5697 9.75451H53.9697V21.1545H58.6897V9.75451H63.0897V37.7545H58.6897V25.1545H53.9697V37.7545H49.5697V9.75451ZM66.3666 9.75451H78.3666V13.7545H70.7666V21.1545H76.8066V25.1545H70.7666V33.7545H78.3666V37.7545H66.3666V9.75451ZM87.3041 9.75451H91.7041V21.1545H96.4241V9.75451H100.824V37.7545H96.4241V25.1545H91.7041V37.7545H87.3041V9.75451ZM104.101 9.75451H116.101V13.7545H108.501V21.1545H114.541V25.1545H108.501V33.7545H116.101V37.7545H104.101V9.75451ZM118.632 9.75451H125.152C127.419 9.75451 129.072 10.2878 130.112 11.3545C131.152 12.3945 131.672 14.0078 131.672 16.1945V17.9145C131.672 20.8212 130.712 22.6612 128.792 23.4345V23.5145C129.859 23.8345 130.606 24.4878 131.032 25.4745C131.486 26.4612 131.712 27.7812 131.712 29.4345V34.3545C131.712 35.1545 131.739 35.8078 131.792 36.3145C131.846 36.7945 131.979 37.2745 132.192 37.7545H127.712C127.552 37.3012 127.446 36.8745 127.392 36.4745C127.339 36.0745 127.312 35.3545 127.312 34.3145V29.1945C127.312 27.9145 127.099 27.0212 126.672 26.5145C126.272 26.0078 125.566 25.7545 124.552 25.7545H123.032V37.7545H118.632V9.75451ZM124.632 21.7545C125.512 21.7545 126.166 21.5278 126.592 21.0745C127.046 20.6212 127.272 19.8612 127.272 18.7945V16.6345C127.272 15.6212 127.086 14.8878 126.712 14.4345C126.366 13.9812 125.806 13.7545 125.032 13.7545H123.032V21.7545H124.632ZM141.125 38.1545C138.965 38.1545 137.312 37.5412 136.165 36.3145C135.018 35.0878 134.445 33.3545 134.445 31.1145V16.3945C134.445 14.1545 135.018 12.4212 136.165 11.1945C137.312 9.96785 138.965 9.35452 141.125 9.35452C143.285 9.35452 144.938 9.96785 146.085 11.1945C147.232 12.4212 147.805 14.1545 147.805 16.3945V31.1145C147.805 33.3545 147.232 35.0878 146.085 36.3145C144.938 37.5412 143.285 38.1545 141.125 38.1545ZM141.125 34.1545C142.645 34.1545 143.405 33.2345 143.405 31.3945V16.1145C143.405 14.2745 142.645 13.3545 141.125 13.3545C139.605 13.3545 138.845 14.2745 138.845 16.1145V31.3945C138.845 33.2345 139.605 34.1545 141.125 34.1545ZM157.187 9.75451H169.187V13.7545H161.587V21.1545H167.627V25.1545H161.587V33.7545H169.187V37.7545H157.187V9.75451ZM175.676 23.4345L170.836 9.75451H175.476L178.436 18.7945H178.516L181.556 9.75451H185.716L180.876 23.4345L185.956 37.7545H181.316L178.116 27.9945H178.036L174.756 37.7545H170.596L175.676 23.4345ZM188.046 9.75451H194.526C196.713 9.75451 198.353 10.3412 199.446 11.5145C200.54 12.6878 201.086 14.4078 201.086 16.6745V19.4345C201.086 21.7012 200.54 23.4212 199.446 24.5945C198.353 25.7678 196.713 26.3545 194.526 26.3545H192.446V37.7545H188.046V9.75451ZM194.526 22.3545C195.246 22.3545 195.78 22.1545 196.126 21.7545C196.5 21.3545 196.686 20.6745 196.686 19.7145V16.3945C196.686 15.4345 196.5 14.7545 196.126 14.3545C195.78 13.9545 195.246 13.7545 194.526 13.7545H192.446V22.3545H194.526ZM203.476 9.75451H215.476V13.7545H207.876V21.1545H213.916V25.1545H207.876V33.7545H215.476V37.7545H203.476V9.75451ZM218.007 9.75451H224.527C226.794 9.75451 228.447 10.2878 229.487 11.3545C230.527 12.3945 231.047 14.0078 231.047 16.1945V17.9145C231.047 20.8212 230.087 22.6612 228.167 23.4345V23.5145C229.234 23.8345 229.981 24.4878 230.407 25.4745C230.861 26.4612 231.087 27.7812 231.087 29.4345V34.3545C231.087 35.1545 231.114 35.8078 231.167 36.3145C231.221 36.7945 231.354 37.2745 231.567 37.7545H227.087C226.927 37.3012 226.821 36.8745 226.767 36.4745C226.714 36.0745 226.687 35.3545 226.687 34.3145V29.1945C226.687 27.9145 226.474 27.0212 226.047 26.5145C225.647 26.0078 224.941 25.7545 223.927 25.7545H222.407V37.7545H218.007V9.75451ZM224.007 21.7545C224.887 21.7545 225.541 21.5278 225.967 21.0745C226.421 20.6212 226.647 19.8612 226.647 18.7945V16.6345C226.647 15.6212 226.461 14.8878 226.087 14.4345C225.741 13.9812 225.181 13.7545 224.407 13.7545H222.407V21.7545H224.007ZM234.14 9.75451H238.54V37.7545H234.14V9.75451ZM241.835 9.75451H253.835V13.7545H246.235V21.1545H252.275V25.1545H246.235V33.7545H253.835V37.7545H241.835V9.75451ZM256.367 9.75451H261.887L266.167 26.5145H266.247V9.75451H270.167V37.7545H265.647L260.367 17.3145H260.287V37.7545H256.367V9.75451ZM279.637 38.1545C277.53 38.1545 275.917 37.5545 274.797 36.3545C273.704 35.1545 273.157 33.4612 273.157 31.2745V16.2345C273.157 14.0478 273.704 12.3545 274.797 11.1545C275.917 9.95452 277.53 9.35452 279.637 9.35452C281.744 9.35452 283.344 9.95452 284.437 11.1545C285.557 12.3545 286.117 14.0478 286.117 16.2345V19.1945H281.957V15.9545C281.957 14.2212 281.224 13.3545 279.757 13.3545C278.29 13.3545 277.557 14.2212 277.557 15.9545V31.5945C277.557 33.3012 278.29 34.1545 279.757 34.1545C281.224 34.1545 281.957 33.3012 281.957 31.5945V27.3145H286.117V31.2745C286.117 33.4612 285.557 35.1545 284.437 36.3545C283.344 37.5545 281.744 38.1545 279.637 38.1545ZM288.749 9.75451H300.749V13.7545H293.149V21.1545H299.189V25.1545H293.149V33.7545H300.749V37.7545H288.749V9.75451Z" fill="#00008B"/>
</g>
<rect y="47.3727" width="334" height="1.75455" fill="#00008B"/>
<rect width="334" height="1.75455" fill="#00008B"/>
<path d="M165.963 57.9L167.826 62.7495L173.855 62.7495L168.977 65.7466L170.84 70.596L165.963 67.5989L161.085 70.596L162.948 65.7466L158.071 62.7495L164.1 62.7495L165.963 57.9Z" fill="#00008B"/>
<defs>
<filter id="filter0_i_79_511" x="33.8394" y="9.35449" width="266.91" height="32.8" filterUnits="userSpaceOnUse" color-interpolation-filters="sRGB">
<feFlood flood-opacity="0" result="BackgroundImageFix"/>
<feBlend mode="normal" in="SourceGraphic" in2="BackgroundImageFix" result="shape"/>
<feColorMatrix in="SourceAlpha" type="matrix" values="0 0 0 0 0 0 0 0 0 0 0 0 0 0 0 0 0 0 127 0" result="hardAlpha"/>
<feOffset dy="4"/>
<feGaussianBlur stdDeviation="2"/>
<feComposite in2="hardAlpha" operator="arithmetic" k2="-1" k3="1"/>
<feColorMatrix type="matrix" values="0 0 0 0 0.607552 0 0 0 0 0.0805125 0 0 0 0 0.0805125 0 0 0 1 0"/>
<feBlend mode="normal" in2="shape" result="effect1_innerShadow_79_511"/>
</filter>
</defs>
</svg>
