<svg width="255" height="45" viewBox="0 0 255 45" fill="none" xmlns="http://www.w3.org/2000/svg">
<path d="M16.4161 8.75608C17.3779 7.59108 18.8813 7.03956 20.8047 7.03956C21.5291 7.03956 22.4908 7.1635 23.1482 7.34321L24.3594 0.551515C22.7342 0.123936 21.2917 0 19.7274 0C15.7588 0 12.691 1.46864 10.6458 3.4888C8.60067 5.50895 7.51721 8.38427 7.51721 13.162V14.389H0V21.1249H7.51721V44.084H15.3327V21.1249H24.3533V14.389H15.3327V13.4718C15.3327 10.7143 15.7588 9.61123 16.4161 8.75608Z" fill="#A7A9AB"/>
<path d="M35.4801 17.3881V14.3888H27.9629V44.0839H35.7784V25.4067C36.7401 23.6282 39.4487 21.1185 42.8756 21.1185C44.0199 21.1185 45.1581 21.2425 45.6999 21.4222L46.6007 14.0108C45.7607 13.8869 45.0973 13.7629 43.9529 13.7629C40.4104 13.7753 37.2209 15.182 35.4801 17.3881Z" fill="#A7A9AB"/>
<path d="M69.7549 16.7749C67.4724 14.8787 64.5203 13.7756 61.2151 13.7756C53.2779 13.7756 46.8989 20.5116 46.8989 29.2676C46.8989 33.3079 48.3415 36.9826 50.6301 39.6783C53.217 42.7395 57.3074 44.6977 61.6351 44.6977C64.5811 44.6977 67.3506 43.7805 69.7549 41.6984V44.0842H77.2721V14.3891H69.7549V16.7749ZM69.4567 33.6736C67.9532 35.8796 65.3663 37.3483 62.4203 37.3483C58.0317 37.3483 54.7205 33.9214 54.7205 29.2676C54.7205 24.9794 57.6665 21.125 62.2377 21.125C65.2446 21.125 67.8315 22.5937 69.4567 24.7997V33.6736Z" fill="#A7A9AB"/>
<path d="M99.2395 13.7756C95.9891 13.7756 93.2257 14.9406 90.9979 16.7749V14.3891H83.4807V44.0842H91.3023V24.7997C92.3857 23.2691 95.0883 21.125 98.3995 21.125C100.201 21.125 101.765 21.7385 102.788 22.7796C103.872 23.8826 104.535 25.4132 104.535 28.3505V44.0842H112.35V28.964C112.35 23.8826 111.267 20.8834 109.344 18.5534C106.939 15.6099 103.269 13.7756 99.2395 13.7756Z" fill="#A7A9AB"/>
<path d="M132.632 37.3482C127.878 37.3482 124.573 33.9213 124.573 29.2675C124.573 24.7377 127.939 21.1249 132.449 21.1249C135.273 21.1249 137.623 22.5936 139.187 24.6757L144.72 19.7183C142.012 16.1675 137.501 13.7817 132.449 13.7817C123.55 13.7817 116.751 20.6416 116.751 29.2737C116.751 37.8439 123.368 44.7038 132.388 44.7038C137.86 44.7038 142.194 42.6836 145.621 38.0298L139.607 33.438C138.347 35.39 135.821 37.3482 132.632 37.3482Z" fill="#A7A9AB"/>
<path d="M161.416 13.7756C152.755 13.7756 147.222 21.0011 147.222 29.2676C147.222 38.5752 153.777 44.6977 162.5 44.6977C167.01 44.6977 171.642 42.8014 174.466 39.3684L170.017 34.8386C168.635 36.3692 165.987 38.2654 162.682 38.2654C158.531 38.2654 155.226 35.3901 154.806 31.2258H175.014C175.136 30.5504 175.197 29.7572 175.197 28.9578C175.191 20.6975 169.475 13.7756 161.416 13.7756ZM155.159 25.407C155.518 22.7114 158.166 20.2017 161.416 20.2017C164.606 20.2017 166.949 22.7734 167.193 25.407H155.159Z" fill="#A7A9AB"/>
<path d="M190.115 21.1187C185.715 21.1187 182.111 24.7872 182.111 29.2674C182.111 33.7477 185.715 37.4162 190.115 37.4162C194.516 37.4162 198.12 33.7477 198.12 29.2674C198.12 24.7872 194.516 21.1187 190.115 21.1187Z" fill="#A7A9AB"/>
<path d="M246.084 14.3891L238.086 32.5147L230.087 14.3891H215.668V6.12256H207.852V14.3891H200.134V21.125H207.852V31.5356C207.852 35.7618 208.516 38.3955 210.019 40.4156C212.004 43.1112 215.43 44.7038 220.123 44.7038C221.627 44.7038 223.97 44.456 224.993 44.0903L223.788 37.3544C223.246 37.4784 221.742 37.6581 220.598 37.6581C218.675 37.6581 217.409 37.1066 216.63 36.1894C215.966 35.3962 215.668 34.2932 215.668 32.4528V21.125H225.011L235.377 44.0841H240.788L254.197 14.3891H246.084Z" fill="#A7A9AB"/>
</svg>
