<svg width="50" height="50" viewBox="0 0 50 50" fill="none" xmlns="http://www.w3.org/2000/svg">
<path d="M24.9722 0.274658C11.3321 0.274658 0.274902 11.5075 0.274902 25.3638C0.274902 37.0648 8.15992 46.8943 18.8264 49.6692C18.8193 46.7697 18.8099 43.2133 18.8044 42.1052C11.6774 43.6798 10.1736 39.0345 10.1736 39.0345C9.0084 36.0264 7.32899 35.2262 7.32899 35.2262C5.00415 33.611 7.50407 33.644 7.50407 33.644C10.0764 33.8273 11.4315 36.3261 11.4315 36.3261C13.7163 40.3045 17.4247 39.1542 18.8868 38.4896C19.1167 36.8079 19.7803 35.6593 20.5135 35.0094C14.8232 34.3514 8.84101 32.1199 8.84101 22.1477C8.84101 19.3064 9.84207 16.9848 11.4809 15.1622C11.2147 14.5063 10.3377 11.8593 11.7289 8.27438C11.7289 8.27438 13.8804 7.57517 18.7759 10.9422C20.8197 10.3654 23.0112 10.0762 25.1884 10.0663C27.3656 10.0762 29.5587 10.3654 31.6064 10.9422C36.4965 7.57517 38.6446 8.27438 38.6446 8.27438C40.0391 11.8593 39.1621 14.5063 38.8959 15.1622C40.5386 16.9848 41.5325 19.3064 41.5325 22.1477C41.5325 32.144 35.5393 34.3443 29.8342 34.9891C30.753 35.797 31.5718 37.3804 31.5718 39.8084C31.5718 41.7364 31.563 46.1754 31.5548 49.5446C41.9974 46.6172 49.6694 36.9034 49.6694 25.3638C49.6694 11.5075 38.6122 0.274658 24.9722 0.274658Z" fill="#A7A9AB"/>
</svg>
