<svg width="50" height="50" viewBox="0 0 50 50" fill="none" xmlns="http://www.w3.org/2000/svg">
<path d="M33.7321 17.6478C33.7321 16.8591 33.0927 16.2197 32.304 16.2197C31.5154 16.2197 30.876 16.8591 30.876 17.6478C30.876 18.4364 31.5154 19.0758 32.304 19.0758C33.0932 19.0753 33.7321 18.4364 33.7321 17.6478Z" fill="#A7A9AB"/>
<path d="M24.9723 18.4294C21.3588 18.4294 18.4297 21.3585 18.4297 24.972C18.4297 25.8754 18.613 26.736 18.9439 27.5186C19.2749 28.3012 19.754 29.0065 20.3462 29.5981C21.53 30.7819 23.1661 31.5146 24.9728 31.5146C26.7796 31.5146 28.4151 30.7825 29.5994 29.5981C30.1916 29.0059 30.6708 28.3012 31.0017 27.5186C31.3326 26.736 31.5159 25.8754 31.5159 24.972C31.5148 21.3585 28.5858 18.4294 24.9723 18.4294Z" fill="#A7A9AB"/>
<path d="M24.9722 0.274658C11.3321 0.274658 0.274902 11.3319 0.274902 24.9719C0.274902 38.6119 11.3321 49.6692 24.9722 49.6692C38.6122 49.6692 49.6694 38.6119 49.6694 24.9719C49.6694 11.3319 38.6122 0.274658 24.9722 0.274658ZM38.6929 30.5908C38.6929 35.0654 35.0657 38.6926 30.5911 38.6926H19.3533C14.8787 38.6926 11.2515 35.0654 11.2515 30.5908V19.353C11.2515 17.6753 11.7613 16.1166 12.6351 14.8235C14.0911 12.6683 16.5564 11.2512 19.3533 11.2512H30.5916C33.3879 11.2512 35.8538 12.6683 37.3098 14.823C38.183 16.116 38.6929 17.6747 38.6929 19.353V30.5908Z" fill="#A7A9AB"/>
</svg>
