<svg width="251" height="43" viewBox="0 0 251 43" fill="none" xmlns="http://www.w3.org/2000/svg">
<path fill-rule="evenodd" clip-rule="evenodd" d="M96.107 41.264C96.0451 38.5632 96.0292 36.1727 96.0286 33.2636C96.0286 30.5576 96.1059 27.4743 96.0286 24.9012C95.9599 22.6173 95.9894 20.2422 95.9894 17.354C95.9894 16.0035 96.0468 14.6599 95.9894 13.3388C95.9326 12.025 96.1337 10.592 95.794 9.38422C95.7127 9.09505 95.2059 8.78331 94.8554 8.53886C94.1634 8.05635 93.5498 7.72375 92.7828 7.21057C92.5345 7.04406 91.9067 6.61308 91.688 6.60669C91.4772 6.60073 91.0665 6.88052 90.7886 6.99934C90.1393 7.27701 89.7387 7.44693 89.0291 7.75398C88.8126 7.84768 88.2303 8.03165 88.1684 8.14621C88.0457 8.37533 88.1684 9.08014 88.1684 9.50474C88.1684 10.8041 88.1684 12.3798 88.1684 13.5501C88.1684 15.3013 88.2076 16.3608 88.2076 18.109C88.2076 19.956 88.2076 21.6723 88.2076 23.2412C88.2076 24.9856 88.1951 26.7044 87.3866 27.9202C87.1457 28.2826 86.6958 28.7694 86.331 29.0978C85.9481 29.4423 85.4015 29.6829 84.9232 29.9733C84.4289 30.2736 83.8965 30.5014 83.3591 30.728C82.8063 30.9609 82.3478 31.2633 81.8336 31.5129C81.178 31.8318 80.4553 32.0959 79.761 32.4792C79.3378 32.7125 78.7719 32.9374 78.1969 33.2036C77.8276 33.3743 77.685 33.5443 77.4152 33.264C77.2964 33.141 76.8999 32.7211 76.9067 32.5699C76.9152 32.3782 77.3754 32.1129 77.5328 31.9962C77.8026 31.7956 78.0379 31.6342 78.1975 31.4528C78.3617 31.2659 78.4481 31.0342 78.5884 30.8489C78.7424 30.6458 78.877 30.4887 78.9793 30.2753C79.5792 29.0283 79.5264 27.0438 79.5269 25.1129C79.5269 22.3737 79.5008 19.224 79.4877 17.1432C79.4775 15.4401 79.4877 13.6046 79.4877 11.6183C79.4877 10.6329 79.548 9.63676 79.2139 9.02223C79.0179 8.66066 78.3941 8.22755 77.8061 8.14664C77.0499 8.04272 76.1136 8.2037 75.3812 8.29739C73.3524 8.55803 70.2583 9.22068 68.342 8.50905C67.5227 8.20456 66.6302 7.49122 66.4648 6.63693C66.2938 5.75239 66.9256 4.67068 67.4426 3.98035C68.121 3.07452 69.1811 2.22789 70.0237 1.41405C70.3128 1.13468 70.531 0.848069 70.8844 0.568698C71.1003 0.397924 71.5207 0.755655 71.823 0.931114C72.011 1.04014 72.511 1.25179 72.5269 1.354C72.5428 1.45792 71.6855 2.32627 71.5491 2.47106C71.394 2.6363 71.1793 2.8207 71.0406 3.01447C70.7407 3.43481 70.4759 4.05274 71.0798 4.43347C71.3082 4.57742 72.044 4.66089 72.6831 4.58423C73.4308 4.49522 74.0717 4.1903 74.7557 3.98077C75.4511 3.76741 76.2056 3.62006 76.8675 3.43736C78.7838 2.90758 80.5087 2.2066 83.2812 2.41101C84.3851 2.49235 85.3885 2.87777 86.0577 3.34708C86.3185 3.52978 86.6287 3.70225 86.8009 3.86025C86.9594 4.0059 87.0747 4.28144 87.2701 4.52461C87.494 4.8027 87.6843 4.99051 87.8178 5.24901C87.9138 5.43597 88.0195 6.06413 88.1303 6.1246C88.2428 6.18635 88.866 5.87717 89.2257 5.73238C89.683 5.54755 90.0228 5.38827 90.2813 5.24944C90.9988 4.86445 91.8289 4.61447 92.3931 4.3138C93.3686 3.79381 94.4043 3.36028 95.5218 2.86457C95.8048 2.73936 96.3706 2.41144 96.5774 2.41187C96.7581 2.41229 97.2768 2.73084 97.5552 2.8948C97.9097 3.1039 98.1654 3.32493 98.4154 3.46845C98.7347 3.65157 99.096 3.77848 99.3931 3.95139C99.721 4.14218 100.007 4.38194 100.253 4.52503C100.581 4.7154 100.898 4.8653 101.192 5.03821C101.476 5.20515 101.734 5.43001 102.053 5.61186C102.32 5.76432 102.674 5.88143 103.03 6.09479C103.347 6.2843 103.684 6.62969 103.891 6.6382C104.102 6.64715 104.743 6.23533 105.025 6.09479C105.431 5.8925 105.802 5.74771 106.159 5.58162C106.945 5.2158 107.666 4.85636 108.388 4.52503C108.771 4.34915 109.098 4.13323 109.483 3.95139C109.84 3.78274 110.262 3.66009 110.657 3.46845C110.95 3.32578 111.32 3.08048 111.712 2.8948C112.062 2.72914 112.63 2.41229 112.885 2.41187C113.145 2.41187 114.273 2.92163 114.528 3.04599C115.049 3.30108 115.544 3.55703 116.053 3.74016C116.608 3.94031 117.061 4.23331 117.578 4.46456C118.115 4.70433 118.693 4.87042 119.181 5.09868C120.348 5.6438 121.271 6.09479 122.897 5.94403C123.94 5.84736 124.683 5.47174 125.478 5.09868C125.705 4.99179 126.1 4.76565 126.299 4.79674C126.595 4.84273 126.94 5.59908 127.12 5.79285C127.234 5.9155 127.427 5.96235 127.393 6.12503C127.339 6.38864 125.828 6.87626 125.438 7.06109C123.631 7.91624 122.057 8.74669 121.332 10.382C120.911 11.3304 120.858 12.5442 120.823 13.7025C120.713 17.4017 120.88 22.0475 120.862 24.9936C120.849 27.2086 120.901 29.4142 120.901 32.3897C120.901 33.6107 120.742 35.3589 121.37 36.0429C121.509 36.1936 121.827 36.3239 122.114 36.4653C122.36 36.5867 122.696 36.8226 122.895 36.8277C123.165 36.8345 123.996 36.3814 124.225 36.2843C124.341 36.2358 125.365 35.7111 125.594 35.7711C125.746 35.8112 125.937 36.2617 126.024 36.4053C126.146 36.6041 126.413 36.9133 126.376 37.0696C126.326 37.2834 125.597 37.478 125.281 37.6126C124.849 37.7979 124.488 38.0082 124.186 38.156C122.144 39.1572 120.581 39.7351 118.554 40.7219C118.242 40.8739 117.686 41.2048 117.42 41.2048C117.07 41.2048 116.521 40.7577 116.169 40.5711C114.984 39.9417 113.498 39.3783 112.884 38.3975C112.242 37.3707 112.312 35.4581 112.337 33.9293C112.408 29.5449 112.238 24.107 112.337 20.163C112.363 19.1022 112.29 17.8156 112.337 16.6611C112.432 14.3222 113.308 12.4829 114.957 11.3177C115.305 11.0715 115.794 10.807 116.286 10.5328C116.393 10.4736 116.754 10.3348 116.756 10.2913C116.76 10.178 115.857 9.86247 115.739 9.80838C115.326 9.62015 115.012 9.46598 114.722 9.32545C114.008 8.97964 113.252 8.72752 112.61 8.42005C111.628 7.94946 110.632 7.46397 109.521 7.00104C109.234 6.8818 108.632 6.55005 108.465 6.54834C108.244 6.54579 107.762 6.84858 107.487 6.97081C106.781 7.28595 106.36 7.50017 105.61 7.8464C105.336 7.97331 104.787 8.14749 104.711 8.2991C104.551 8.61595 104.711 9.94296 104.711 10.3825C104.711 14.2328 104.75 16.3868 104.75 20.0429C104.75 22.6927 104.776 25.3433 104.75 27.7111C104.723 30.0704 104.789 32.095 104.789 34.9867C104.789 36.4385 104.769 37.7042 103.851 38.3983C103.412 38.7301 102.668 38.9699 102.052 39.2433C100.799 39.7995 99.4863 40.1819 98.2193 40.6921C97.6421 40.9225 96.9808 41.3224 96.107 41.264Z" fill="#A7A9AB"/>
<path fill-rule="evenodd" clip-rule="evenodd" d="M220.232 34.1998C220.978 34.0094 221.426 33.7973 222.148 33.5052C222.301 33.443 222.663 33.2616 222.774 33.294C222.931 33.3404 223.048 33.785 223.126 33.9276C223.231 34.1231 223.468 34.4349 223.439 34.5618C223.4 34.733 222.798 34.9076 222.539 35.0145C221.584 35.408 220.606 35.8913 219.724 36.2823C218.449 36.847 217.171 37.3751 215.969 37.9428C215.331 38.2443 214.706 38.5368 214.092 38.7877C212.516 39.4346 211.05 40.1462 209.439 40.9013C209.14 41.041 208.657 41.2599 208.461 41.2637C208.116 41.2697 207.556 40.9204 207.21 40.7505C205.279 39.8025 203.345 38.8716 201.422 37.9125C200.281 37.3444 198.792 36.9939 198.45 35.8292C198.288 35.2785 198.345 34.6227 198.371 34.0482C198.482 31.6518 198.313 27.8837 198.333 24.7497C198.338 23.7907 198.321 22.8231 198.293 21.9121C198.284 21.614 198.381 21.1775 198.293 21.1268C198.168 21.0544 197.668 21.304 197.512 21.3683C196.756 21.6792 196.234 22.0258 195.399 22.2137C195.36 21.9053 195.406 21.6375 195.399 21.3985C195.394 21.1907 195.271 20.8734 195.399 20.6737C195.501 20.5161 196.183 20.2721 196.572 20.1001C197.047 19.891 197.513 19.6759 197.785 19.5566C198.17 19.388 198.634 19.2381 199.036 19.0435C199.45 18.8429 199.813 18.5878 200.171 18.44C200.553 18.2807 200.982 18.1888 201.305 18.0474C201.665 17.8898 201.983 17.6083 202.282 17.4737C202.649 17.3081 203.073 17.245 203.533 17.0508C203.905 16.8941 204.249 16.6556 204.629 16.4772C205.004 16.3009 205.407 16.1646 205.801 15.9942C207.691 15.1787 209.538 14.2946 211.511 13.4284C211.863 13.2738 212.573 13.0519 212.645 12.9152C212.77 12.6793 212.641 11.9745 212.607 11.6171C212.513 10.6466 212.169 9.8847 211.668 9.23227C211.237 8.67055 210.406 7.99852 209.673 7.5718C209.049 7.20896 208.502 6.99645 207.757 6.6664C207.455 6.53225 206.993 6.18858 206.741 6.18346C206.546 6.17921 206.173 6.40151 205.92 6.51564C205.32 6.78565 204.92 6.94024 204.316 7.20981C204.075 7.31756 203.697 7.5356 203.495 7.54199C203.162 7.55179 202.729 7.32309 202.44 7.20981C202.097 7.07609 201.812 6.99304 201.462 6.81716C202.582 6.1528 203.905 5.67029 205.138 5.09622C205.543 4.90756 205.969 4.72784 206.389 4.55281C206.803 4.38033 207.198 4.16399 207.602 3.97916C208.024 3.78539 208.478 3.65209 208.892 3.46599C209.302 3.28158 209.661 3.03926 210.065 2.8621C210.491 2.67514 210.929 2.52098 211.355 2.34893C211.677 2.21861 212.073 2.51076 212.45 2.68111C213.342 3.08313 214.268 3.50559 215.11 3.91869C215.936 4.32497 216.764 4.83644 217.417 5.42797C217.638 5.62813 217.923 5.78059 218.121 5.97138C218.475 6.31335 218.824 6.77755 219.099 7.20939C219.383 7.6557 219.628 8.13651 219.803 8.62839C220.175 9.6756 220.154 10.9153 220.154 12.221C220.155 15.102 220.194 17.0615 220.194 19.6474C220.192 24.7233 220.178 30.0748 220.232 34.1998ZM212.059 15.6033C211.37 15.9406 210.615 16.1927 209.947 16.5389C209.599 16.7199 209.28 16.9073 208.93 17.0521C208.562 17.205 208.161 17.3076 207.796 17.475C207.5 17.6104 207.296 17.8212 206.897 18.0184C206.622 18.1543 206.006 18.2956 205.919 18.4711C205.836 18.6368 205.919 19.0716 205.919 19.437C205.919 21.9573 205.849 23.4942 205.919 25.2033C205.968 26.4025 205.96 27.5775 205.958 28.7052C205.955 29.8964 205.83 31.217 205.958 32.5695C206.065 33.7126 206.757 34.0286 207.757 34.5622C208.298 34.8509 208.861 35.0387 209.399 35.3164C209.788 35.5178 210.275 35.8164 210.964 36.1315C211.232 36.2542 212.362 36.9692 212.645 36.7959C212.789 36.7086 212.724 35.8202 212.724 35.4071C212.724 33.9221 212.686 32.2088 212.724 31.1505C212.797 29.1098 212.747 27.7713 212.724 25.837C212.702 24.0819 212.691 23.1497 212.685 21.2784C212.68 19.7836 212.678 17.5597 212.685 16.2975C212.687 15.9031 212.643 15.5066 212.137 15.5731C212.086 15.5794 212.088 15.5888 212.059 15.6033Z" fill="#A7A9AB"/>
<path fill-rule="evenodd" clip-rule="evenodd" d="M27.5529 11.618C27.5955 11.1798 27.4967 10.9532 27.4745 10.6517C27.4626 10.4878 27.4177 10.1952 27.5137 10.0176C27.6251 9.81191 28.4954 9.4184 28.7653 9.26296C29.3721 8.91332 30.1277 8.74042 30.2516 8.1459C30.4033 7.41511 29.5738 6.46968 29.1568 6.06297C28.2392 5.16779 27.0484 4.48469 25.207 4.22151C23.7594 4.01453 21.8204 4.60521 21.0227 5.21762C20.8949 5.31557 20.7949 5.49358 20.6318 5.64008C20.4761 5.78062 20.2693 5.87644 20.1625 6.0025C20.05 6.13537 19.9733 6.35043 19.8495 6.54591C18.1882 9.16288 18.8825 13.1495 19.5756 16.3575C19.8767 17.7493 20.2506 19.2671 20.5926 20.7653C20.7523 21.4659 20.9164 22.2614 20.9835 23.0292C21.142 24.8341 21.138 26.5984 20.2404 27.9804C20.0926 28.2074 19.8421 28.4467 19.6535 28.675C19.1296 29.3095 18.4882 29.8768 17.6985 30.335C17.2894 30.5722 16.8821 30.7055 16.5645 30.8784C16.1963 31.079 15.9509 31.2996 15.5867 31.5121C15.1254 31.7813 14.4913 31.9942 13.9442 32.3575C13.7488 32.4869 13.4948 32.6369 13.1619 32.8102C12.9511 32.9196 12.6028 33.2446 12.3409 33.2326C12.1461 33.2237 11.4876 32.6032 11.4808 32.4473C11.4711 32.231 12.0006 31.8149 12.1063 31.6327C12.7631 30.5037 12.879 29.1294 12.771 27.6171C12.7591 27.4485 12.8238 27.2717 12.8096 27.0737C12.7375 26.0299 12.5278 25.0019 12.3012 23.9644C11.8858 22.0608 11.4342 20.1018 10.9325 18.0772C10.8172 17.6117 10.7615 17.1245 10.6979 16.6582C10.6297 16.1591 10.4632 15.6821 10.424 15.209C10.1803 12.2568 10.953 10.2697 12.3012 8.35628C13.2056 7.07186 14.6385 5.86324 16.1725 5.00511C16.4367 4.85733 16.7236 4.72574 16.9934 4.58222C17.261 4.43998 17.4798 4.256 17.7366 4.12952C18.1252 3.93788 18.5871 3.79989 19.0268 3.64658C20.208 3.23476 21.7255 2.71307 23.2504 2.55976C24.8554 2.39835 26.399 2.41156 28.1387 2.55976C28.9562 2.6296 29.8061 2.67985 30.4851 2.83146C31.4077 3.03716 32.323 3.46133 33.1445 3.7671C33.5763 3.92808 33.9399 4.11206 34.3177 4.34075C34.7024 4.57327 35.1416 4.74064 35.4518 4.94421C35.812 5.18099 36.1449 5.51402 36.5466 5.85003C36.6869 5.96715 36.8704 6.11748 37.0551 6.33297C37.1732 6.47095 37.4914 6.79717 37.4851 6.84615C37.4681 6.98711 36.5721 7.3853 36.3119 7.5105C35.8279 7.74303 35.3876 7.8989 35.0217 8.08415C34.6018 8.29666 34.22 8.52791 33.8093 8.71827C32.5412 9.30555 31.2998 9.87025 30.055 10.4993C29.2363 10.9153 28.4182 11.3314 27.5529 11.618Z" fill="#A7A9AB"/>
<path fill-rule="evenodd" clip-rule="evenodd" d="M11.1278 8.05591C11.1142 8.35742 10.7761 8.40853 10.5017 8.50861C10.6528 8.31313 10.7494 8.0755 11.1278 8.05591Z" fill="#A7A9AB"/>
<path fill-rule="evenodd" clip-rule="evenodd" d="M68.4192 9.86727C68.5311 9.68244 69.2981 9.4333 69.3186 9.68627C69.3271 9.79146 68.6885 9.9682 68.4192 9.86727Z" fill="#A7A9AB"/>
<path fill-rule="evenodd" clip-rule="evenodd" d="M226.293 21.5504C226.451 21.1756 226.085 20.3665 226.293 20.0104C226.34 19.9304 227.1 19.6216 227.388 19.4973C227.826 19.309 228.193 19.1566 228.484 19.0143C229.238 18.6447 230.064 18.3534 230.713 18.048C231.054 17.8879 231.419 17.6136 231.73 17.4744C232.142 17.2896 232.594 17.1916 232.981 17.0217C233.355 16.8569 233.66 16.6214 234.036 16.448C234.622 16.1789 235.253 15.9664 235.836 15.6934C237.518 14.9051 239.346 14.1381 241.076 13.3388C241.326 13.2233 241.587 13.5334 241.819 13.7314C242.72 14.5001 243.589 15.2846 244.517 16.0256C244.903 16.3326 245.2 16.6571 245.534 16.9616C245.738 17.1469 246.043 17.2597 246.238 17.4143C246.43 17.5668 246.572 17.8572 246.786 18.0485C246.961 18.2047 247.316 18.3534 247.529 18.5314C247.697 18.6715 247.858 18.9377 248.038 19.105C248.251 19.3035 248.544 19.4487 248.781 19.6484C249.224 20.0228 249.661 20.4074 250.149 20.8256C250.228 20.892 250.824 21.3792 250.815 21.4294C250.796 21.5329 250.152 21.7982 249.993 21.8821C249.16 22.3212 248.113 22.7313 247.373 23.1197C246.793 23.4246 246.177 23.6525 245.613 23.9348C243.084 25.2014 240.414 26.3563 237.792 27.6782C237.525 27.8124 237.028 28.0091 236.971 28.1011C236.824 28.3366 236.967 29.0185 236.971 29.3085C236.978 29.805 236.962 30.1968 236.971 30.667C236.991 31.7619 236.802 32.597 236.971 33.4441C237.104 34.1127 237.998 34.4998 238.652 34.8329C239.853 35.4436 240.965 36.0142 242.211 36.705C242.42 36.8208 242.784 37.0589 242.915 37.0674C243.141 37.0815 243.445 36.8579 243.658 36.7655C244.894 36.2272 246.02 35.8179 247.295 35.286C247.472 35.2119 247.693 35.0943 247.999 34.984C248.187 34.9163 248.661 34.7 248.742 34.7123C248.971 34.7473 249.128 35.2004 249.25 35.4367C249.382 35.6918 249.733 36.0508 249.681 36.2216C249.633 36.3779 248.533 36.7833 248.312 36.886C245.498 38.184 242.816 39.3777 239.944 40.6596C239.693 40.7716 238.828 41.2605 238.535 41.2635C238.262 41.2661 237.68 40.9283 237.401 40.7801C236.334 40.2154 235.265 39.6908 234.234 39.1499C233.518 38.7751 232.793 38.5 232.083 38.0937C230.821 37.371 229.519 37.1688 229.385 35.6484C229.312 34.8171 229.397 34.0527 229.385 33.3538C229.342 31.0073 229.346 29.1292 229.346 26.169C229.346 24.7265 229.361 23.0861 229.346 21.8515C229.341 21.4976 229.451 20.5138 229.307 20.4027C229.184 20.3081 228.006 20.9448 227.86 21.0065C227.27 21.2548 226.89 21.4056 226.293 21.5504ZM240.255 24.1465C240.945 23.7794 241.853 23.466 242.601 23.0597C242.796 22.9536 243.3 22.7011 243.304 22.607C243.307 22.5469 243.079 22.4119 242.953 22.305C242.562 21.9767 242.209 21.5942 241.897 21.3387C240.653 20.3213 239.541 19.1523 238.338 18.169C238.07 17.9501 237.917 17.6656 237.673 17.4748C237.606 17.422 237.179 17.6456 237.126 17.7767C237.019 18.0395 237.126 18.5109 237.126 18.8031C237.126 21.4384 237.109 23.1938 237.164 25.626C238.236 25.1699 239.203 24.7052 240.255 24.1465Z" fill="#A7A9AB"/>
<path fill-rule="evenodd" clip-rule="evenodd" d="M132.281 20.4329C131.488 20.7204 130.847 21.0185 129.973 21.369C129.788 21.4435 129.3 21.6952 129.191 21.6104C129.049 21.5001 129.203 21.0632 129.23 20.7348C129.243 20.5679 129.15 20.2204 129.23 20.0705C129.293 19.9517 130.053 19.691 130.364 19.5573C131.142 19.2221 131.797 18.8691 132.554 18.531C132.966 18.3465 133.384 18.2311 133.727 18.0783C134.076 17.922 134.442 17.6098 134.743 17.4748C135.099 17.3151 135.513 17.2316 135.877 17.0821C136.233 16.9361 136.528 16.7385 136.855 16.569C137.19 16.3961 137.55 16.2917 137.911 16.1465C138.609 15.8654 139.276 15.5103 139.945 15.2104C141.329 14.5899 142.686 13.9618 144.051 13.3992C144.35 13.2757 145.013 13.6368 145.42 13.8217C145.809 13.9984 146.22 14.1786 146.554 14.3348C147.775 14.9089 148.804 15.4029 149.995 15.9046C150.78 16.2351 151.525 16.615 152.263 16.9612C152.681 17.1571 153.133 17.2866 153.515 17.4744C154.333 17.8772 154.836 18.4471 154.922 19.4364C155.035 20.7297 154.922 21.9562 154.922 23.1798C154.923 26.6647 154.961 29.2194 154.962 33.2329C154.962 33.5574 154.941 34.1319 155 34.1685C155.118 34.2405 156.05 33.841 156.213 33.7758C156.387 33.7068 157.051 33.2725 157.347 33.3231C157.501 33.3495 158.14 34.3474 158.09 34.5305C158.056 34.6557 157.314 34.9632 157.191 35.0138C155.489 35.714 154.102 36.4043 152.498 37.127C151.854 37.417 151.176 37.6653 150.582 37.9421C148.313 38.9987 146.333 39.8441 144.012 40.9006C143.685 41.0497 143.279 41.2946 143.034 41.2929C142.663 41.2907 142.092 40.9202 141.744 40.7499C140.517 40.1481 139.167 39.6107 138.029 39.0894C137.212 38.7155 136.401 38.3212 135.565 37.9426C134.363 37.3979 132.795 36.9941 132.437 35.7991C132.187 34.9678 132.337 33.9705 132.319 33.1728C132.256 30.4136 132.35 26.7813 132.319 23.8139C132.307 22.6044 132.284 21.6585 132.281 20.4329ZM140.141 17.867C139.836 17.9496 139.909 18.5114 139.907 18.6821C139.892 19.6233 139.92 20.6271 139.946 21.369C139.979 22.3463 139.946 24.2789 139.946 25.5957C139.945 27.217 139.949 28.5581 139.946 29.8821C139.943 31.1861 139.735 33.0327 140.376 33.7465C140.681 34.0871 141.448 34.332 141.979 34.5914C143.439 35.306 144.887 35.86 146.32 36.5236C146.383 36.5525 146.987 36.9673 147.258 36.7953C147.388 36.7135 147.337 36.1164 147.337 35.829C147.337 34.7217 147.337 33.7192 147.337 32.7499C147.337 28.9039 147.297 27.0479 147.298 23.2104C147.298 22.5827 147.428 21.8493 147.18 21.3383C147.004 20.9746 146.223 20.4597 145.773 20.2515C145.111 19.9461 144.55 19.7225 143.935 19.4666C142.921 19.0446 142.218 18.64 141.237 18.2588C140.945 18.1455 140.471 17.8329 140.22 17.8666C140.195 17.8704 140.164 17.8611 140.141 17.867Z" fill="#A7A9AB"/>
<path fill-rule="evenodd" clip-rule="evenodd" d="M30.8378 21.611C30.8554 21.3218 30.8008 21.1059 30.7986 20.8563C30.7969 20.6826 30.7173 20.2989 30.8378 20.1017C30.9139 19.9765 31.619 19.7078 31.9718 19.5583C32.4013 19.3764 32.8189 19.227 33.145 19.0753C33.5239 18.899 33.858 18.6691 34.2398 18.5017C34.6557 18.319 35.1096 18.2108 35.4522 18.049C35.7749 17.8965 36.0703 17.6346 36.3516 17.5056C36.8606 17.2722 37.4322 17.1393 37.9157 16.9017C38.3861 16.6709 38.8082 16.3936 39.2843 16.1773C39.8212 15.9333 40.3911 15.7748 40.9268 15.5129C42.4233 14.7826 44.0573 14.1118 45.6197 13.43C45.9622 13.2805 46.6088 14.0496 46.8713 14.2754C47.6116 14.9125 48.2467 15.4601 49.0223 16.0564C49.4296 16.3698 49.7148 16.719 50.0392 16.9924C50.271 17.1875 50.6153 17.325 50.821 17.5056C51.0204 17.6806 51.1198 17.9306 51.2903 18.0792C51.4658 18.2325 51.83 18.3893 52.0334 18.5622C52.2215 18.7219 52.4061 19.0187 52.6203 19.1963C52.797 19.3432 53.1066 19.5204 53.3634 19.7397C53.8509 20.1566 54.1702 20.4637 54.7321 20.9172C54.8446 21.0079 55.4025 21.4061 55.3968 21.4909C55.3871 21.6276 54.7673 21.8737 54.5753 21.9742C53.7259 22.4184 52.7032 22.8247 51.955 23.2118C50.842 23.7885 49.6001 24.294 48.4354 24.8421C46.4384 25.7815 44.4078 26.7346 42.3739 27.7703C42.0506 27.9352 41.5864 28.0489 41.5131 28.1928C41.3819 28.4522 41.5131 29.1625 41.5131 29.5816C41.5131 30.398 41.5035 31.4358 41.5131 32.2986C41.5217 33.0533 41.4637 33.6823 41.904 34.1103C42.221 34.4182 42.763 34.6452 43.2727 34.8952C44.2578 35.3781 45.0498 35.8623 46.0884 36.4049C46.2798 36.5045 46.5406 36.6233 46.7923 36.7673C47.4519 37.1438 47.5144 37.1838 48.2786 36.858C49.5194 36.3286 50.5988 35.8955 51.8766 35.3483C52.0493 35.2742 53.0765 34.7495 53.3629 34.8049C53.602 34.8509 53.7429 35.2946 53.8713 35.5297C54.0139 35.7912 54.3611 36.1596 54.3014 36.3146C54.2736 36.3878 53.7992 36.5488 53.5975 36.6463C52.9095 36.9811 52.1578 37.3073 51.4857 37.5824C50.4329 38.0134 49.6057 38.4699 48.7092 38.8502C47.3298 39.4354 45.9123 40.0576 44.4857 40.7223C44.1283 40.8893 43.4085 41.3301 43.0778 41.3262C42.7835 41.3228 42.2529 40.9566 41.983 40.8131C40.9314 40.2547 39.8167 39.7684 38.7758 39.2131C38.0895 38.8468 37.3481 38.564 36.6249 38.1565C35.3909 37.4602 34.0983 37.1863 33.9262 35.7111C33.7637 34.3173 33.9472 32.8518 33.9262 31.636C33.9057 30.4533 33.9569 29.1272 33.9262 28.1038C33.8745 26.3488 33.887 23.9218 33.887 21.4317C33.887 21.1008 33.9035 20.4922 33.8478 20.4658C33.7126 20.4011 33.22 20.6962 33.066 20.7673C32.3502 21.0978 31.544 21.4291 30.8378 21.611ZM44.6817 24.2373C45.3532 23.8813 46.2605 23.5334 46.9889 23.1203C47.1997 23.001 47.6911 22.7915 47.6928 22.6676C47.6928 22.6297 47.369 22.3631 47.3019 22.3051C46.9338 21.9913 46.7514 21.8116 46.4418 21.5203C46.2901 21.378 46.1066 21.2652 45.9333 21.1276C45.2935 20.6196 44.7089 19.9718 44.0953 19.4676C43.7488 19.1822 43.5016 18.865 43.196 18.592C43.0164 18.4319 42.7574 18.3062 42.5704 18.1393C42.3756 17.9655 42.2358 17.7573 42.062 17.5959C41.9966 17.535 41.5677 17.7262 41.5143 17.8071C41.42 17.9506 41.4745 18.5698 41.4751 18.8032C41.4808 20.9824 41.5006 23.0121 41.5535 25.6861C42.5932 25.1887 43.6101 24.8054 44.6817 24.2373Z" fill="#A7A9AB"/>
<path fill-rule="evenodd" clip-rule="evenodd" d="M168.024 13.4593C168.082 13.4567 168.043 13.4265 168.103 13.4593C168.917 13.9056 169.602 14.6449 170.41 15.2705C170.992 15.7206 171.555 16.1031 172.131 16.629C172.334 16.8147 172.499 17.0958 172.639 17.112C172.884 17.1401 173.452 16.7547 173.695 16.629C174.063 16.4391 174.455 16.2913 174.751 16.1763C175.539 15.8697 176.22 15.5192 176.862 15.2407C177.89 14.7948 178.988 14.354 180.07 13.8822C180.359 13.7561 180.929 13.432 181.125 13.4295C181.361 13.4265 181.849 13.757 182.064 13.8822C182.915 14.3792 183.809 14.8859 184.606 15.3616C185.861 16.1112 187.756 16.7393 188.047 18.1694C188.181 18.8299 188.087 19.6157 188.087 20.343C188.087 23.6917 188.145 28.1867 188.125 32.7508C188.12 33.9722 188.063 35.1608 188.321 36.1318C188.426 36.5295 188.942 36.8485 189.416 37.0981C189.67 37.2318 190.073 37.4579 190.237 37.4605C190.49 37.4647 191.299 37.0614 191.567 36.9473C191.702 36.8898 192.633 36.3609 192.857 36.4043C192.993 36.4303 193.174 36.7714 193.287 36.978C193.386 37.1581 193.635 37.4894 193.6 37.6117C193.565 37.7343 192.824 38.0162 192.662 38.095C190.685 39.0503 188.713 39.8394 186.796 40.7818C186.538 40.9088 186.032 41.2005 185.819 41.2043C185.571 41.2094 184.986 40.8828 184.762 40.7818C184.297 40.5723 184.047 40.4599 183.746 40.3291C182.687 39.8696 181.563 39.4357 181.086 38.5784C180.416 37.371 180.617 35.7042 180.617 33.9901C180.618 32.62 180.564 31.233 180.579 29.7633C180.593 28.1412 180.578 25.1294 180.579 22.699C180.579 21.2672 180.591 20.3665 179.6 19.6497C179.343 19.4632 178.974 19.3537 178.662 19.1668C178.366 18.9896 178.14 18.7422 177.841 18.5629C177.524 18.373 177.148 18.2456 176.863 18.08C176.702 17.9854 176.29 17.5165 176.081 17.5063C175.894 17.4974 175.39 17.8841 175.103 18.0195C174.853 18.1375 174.448 18.2537 174.086 18.3819C173.838 18.4705 173.247 18.6898 173.187 18.8048C173.062 19.045 173.187 19.6974 173.187 20.1029C173.187 22.8246 173.16 26.3546 173.187 28.2842C173.218 30.5196 173.226 33.2167 173.226 35.7711C173.226 37.0585 173.375 38.2701 172.561 38.9408C172.409 39.0664 172.176 39.2053 171.975 39.3032C171.048 39.7525 170.137 39.9463 168.885 40.3598C168.437 40.508 167.908 40.7141 167.36 40.9032C167.227 40.9488 166.018 41.4977 165.678 41.235C165.571 41.1524 165.6 40.0242 165.6 39.9667C165.592 36.2391 165.514 31.0545 165.56 27.4385C165.582 25.778 165.56 23.2539 165.56 20.8571C165.56 20.3635 165.672 19.7962 165.56 19.4078C165.498 19.1911 165.105 18.91 164.857 18.6834C164.576 18.4275 164.244 18.238 164.035 18.0493C163.838 17.8713 163.649 17.4522 163.371 17.4152C162.971 17.3624 162.52 17.8564 162.198 18.0191C161.974 18.1324 161.581 18.2584 161.26 18.3815C160.965 18.4943 160.514 18.778 160.36 18.7741C160.125 18.7677 159.801 18.3751 159.656 18.2605C159.56 18.1843 159.036 17.8794 159.07 17.6571C159.102 17.4395 160.137 17.1507 160.36 17.0532C160.995 16.7755 161.568 16.3974 162.237 16.1176C163.525 15.5784 164.784 14.9473 166.031 14.3361C166.651 14.0321 167.308 13.6995 167.947 13.4606C167.964 13.4529 168.004 13.4601 168.024 13.4593Z" fill="#A7A9AB"/>
<path fill-rule="evenodd" clip-rule="evenodd" d="M141.432 19.3465C141.437 19.447 141.177 19.628 141.08 19.5577C140.936 19.4538 141.178 19.2055 141.432 19.3465Z" fill="#A7A9AB"/>
<path fill-rule="evenodd" clip-rule="evenodd" d="M42.7262 19.7086C43.1023 19.5059 42.9285 20.1664 42.6478 19.9501C42.5165 19.8487 42.6881 19.7295 42.7262 19.7086Z" fill="#A7A9AB"/>
<path fill-rule="evenodd" clip-rule="evenodd" d="M238.847 20.101C239.647 20.0495 238.403 20.6103 238.299 20.5537C238 20.391 238.695 20.1108 238.847 20.101Z" fill="#A7A9AB"/>
<path fill-rule="evenodd" clip-rule="evenodd" d="M43.2346 20.192C43.6641 20.1673 43.3755 20.3742 43.117 20.4939C42.9545 20.5689 42.4227 20.7924 42.6477 20.4334C42.6931 20.361 43.1028 20.1996 43.2346 20.192Z" fill="#A7A9AB"/>
<path fill-rule="evenodd" clip-rule="evenodd" d="M9.25069 33.0226C9.21206 32.742 9.85463 32.4183 10.0722 32.5392C10.3313 32.684 9.40864 33.0541 9.25069 33.0226Z" fill="#A7A9AB"/>
<path fill-rule="evenodd" clip-rule="evenodd" d="M16.4854 33.3845C16.8644 33.3555 17.4115 33.3849 17.8541 33.4143C18.3041 33.4441 18.7495 33.3751 19.2227 33.4143C19.4983 33.4373 19.7971 33.5237 20.0829 33.565C21.5771 33.7831 22.831 33.9692 24.0326 34.4406C25.2865 34.9325 26.0285 35.4303 26.9267 36.1011C27.1193 36.245 27.5023 36.6607 27.6699 36.6747C28.0653 36.7075 28.9095 35.9299 29.3516 36.0104C29.5476 36.0461 29.7447 36.4516 29.86 36.6143C29.9572 36.7518 30.3015 37.1547 30.2509 37.3084C30.2094 37.4349 29.5101 37.684 29.2339 37.8216C27.1943 38.8403 25.2683 39.7448 23.2895 40.8406C23.0446 40.9764 22.4293 41.3108 22.2339 41.2933C22.0009 41.2729 21.689 40.8027 21.53 40.6289C20.0772 39.0426 17.6052 38.1683 14.2168 37.9421C13.7953 37.914 13.3146 37.9783 12.9652 38.0026C12.6715 38.023 12.3403 37.9826 12.0267 38.0026C11.0409 38.0648 9.98761 38.2607 9.01552 38.4251C6.09698 38.9178 3.5591 39.7431 1.31153 40.689C0.982578 40.8274 0.730892 40.9867 0.294559 41.1723C0.0360554 41.2822 -0.543448 41.6323 -0.722412 41.625C-0.874674 41.6199 -1.47463 41.1783 -1.46497 40.9918C-1.45815 40.87 -0.962168 40.5387 -0.682643 40.2976C-0.38721 40.0429 -0.135523 39.7712 0.0991189 39.603C2.44724 37.9281 5.01013 36.4456 7.92071 35.3162C9.38879 34.7464 11.0216 34.2426 12.7312 33.8674C13.6067 33.6753 14.5657 33.4824 15.4685 33.4147C15.7559 33.3934 16.1957 33.4066 16.4854 33.3845Z" fill="#A7A9AB"/>
<path fill-rule="evenodd" clip-rule="evenodd" d="M77.2185 34.0786C80.1575 33.9709 82.4358 34.4249 84.3356 35.2864C84.9066 35.5449 85.3782 35.8494 85.8997 36.222C86.0457 36.3264 86.3275 36.5184 86.4082 36.524C86.5588 36.5338 87.0031 36.3102 87.2292 36.222C87.8553 35.9784 88.149 35.8494 88.7933 35.5577C89.0086 35.4602 89.391 35.2161 89.575 35.2557C89.7551 35.2949 89.9364 35.7791 90.0835 36.0104C90.1898 36.1773 90.5324 36.5138 90.5136 36.6441C90.4778 36.8924 89.6608 37.1151 89.3012 37.2782C86.7258 38.4438 84.3044 39.5268 81.7142 40.7197C81.4001 40.8644 80.6473 41.2963 80.424 41.2631C80.2382 41.2354 80.0922 40.8589 79.9939 40.7197C78.7883 39.0064 76.4226 37.9464 72.6808 38.1538C70.5293 38.2726 68.1857 38.7815 66.3847 39.3313C65.2001 39.6933 63.6621 40.2435 62.5134 40.8708C62.2242 41.0288 61.5504 41.4547 61.3401 41.4445C61.2242 41.4385 60.4794 40.8282 60.48 40.6898C60.48 40.6025 61.189 40.0825 61.4578 39.8752C63.2014 38.529 65.0893 37.5082 67.2068 36.4937C67.6011 36.3051 68.1022 36.156 68.5754 35.9806C69.0521 35.8038 69.4788 35.5717 69.8657 35.4376C70.6321 35.1714 71.5758 35.0023 72.4467 34.7732C73.9637 34.3742 75.2857 34.1497 77.2185 34.0786Z" fill="#A7A9AB"/>
<path fill-rule="evenodd" clip-rule="evenodd" d="M211.589 34.9542C211.598 35.214 211.059 35.2604 211.041 35.105C211.032 35.024 211.436 34.8865 211.589 34.9542Z" fill="#A7A9AB"/>
<path fill-rule="evenodd" clip-rule="evenodd" d="M146.164 34.9844C146.395 35.3085 145.704 35.3983 145.655 35.2258C145.618 35.0964 146.002 35.0406 146.164 34.9844Z" fill="#A7A9AB"/>
<path fill-rule="evenodd" clip-rule="evenodd" d="M12.9266 38.8789C12.8811 39.0463 12.33 39.2558 12.2227 38.9994C12.4209 38.9317 12.6459 38.884 12.9266 38.8789Z" fill="#A7A9AB"/>
<path fill-rule="evenodd" clip-rule="evenodd" d="M72.4081 39.0905C72.3461 39.2497 72.0342 39.3575 71.782 39.2719C71.8348 39.0905 72.1087 39.0807 72.4081 39.0905Z" fill="#A7A9AB"/>
<path d="M65.4927 4.42794C65.6302 4.29847 65.8069 4.20222 65.9455 4.07446" stroke="#A7A9AB" stroke-width="0.818385" stroke-linecap="round"/>
<path d="M64.5479 5.48961C64.7711 5.26645 65.1302 5.17276 65.4216 5.01221" stroke="#A7A9AB" stroke-width="0.866035" stroke-linecap="round"/>
<path d="M23.6934 5.52412C24.0507 5.40445 24.3382 5.17405 24.7172 5.09229" stroke="#A7A9AB" stroke-width="0.924555" stroke-linecap="round"/>
<path d="M24.502 5.83673C24.9292 5.70982 25.3178 5.52712 25.7093 5.3457" stroke="#A7A9AB" stroke-width="0.906075" stroke-linecap="round"/>
<path d="M25.3313 6.15984C25.7523 5.98055 26.1767 5.80552 26.6142 5.64624" stroke="#A7A9AB" stroke-width="0.908068" stroke-linecap="round"/>
<path d="M64.0435 6.34996C64.3957 6.13532 64.8104 5.98158 65.211 5.83423" stroke="#A7A9AB" stroke-width="0.805159" stroke-linecap="round"/>
<path d="M25.8513 6.65183C26.3251 6.44827 26.7791 6.21574 27.2609 6.02197" stroke="#A7A9AB" stroke-width="0.949015" stroke-linecap="round"/>
<path d="M26.3989 7.10503C26.8796 6.90274 27.3676 6.70897 27.8431 6.49731" stroke="#A7A9AB" stroke-width="0.897741" stroke-linecap="round"/>
<path d="M63.8242 7.1049C64.2424 6.89623 64.71 6.74845 65.1406 6.55127" stroke="#A7A9AB" stroke-width="0.839583" stroke-linecap="round"/>
<path d="M26.8682 7.61804C27.342 7.41149 27.7976 7.18237 28.2817 6.99243" stroke="#A7A9AB" stroke-width="0.913866" stroke-linecap="round"/>
<path d="M65.2769 7.16919C64.8116 7.37318 64.3372 7.59591 63.8503 7.77861" stroke="#A7A9AB" stroke-width="0.703155" stroke-linecap="round"/>
<path d="M27.2598 8.10118C27.737 7.88824 28.2256 7.70001 28.6977 7.49048" stroke="#A7A9AB" stroke-width="0.805159" stroke-linecap="round"/>
<path d="M207.034 7.44312C206.563 7.60835 206.139 7.84343 205.665 7.99547" stroke="#A7A9AB" stroke-width="0.762944" stroke-linecap="round"/>
<path d="M64.041 8.37545C64.5308 8.16123 65.0279 7.94745 65.5256 7.73877" stroke="#A7A9AB" stroke-width="0.647533" stroke-linecap="round"/>
<path d="M206.407 8.36761C206.844 8.17214 207.274 7.96175 207.737 7.79907" stroke="#A7A9AB" stroke-width="0.921113" stroke-linecap="round"/>
<path d="M107.468 8.34247C107.88 8.15424 108.298 7.95919 108.738 7.81396" stroke="#A7A9AB" stroke-width="0.854983" stroke-linecap="round"/>
<path d="M27.533 8.70463C28.0284 8.47849 28.5028 8.21616 28.98 7.98022" stroke="#A7A9AB" stroke-width="0.602601" stroke-linecap="round"/>
<path d="M90.6318 8.68329C91.1238 8.52189 91.546 8.24848 92.0317 8.07983" stroke="#A7A9AB" stroke-width="1.01098" stroke-linecap="round"/>
<path d="M108.191 8.73477C108.636 8.55377 109.076 8.36384 109.499 8.15771" stroke="#A7A9AB" stroke-width="0.859331" stroke-linecap="round"/>
<path d="M207.112 8.76063C207.592 8.58517 208.045 8.36798 208.5 8.15845" stroke="#A7A9AB" stroke-width="0.975467" stroke-linecap="round"/>
<path d="M64.4497 8.91617C64.9588 8.72154 65.4474 8.51074 65.936 8.28247" stroke="#A7A9AB" stroke-width="0.769285" stroke-linecap="round"/>
<path d="M91.2966 9.05198C91.7551 8.87653 92.2085 8.69553 92.6528 8.49878" stroke="#A7A9AB" stroke-width="0.933433" stroke-linecap="round"/>
<path d="M108.986 9.05633C109.422 8.9341 109.832 8.72713 110.25 8.56274" stroke="#A7A9AB" stroke-width="0.799723" stroke-linecap="round"/>
<path d="M207.776 9.15764C208.235 8.96472 208.707 8.78798 209.171 8.604" stroke="#A7A9AB" stroke-width="0.852265" stroke-linecap="round"/>
<path d="M65.0627 9.28836C65.507 9.09757 65.9547 8.91572 66.4143 8.74878" stroke="#A7A9AB" stroke-width="0.720005" stroke-linecap="round"/>
<path d="M92.0073 9.44931C92.4482 9.23723 92.9203 9.05112 93.389 8.87354" stroke="#A7A9AB" stroke-width="0.864585" stroke-linecap="round"/>
<path d="M109.755 9.41403C110.193 9.23644 110.619 9.0414 111.066 8.87573" stroke="#A7A9AB" stroke-width="0.844837" stroke-linecap="round"/>
<path d="M208.321 9.66687C208.785 9.42114 209.278 9.21077 209.771 9.00635" stroke="#A7A9AB" stroke-width="0.935607" stroke-linecap="round"/>
<path d="M9.64795 9.52987C9.8343 9.31863 10.1729 9.25646 10.4041 9.08228" stroke="#A7A9AB" stroke-width="0.85607" stroke-linecap="round"/>
<path d="M65.9358 9.64058C66.3159 9.46342 66.6931 9.26752 67.0959 9.11719" stroke="#A7A9AB" stroke-width="0.877087" stroke-linecap="round"/>
<path d="M75.908 9.48974C76.2307 9.35218 76.5318 9.17417 76.8857 9.08984" stroke="#A7A9AB" stroke-width="0.848642" stroke-linecap="round"/>
<path d="M110.557 9.78591C111.007 9.60875 111.42 9.37495 111.867 9.18799" stroke="#A7A9AB" stroke-width="0.772728" stroke-linecap="round"/>
<path d="M92.5767 9.92628C93.0726 9.72825 93.5374 9.48849 94.0146 9.26831" stroke="#A7A9AB" stroke-width="0.860237" stroke-linecap="round"/>
<path d="M76.3794 9.97709C76.8924 9.8093 77.3458 9.55378 77.8361 9.34766" stroke="#A7A9AB" stroke-width="0.992135" stroke-linecap="round"/>
<path d="M66.9641 9.86937C67.3379 9.79952 67.6731 9.58276 68.0084 9.42944" stroke="#A7A9AB" stroke-width="0.814036" stroke-linecap="round"/>
<path d="M208.767 10.1434C209.272 9.94371 209.779 9.74057 210.26 9.50464" stroke="#A7A9AB" stroke-width="0.84067" stroke-linecap="round"/>
<path d="M112.63 9.58008C112.202 9.77002 111.769 9.95995 111.32 10.1197" stroke="#A7A9AB" stroke-width="0.824182" stroke-linecap="round"/>
<path d="M93.0647 10.356C93.5539 10.1712 94.0459 9.9855 94.5271 9.78491" stroke="#A7A9AB" stroke-width="0.913866" stroke-linecap="round"/>
<path d="M76.6516 10.5161C77.1152 10.296 77.6067 10.1141 78.0987 9.93652" stroke="#A7A9AB" stroke-width="0.681051" stroke-linecap="round"/>
<path d="M112.075 10.4446C112.528 10.2849 112.968 10.0992 113.419 9.9314" stroke="#A7A9AB" stroke-width="0.87455" stroke-linecap="round"/>
<path d="M8.99121 10.4516C9.23097 10.2416 9.63662 10.2148 9.89626 10.021" stroke="#A7A9AB" stroke-width="0.851903" stroke-linecap="round"/>
<path d="M209.15 10.6456C209.626 10.4037 210.138 10.2219 210.644 10.0234" stroke="#A7A9AB" stroke-width="0.745007" stroke-linecap="round"/>
<path d="M112.864 10.8484C113.306 10.6457 113.729 10.4162 114.201 10.2556" stroke="#A7A9AB" stroke-width="0.888501" stroke-linecap="round"/>
<path d="M93.2327 10.9932C93.7059 10.7944 94.1638 10.5618 94.6343 10.3557" stroke="#A7A9AB" stroke-width="0.820015" stroke-linecap="round"/>
<path d="M76.8369 11.135C77.2852 10.9621 77.7141 10.7564 78.1431 10.5549" stroke="#A7A9AB" stroke-width="0.798093" stroke-linecap="round"/>
<path d="M209.51 11.1903C210.01 10.9923 210.51 10.7815 210.983 10.5464" stroke="#A7A9AB" stroke-width="0.902633" stroke-linecap="round"/>
<path d="M8.52686 11.3616C8.74843 11.1244 9.21033 11.0712 9.50463 10.8787" stroke="#A7A9AB" stroke-width="0.877811" stroke-linecap="round"/>
<path d="M93.3442 11.6546C93.78 11.4744 94.2016 11.2658 94.6493 11.1035" stroke="#A7A9AB" stroke-width="0.788309" stroke-linecap="round"/>
<path d="M209.719 11.7738C210.214 11.563 210.712 11.3458 211.212 11.1414" stroke="#A7A9AB" stroke-width="0.891581" stroke-linecap="round"/>
<path d="M76.8379 11.8376C77.2617 11.6515 77.6793 11.4629 78.1071 11.2844" stroke="#A7A9AB" stroke-width="0.768198" stroke-linecap="round"/>
<path d="M8.15601 12.1767C8.51621 11.9459 9.00083 11.8441 9.3491 11.603" stroke="#A7A9AB" stroke-width="0.86223" stroke-linecap="round"/>
<path d="M93.356 12.3368C93.7974 12.1443 94.2394 11.9492 94.6882 11.7678" stroke="#A7A9AB" stroke-width="0.769829" stroke-linecap="round"/>
<path d="M209.883 12.4063C210.352 12.1933 210.841 12.0111 211.3 11.7917" stroke="#A7A9AB" stroke-width="0.939593" stroke-linecap="round"/>
<path d="M76.8918 12.5177C77.3157 12.3256 77.7452 12.1455 78.1764 11.9653" stroke="#A7A9AB" stroke-width="0.757146" stroke-linecap="round"/>
<path d="M7.9502 12.9616C8.33994 12.7282 8.84331 12.6073 9.22113 12.3582" stroke="#A7A9AB" stroke-width="0.903176" stroke-linecap="round"/>
<path d="M209.907 13.0519C210.38 12.833 210.871 12.6256 211.347 12.408" stroke="#A7A9AB" stroke-width="0.592998" stroke-linecap="round"/>
<path d="M93.3499 13.0219C93.7936 12.8354 94.2407 12.6471 94.6793 12.4482" stroke="#A7A9AB" stroke-width="0.778888" stroke-linecap="round"/>
<path d="M76.8994 13.1933C77.3357 13.0064 77.7738 12.8271 78.2061 12.6299" stroke="#A7A9AB" stroke-width="0.750624" stroke-linecap="round"/>
<path d="M7.78955 13.66C8.25031 13.4717 8.70653 13.2775 9.15252 13.0671" stroke="#A7A9AB" stroke-width="0.801173" stroke-linecap="round"/>
<path d="M93.3889 13.6983C93.8156 13.5088 94.2406 13.3175 94.6741 13.1387" stroke="#A7A9AB" stroke-width="0.800629" stroke-linecap="round"/>
<path d="M76.8772 13.8836C77.3255 13.7183 77.7419 13.5028 78.1771 13.324" stroke="#A7A9AB" stroke-width="0.762763" stroke-linecap="round"/>
<path d="M111.007 13.7613C111.221 13.5603 111.586 13.5024 111.834 13.3337" stroke="#A7A9AB" stroke-width="0.867846" stroke-linecap="round"/>
<path d="M7.81055 14.3401C8.22302 14.1506 8.65253 13.9802 9.07523 13.8069" stroke="#A7A9AB" stroke-width="0.871108" stroke-linecap="round"/>
<path d="M93.3442 14.3716C93.7902 14.1957 94.2453 14.0041 94.6794 13.8069" stroke="#A7A9AB" stroke-width="0.784142" stroke-linecap="round"/>
<path d="M76.8994 14.5713C77.3261 14.3907 77.7522 14.2037 78.1772 14.0181" stroke="#A7A9AB" stroke-width="0.890675" stroke-linecap="round"/>
<path d="M110.374 14.6824C110.711 14.472 111.123 14.3493 111.486 14.1692" stroke="#A7A9AB" stroke-width="0.792295" stroke-linecap="round"/>
<path d="M7.71167 15.0488C8.19516 14.8755 8.6599 14.6689 9.12577 14.4756" stroke="#A7A9AB" stroke-width="0.724534" stroke-linecap="round"/>
<path d="M93.3628 15.0547C93.8042 14.8741 94.2531 14.7025 94.6792 14.5015" stroke="#A7A9AB" stroke-width="0.879623" stroke-linecap="round"/>
<path d="M76.8901 15.229C77.3214 15.045 77.7725 14.8904 78.1895 14.6924" stroke="#A7A9AB" stroke-width="0.862411" stroke-linecap="round"/>
<path d="M110.049 15.4976C110.414 15.2689 110.868 15.1463 111.255 14.9448" stroke="#A7A9AB" stroke-width="0.907887" stroke-linecap="round"/>
<path d="M7.77881 15.7575C8.2248 15.5612 8.65204 15.3418 9.11394 15.1655" stroke="#A7A9AB" stroke-width="0.962241" stroke-linecap="round"/>
<path d="M93.3499 15.769C93.789 15.5637 94.2231 15.3482 94.6793 15.1655" stroke="#A7A9AB" stroke-width="0.911148" stroke-linecap="round"/>
<path d="M76.8994 15.9299C77.3329 15.7433 77.7721 15.5632 78.1772 15.3464" stroke="#A7A9AB" stroke-width="0.91604" stroke-linecap="round"/>
<path d="M109.814 16.2444C110.248 16.0447 110.738 15.9059 111.144 15.6785" stroke="#A7A9AB" stroke-width="0.769829" stroke-linecap="round"/>
<path d="M7.78052 16.3795C8.26514 16.1904 8.75545 16.0035 9.23098 15.7991" stroke="#A7A9AB" stroke-width="0.88995" stroke-linecap="round"/>
<path d="M94.6793 15.8899C94.2384 16.0734 93.781 16.2412 93.3413 16.4265" stroke="#A7A9AB" stroke-width="0.743195" stroke-linecap="round"/>
<path d="M76.8704 16.6446C77.2612 16.3959 77.7459 16.2451 78.1947 16.0684" stroke="#A7A9AB" stroke-width="0.764756" stroke-linecap="round"/>
<path d="M109.775 17.0069C110.205 16.8166 110.606 16.593 111.026 16.3911" stroke="#A7A9AB" stroke-width="0.945753" stroke-linecap="round"/>
<path d="M7.89526 17.0923C8.38784 16.8993 8.83042 16.646 9.29971 16.4258" stroke="#A7A9AB" stroke-width="0.874912" stroke-linecap="round"/>
<path d="M93.3713 17.1306C93.8446 16.9798 94.2684 16.7541 94.6917 16.5288" stroke="#A7A9AB" stroke-width="0.858244" stroke-linecap="round"/>
<path d="M76.8862 17.2845C77.347 17.15 77.793 16.9715 78.1964 16.7505" stroke="#A7A9AB" stroke-width="0.744464" stroke-linecap="round"/>
<path d="M7.97534 17.6978C8.4077 17.4585 8.91277 17.3064 9.39342 17.1318" stroke="#A7A9AB" stroke-width="0.777257" stroke-linecap="round"/>
<path d="M109.603 17.7314C109.996 17.4648 110.514 17.3234 110.988 17.1577" stroke="#A7A9AB" stroke-width="0.852084" stroke-linecap="round"/>
<path d="M209.943 17.8524C210.383 17.5956 210.873 17.3976 211.374 17.2183" stroke="#A7A9AB" stroke-width="0.796824" stroke-linecap="round"/>
<path d="M93.3691 17.8068C93.7526 17.5781 94.1895 17.415 94.627 17.2583" stroke="#A7A9AB" stroke-width="0.815667" stroke-linecap="round"/>
<path d="M76.8772 18.0196C77.338 17.8399 77.7209 17.5537 78.1947 17.397" stroke="#A7A9AB" stroke-width="0.837952" stroke-linecap="round"/>
<path d="M8.12695 18.3209C8.59851 18.1659 9.05927 17.9751 9.46208 17.7285" stroke="#A7A9AB" stroke-width="0.991773" stroke-linecap="round"/>
<path d="M109.638 18.3954C110.09 18.2285 110.585 18.0858 110.963 17.8218" stroke="#A7A9AB" stroke-width="0.766568" stroke-linecap="round"/>
<path d="M210.005 18.486C210.467 18.2948 211.058 18.1845 211.406 17.8774" stroke="#A7A9AB" stroke-width="0.820378" stroke-linecap="round"/>
<path d="M94.7236 17.8975C94.3492 18.1756 93.8254 18.2748 93.376 18.466" stroke="#A7A9AB" stroke-width="0.712939" stroke-linecap="round"/>
<path d="M76.8862 18.6372C77.3089 18.4711 77.7436 18.311 78.1765 18.1543" stroke="#A7A9AB" stroke-width="0.693552" stroke-linecap="round"/>
<path d="M8.22632 19.0083C8.68424 18.7681 9.15523 18.5407 9.66144 18.3652" stroke="#A7A9AB" stroke-width="0.965321" stroke-linecap="round"/>
<path d="M109.618 19.1201C110.093 18.9544 110.481 18.6678 110.956 18.5" stroke="#A7A9AB" stroke-width="0.853171" stroke-linecap="round"/>
<path d="M209.951 19.241C210.465 19.0541 210.911 18.7858 211.4 18.5669" stroke="#A7A9AB" stroke-width="0.964958" stroke-linecap="round"/>
<path d="M93.3645 19.1916C93.8326 19.0289 94.2377 18.7785 94.6792 18.5767" stroke="#A7A9AB" stroke-width="0.849729" stroke-linecap="round"/>
<path d="M76.8662 19.3617C77.3508 19.2067 77.8036 18.9916 78.2309 18.7578" stroke="#A7A9AB" stroke-width="0.797368" stroke-linecap="round"/>
<path d="M161.859 19.3833C162.314 19.219 162.76 19.0363 163.17 18.8105" stroke="#A7A9AB" stroke-width="0.929266" stroke-linecap="round"/>
<path d="M8.38379 19.5931C8.86216 19.3959 9.35701 19.2205 9.81778 18.999" stroke="#A7A9AB" stroke-width="0.806608" stroke-linecap="round"/>
<path d="M176.615 19.1909C176.143 19.3753 175.655 19.5516 175.201 19.7624" stroke="#A7A9AB" stroke-width="0.939412" stroke-linecap="round"/>
<path d="M109.665 19.765C110.103 19.5913 110.533 19.3954 110.987 19.2412" stroke="#A7A9AB" stroke-width="0.849366" stroke-linecap="round"/>
<path d="M162.375 19.8179C162.844 19.6586 163.27 19.4273 163.751 19.2847" stroke="#A7A9AB" stroke-width="0.889044" stroke-linecap="round"/>
<path d="M93.3948 19.8468C93.8396 19.6662 94.2663 19.4665 94.7191 19.3013" stroke="#A7A9AB" stroke-width="0.889226" stroke-linecap="round"/>
<path d="M209.979 19.8848C210.421 19.6744 210.885 19.4968 211.344 19.3149" stroke="#A7A9AB" stroke-width="0.879442" stroke-linecap="round"/>
<path d="M76.8862 20.0562C77.3203 19.8718 77.7453 19.6733 78.1782 19.4868" stroke="#A7A9AB" stroke-width="0.905532" stroke-linecap="round"/>
<path d="M175.821 20.1578C176.337 19.9763 176.814 19.7438 177.305 19.5317" stroke="#A7A9AB" stroke-width="1.00681" stroke-linecap="round"/>
<path d="M8.56616 20.2069C9.05306 19.9969 9.53995 19.7976 10.0132 19.5728" stroke="#A7A9AB" stroke-width="0.944847" stroke-linecap="round"/>
<path d="M141.223 20.0876C141.507 19.9913 141.741 19.8248 142.028 19.7388" stroke="#A7A9AB" stroke-width="1.00518" stroke-linecap="round"/>
<path d="M162.923 20.3012C163.365 20.1283 163.797 19.9307 164.228 19.7407" stroke="#A7A9AB" stroke-width="0.913141" stroke-linecap="round"/>
<path d="M109.638 20.4635C110.079 20.2595 110.559 20.0934 110.996 19.8813" stroke="#A7A9AB" stroke-width="0.865491" stroke-linecap="round"/>
<path d="M176.491 20.5692C176.987 20.3682 177.469 20.1438 177.977 19.9653" stroke="#A7A9AB" stroke-width="0.874731" stroke-linecap="round"/>
<path d="M209.951 20.5997C210.421 20.374 210.922 20.196 211.396 19.9741" stroke="#A7A9AB" stroke-width="0.774902" stroke-linecap="round"/>
<path d="M93.3691 20.5541C93.7981 20.3425 94.2537 20.1721 94.6986 19.9805" stroke="#A7A9AB" stroke-width="0.896292" stroke-linecap="round"/>
<path d="M141.442 20.6674C141.879 20.4613 142.336 20.2863 142.781 20.0908" stroke="#A7A9AB" stroke-width="0.98525" stroke-linecap="round"/>
<path d="M76.8936 20.7504C77.3293 20.5306 77.7918 20.3424 78.2446 20.1465" stroke="#A7A9AB" stroke-width="0.913322" stroke-linecap="round"/>
<path d="M8.68384 20.8706C9.15028 20.6555 9.60934 20.4273 10.0974 20.2407" stroke="#A7A9AB" stroke-width="0.859331" stroke-linecap="round"/>
<path d="M163.029 20.9478C163.456 20.7851 163.866 20.579 164.266 20.3882" stroke="#A7A9AB" stroke-width="0.808963" stroke-linecap="round"/>
<path d="M177.156 21.0218C177.66 20.8446 178.109 20.5815 178.601 20.3843" stroke="#A7A9AB" stroke-width="0.946659" stroke-linecap="round"/>
<path d="M142.184 21.0372C142.673 20.8907 143.109 20.6467 143.563 20.4482" stroke="#A7A9AB" stroke-width="0.993041" stroke-linecap="round"/>
<path d="M110.95 20.5742C110.556 20.8016 110.1 20.9754 109.663 21.1521" stroke="#A7A9AB" stroke-width="0.918395" stroke-linecap="round"/>
<path d="M93.376 21.2132C93.8356 21.0586 94.2867 20.8763 94.7014 20.6553" stroke="#A7A9AB" stroke-width="0.903176" stroke-linecap="round"/>
<path d="M209.993 21.2435C210.472 21.0694 210.962 20.8982 211.39 20.6597" stroke="#A7A9AB" stroke-width="0.750261" stroke-linecap="round"/>
<path d="M238.441 21.0911C238.762 20.9638 239.085 20.8335 239.387 20.6802" stroke="#A7A9AB" stroke-width="0.937419" stroke-linecap="round"/>
<path d="M42.8728 21.1507C43.1915 21.0439 43.5 20.9144 43.7949 20.77" stroke="#A7A9AB" stroke-width="0.891219" stroke-linecap="round"/>
<path d="M76.9248 21.3838C77.3503 21.2054 77.7867 21.0499 78.2099 20.8677" stroke="#A7A9AB" stroke-width="0.832517" stroke-linecap="round"/>
<path d="M143.008 21.3431C143.469 21.2179 143.905 21.0093 144.345 20.8325" stroke="#A7A9AB" stroke-width="0.925099" stroke-linecap="round"/>
<path d="M8.85303 21.4242C9.3172 21.2437 9.79387 21.0699 10.2478 20.8706" stroke="#A7A9AB" stroke-width="0.84683" stroke-linecap="round"/>
<path d="M177.615 21.4894C178.11 21.2854 178.612 21.0998 179.111 20.9009" stroke="#A7A9AB" stroke-width="0.744283" stroke-linecap="round"/>
<path d="M162.813 21.626C163.236 21.3965 163.72 21.2295 164.181 21.0664" stroke="#A7A9AB" stroke-width="0.721635" stroke-linecap="round"/>
<path d="M238.443 21.748C238.928 21.5372 239.414 21.3238 239.917 21.1343" stroke="#A7A9AB" stroke-width="0.934339" stroke-linecap="round"/>
<path d="M143.785 21.7168C144.243 21.5566 144.655 21.3164 145.127 21.1733" stroke="#A7A9AB" stroke-width="0.997208" stroke-linecap="round"/>
<path d="M42.8699 21.8475C43.3352 21.6154 43.8249 21.405 44.3186 21.2168" stroke="#A7A9AB" stroke-width="0.944666" stroke-linecap="round"/>
<path d="M109.638 21.8522C110.052 21.6274 110.499 21.4481 110.948 21.2637" stroke="#A7A9AB" stroke-width="0.924374" stroke-linecap="round"/>
<path d="M209.976 21.9655C210.454 21.7492 210.914 21.5077 211.413 21.3237" stroke="#A7A9AB" stroke-width="0.801173" stroke-linecap="round"/>
<path d="M93.4282 21.9277C93.8435 21.7089 94.281 21.5147 94.7242 21.3281" stroke="#A7A9AB" stroke-width="0.827444" stroke-linecap="round"/>
<path d="M8.97681 22.1239C9.43984 21.8863 9.93242 21.687 10.3989 21.4502" stroke="#A7A9AB" stroke-width="1.05845" stroke-linecap="round"/>
<path d="M177.82 22.1207C178.3 21.9124 178.754 21.682 179.229 21.4648" stroke="#A7A9AB" stroke-width="0.882884" stroke-linecap="round"/>
<path d="M76.9124 22.1191C77.3635 21.9539 77.7782 21.7235 78.2049 21.519" stroke="#A7A9AB" stroke-width="0.790846" stroke-linecap="round"/>
<path d="M144.423 22.1991C144.888 21.9836 145.362 21.7771 145.818 21.5552" stroke="#A7A9AB" stroke-width="0.92365" stroke-linecap="round"/>
<path d="M238.983 22.2297C239.481 22.0529 239.916 21.794 240.403 21.6045" stroke="#A7A9AB" stroke-width="0.958073" stroke-linecap="round"/>
<path d="M162.857 22.3014C163.353 22.1196 163.816 21.8926 164.276 21.6763" stroke="#A7A9AB" stroke-width="0.791389" stroke-linecap="round"/>
<path d="M43.3711 22.3442C43.8728 22.1457 44.3574 21.9234 44.838 21.7007" stroke="#A7A9AB" stroke-width="0.744645" stroke-linecap="round"/>
<path d="M109.645 22.5112C110.096 22.3425 110.571 22.1828 110.987 21.9575" stroke="#A7A9AB" stroke-width="0.752979" stroke-linecap="round"/>
<path d="M209.997 22.6079C210.489 22.4265 210.984 22.2412 211.445 22.0181" stroke="#A7A9AB" stroke-width="0.736854" stroke-linecap="round"/>
<path d="M93.4338 22.5705C93.8577 22.3963 94.3156 22.2498 94.719 22.0483" stroke="#A7A9AB" stroke-width="0.724353" stroke-linecap="round"/>
<path d="M226.646 22.6221C227.134 22.4428 227.607 22.2367 228.091 22.0459" stroke="#A7A9AB" stroke-width="0.652425" stroke-linecap="round"/>
<path d="M9.11377 22.6825C9.60237 22.4913 10.1126 22.3192 10.5898 22.1084" stroke="#A7A9AB" stroke-width="0.831067" stroke-linecap="round"/>
<path d="M239.57 22.6523C240.04 22.4602 240.523 22.2886 240.986 22.0854" stroke="#A7A9AB" stroke-width="0.863498" stroke-linecap="round"/>
<path d="M32.5838 22.1431C32.1338 22.3185 31.6895 22.4944 31.2356 22.6622" stroke="#A7A9AB" stroke-width="0.725983" stroke-linecap="round"/>
<path d="M177.82 22.758C178.291 22.5438 178.79 22.3751 179.267 22.1694" stroke="#A7A9AB" stroke-width="0.748993" stroke-linecap="round"/>
<path d="M43.9556 22.7391C44.4124 22.5432 44.8845 22.3682 45.356 22.1919" stroke="#A7A9AB" stroke-width="0.86223" stroke-linecap="round"/>
<path d="M144.541 22.7729C145.028 22.5894 145.508 22.3914 145.993 22.2031" stroke="#A7A9AB" stroke-width="0.883609" stroke-linecap="round"/>
<path d="M76.8862 22.773C77.3288 22.5771 77.7992 22.4212 78.2452 22.23" stroke="#A7A9AB" stroke-width="0.727614" stroke-linecap="round"/>
<path d="M162.862 22.969C163.304 22.7484 163.775 22.578 164.238 22.3906" stroke="#A7A9AB" stroke-width="0.771097" stroke-linecap="round"/>
<path d="M129.641 22.9844C130.071 22.7557 130.543 22.5819 131.01 22.4048" stroke="#A7A9AB" stroke-width="0.767836" stroke-linecap="round"/>
<path d="M240 23.1653C240.434 22.9183 240.901 22.7033 241.369 22.501" stroke="#A7A9AB" stroke-width="0.564553" stroke-linecap="round"/>
<path d="M44.4272 23.2256C44.8676 22.9731 45.3567 22.7717 45.8152 22.5464" stroke="#A7A9AB" stroke-width="0.468528" stroke-linecap="round"/>
<path d="M109.657 23.2257C110.071 23.0293 110.485 22.8343 110.903 22.6431" stroke="#A7A9AB" stroke-width="0.831248" stroke-linecap="round"/>
<path d="M209.979 23.3567C210.473 23.1608 210.916 22.9006 211.413 22.7124" stroke="#A7A9AB" stroke-width="0.954993" stroke-linecap="round"/>
<path d="M9.27002 23.3587C9.73362 23.1517 10.1728 22.9175 10.6444 22.7212" stroke="#A7A9AB" stroke-width="0.896473" stroke-linecap="round"/>
<path d="M93.3799 23.3027C93.8475 23.126 94.2548 22.8713 94.7275 22.6963" stroke="#A7A9AB" stroke-width="0.828349" stroke-linecap="round"/>
<path d="M226.665 23.347C227.133 23.1336 227.584 22.9036 228.06 22.7026" stroke="#A7A9AB" stroke-width="0.94684" stroke-linecap="round"/>
<path d="M195.595 23.3314C196.066 23.1185 196.52 22.8813 197.012 22.6978" stroke="#A7A9AB" stroke-width="0.694821" stroke-linecap="round"/>
<path d="M31.2969 23.3843C31.7474 23.1919 32.1718 22.9713 32.6223 22.7817" stroke="#A7A9AB" stroke-width="0.959523" stroke-linecap="round"/>
<path d="M177.851 23.4533C178.357 23.2761 178.811 23.0219 179.289 22.8115" stroke="#A7A9AB" stroke-width="0.822914" stroke-linecap="round"/>
<path d="M144.58 23.4672C145.074 23.296 145.52 23.0477 145.988 22.8335" stroke="#A7A9AB" stroke-width="0.847373" stroke-linecap="round"/>
<path d="M76.9124 23.477C77.3623 23.3364 77.7447 23.0847 78.177 22.9233" stroke="#A7A9AB" stroke-width="0.805159" stroke-linecap="round"/>
<path d="M129.62 23.676C130.101 23.4912 130.578 23.3034 131.025 23.0747" stroke="#A7A9AB" stroke-width="0.778888" stroke-linecap="round"/>
<path d="M163.09 23.6379C163.499 23.4897 163.899 23.3356 164.272 23.1431" stroke="#A7A9AB" stroke-width="0.767836" stroke-linecap="round"/>
<path d="M109.657 23.8598C110.116 23.695 110.587 23.517 111.018 23.3164" stroke="#A7A9AB" stroke-width="0.729245" stroke-linecap="round"/>
<path d="M9.4541 23.911C9.90691 23.713 10.4052 23.5665 10.8443 23.354" stroke="#A7A9AB" stroke-width="0.879623" stroke-linecap="round"/>
<path d="M195.602 23.9707C196.059 23.7599 196.555 23.604 197.016 23.3975" stroke="#A7A9AB" stroke-width="0.838495" stroke-linecap="round"/>
<path d="M209.937 24.0409C210.404 23.7845 210.952 23.6278 211.443 23.4072" stroke="#A7A9AB" stroke-width="0.844656" stroke-linecap="round"/>
<path d="M226.652 24.0004C227.1 23.767 227.624 23.6112 228.102 23.4067" stroke="#A7A9AB" stroke-width="0.846105" stroke-linecap="round"/>
<path d="M93.4338 23.9289C93.8469 23.7547 94.2554 23.5899 94.6798 23.437" stroke="#A7A9AB" stroke-width="0.738304" stroke-linecap="round"/>
<path d="M31.2429 24.0593C31.6736 23.8485 32.1315 23.6824 32.5911 23.5078" stroke="#A7A9AB" stroke-width="0.868209" stroke-linecap="round"/>
<path d="M144.606 24.1215C145.049 23.9052 145.515 23.7233 145.988 23.5581" stroke="#A7A9AB" stroke-width="0.767111" stroke-linecap="round"/>
<path d="M177.856 24.1288C178.302 23.9252 178.761 23.7331 179.228 23.5581" stroke="#A7A9AB" stroke-width="0.867665" stroke-linecap="round"/>
<path d="M76.9248 24.1414C77.3407 23.9233 77.7975 23.7526 78.2486 23.5835" stroke="#A7A9AB" stroke-width="0.733774" stroke-linecap="round"/>
<path d="M129.668 24.3638C130.114 24.162 130.544 23.9375 131.015 23.7778" stroke="#A7A9AB" stroke-width="0.936332" stroke-linecap="round"/>
<path d="M163.034 24.3695C163.438 24.1885 163.829 23.9897 164.25 23.8291" stroke="#A7A9AB" stroke-width="0.928541" stroke-linecap="round"/>
<path d="M9.55249 24.5912C10.0297 24.4017 10.4729 24.1751 10.9382 23.9707" stroke="#A7A9AB" stroke-width="0.870564" stroke-linecap="round"/>
<path d="M109.652 24.5799C110.126 24.3968 110.573 24.1749 111.026 23.9658" stroke="#A7A9AB" stroke-width="0.791027" stroke-linecap="round"/>
<path d="M195.614 24.6751C196.09 24.4733 196.569 24.2723 197.022 24.041" stroke="#A7A9AB" stroke-width="0.924918" stroke-linecap="round"/>
<path d="M93.4021 24.6547C93.86 24.4908 94.2969 24.2834 94.7185 24.0713" stroke="#A7A9AB" stroke-width="0.924374" stroke-linecap="round"/>
<path d="M210.019 24.685C210.501 24.507 210.963 24.2932 211.413 24.0713" stroke="#A7A9AB" stroke-width="0.912235" stroke-linecap="round"/>
<path d="M226.678 24.6847C227.156 24.499 227.611 24.2831 228.066 24.0693" stroke="#A7A9AB" stroke-width="0.924555" stroke-linecap="round"/>
<path d="M31.2537 24.7436C31.7014 24.5494 32.1803 24.382 32.6024 24.1533" stroke="#A7A9AB" stroke-width="0.914953" stroke-linecap="round"/>
<path d="M177.86 24.8258C178.332 24.6001 178.868 24.4387 179.307 24.1768" stroke="#A7A9AB" stroke-width="0.894117" stroke-linecap="round"/>
<path d="M144.614 24.8219C145.063 24.6286 145.531 24.4591 145.964 24.2432" stroke="#A7A9AB" stroke-width="0.918577" stroke-linecap="round"/>
<path d="M76.9038 24.8177C77.3515 24.6635 77.7873 24.4685 78.2094 24.2734" stroke="#A7A9AB" stroke-width="0.750443" stroke-linecap="round"/>
<path d="M129.646 25.04C130.103 24.8488 130.568 24.6712 131.009 24.4634" stroke="#A7A9AB" stroke-width="0.881978" stroke-linecap="round"/>
<path d="M163.038 25.0375C163.454 24.8561 163.899 24.7032 164.298 24.5005" stroke="#A7A9AB" stroke-width="0.887414" stroke-linecap="round"/>
<path d="M9.69507 25.2066C10.1433 24.9967 10.6143 24.8161 11.0688 24.6143" stroke="#A7A9AB" stroke-width="0.937963" stroke-linecap="round"/>
<path d="M109.687 25.2344C110.109 25.0539 110.526 24.875 110.948 24.7051" stroke="#A7A9AB" stroke-width="0.767473" stroke-linecap="round"/>
<path d="M195.588 25.3495C196.06 25.151 196.534 24.9573 196.996 24.7456" stroke="#A7A9AB" stroke-width="0.904082" stroke-linecap="round"/>
<path d="M93.3594 25.3693C93.7872 25.1564 94.2565 24.9796 94.6985 24.7808" stroke="#A7A9AB" stroke-width="0.898466" stroke-linecap="round"/>
<path d="M209.966 25.3994C210.45 25.1967 210.93 24.9842 211.407 24.7866" stroke="#A7A9AB" stroke-width="0.768379" stroke-linecap="round"/>
<path d="M226.655 25.3839C227.121 25.1727 227.614 24.9887 228.072 24.7651" stroke="#A7A9AB" stroke-width="0.785591" stroke-linecap="round"/>
<path d="M31.2485 25.4415C31.7008 25.2444 32.1581 25.0497 32.6172 24.856" stroke="#A7A9AB" stroke-width="0.787041" stroke-linecap="round"/>
<path d="M177.85 25.5089C178.309 25.2823 178.807 25.1094 179.268 24.8862" stroke="#A7A9AB" stroke-width="0.897016" stroke-linecap="round"/>
<path d="M144.599 25.5053C145.065 25.3004 145.545 25.1135 146.007 24.9014" stroke="#A7A9AB" stroke-width="0.922019" stroke-linecap="round"/>
<path d="M76.9248 25.52C77.3566 25.3292 77.7997 25.1537 78.2281 24.9565" stroke="#A7A9AB" stroke-width="0.89611" stroke-linecap="round"/>
<path d="M129.641 25.7313C130.089 25.5201 130.559 25.3425 131.015 25.1406" stroke="#A7A9AB" stroke-width="0.909155" stroke-linecap="round"/>
<path d="M163.052 25.7119C163.461 25.5539 163.853 25.3682 164.256 25.2017" stroke="#A7A9AB" stroke-width="0.914953" stroke-linecap="round"/>
<path d="M9.84961 25.8417C10.324 25.6424 10.8001 25.4372 11.2546 25.2183" stroke="#A7A9AB" stroke-width="0.949739" stroke-linecap="round"/>
<path d="M109.662 25.9458C110.113 25.7584 110.559 25.5659 111.002 25.3691" stroke="#A7A9AB" stroke-width="0.903901" stroke-linecap="round"/>
<path d="M93.3889 26.0334C93.8275 25.8404 94.2724 25.6531 94.7121 25.458" stroke="#A7A9AB" stroke-width="0.93905" stroke-linecap="round"/>
<path d="M195.604 26.0485C196.068 25.8436 196.566 25.6541 197.022 25.4297" stroke="#A7A9AB" stroke-width="0.772728" stroke-linecap="round"/>
<path d="M210.005 26.0638C210.49 25.8726 210.961 25.6546 211.442 25.46" stroke="#A7A9AB" stroke-width="0.767836" stroke-linecap="round"/>
<path d="M226.641 26.0749C227.119 25.8688 227.595 25.6622 228.073 25.46" stroke="#A7A9AB" stroke-width="0.762219" stroke-linecap="round"/>
<path d="M31.2781 26.11C31.6905 25.9235 32.1274 25.7646 32.5325 25.5713" stroke="#A7A9AB" stroke-width="0.780881" stroke-linecap="round"/>
<path d="M144.574 26.2099C145.078 26.0221 145.563 25.7866 146.056 25.5801" stroke="#A7A9AB" stroke-width="0.799904" stroke-linecap="round"/>
<path d="M177.85 26.1991C178.334 26.0028 178.806 25.7851 179.289 25.5884" stroke="#A7A9AB" stroke-width="0.772728" stroke-linecap="round"/>
<path d="M76.938 26.1943C77.3715 26.0196 77.8016 25.8374 78.2157 25.6406" stroke="#A7A9AB" stroke-width="0.905169" stroke-linecap="round"/>
<path d="M129.621 26.4355C130.082 26.2255 130.565 26.0488 131.019 25.8286" stroke="#A7A9AB" stroke-width="0.788309" stroke-linecap="round"/>
<path d="M9.96729 26.4754C10.4207 26.2833 10.8684 26.0844 11.3234 25.8975" stroke="#A7A9AB" stroke-width="0.930716" stroke-linecap="round"/>
<path d="M163.078 26.4074C163.462 26.2238 163.887 26.088 164.259 25.8887" stroke="#A7A9AB" stroke-width="0.778525" stroke-linecap="round"/>
<path d="M109.657 26.6372C110.067 26.4459 110.494 26.2743 110.909 26.0938" stroke="#A7A9AB" stroke-width="0.890675" stroke-linecap="round"/>
<path d="M195.608 26.7195C196.091 26.5346 196.541 26.314 197.021 26.1245" stroke="#A7A9AB" stroke-width="0.770191" stroke-linecap="round"/>
<path d="M93.4197 26.7213C93.8395 26.5186 94.2867 26.341 94.7241 26.1626" stroke="#A7A9AB" stroke-width="0.78541" stroke-linecap="round"/>
<path d="M210.05 26.7373C210.5 26.5435 210.947 26.3357 211.413 26.1543" stroke="#A7A9AB" stroke-width="0.76077" stroke-linecap="round"/>
<path d="M226.66 26.7493C227.104 26.5495 227.556 26.3617 228.004 26.168" stroke="#A7A9AB" stroke-width="0.775626" stroke-linecap="round"/>
<path d="M31.2485 26.8123C31.6866 26.5986 32.1667 26.4235 32.6172 26.2148" stroke="#A7A9AB" stroke-width="0.771097" stroke-linecap="round"/>
<path d="M144.594 26.8899C145.08 26.7029 145.54 26.4695 146.027 26.2749" stroke="#A7A9AB" stroke-width="0.819653" stroke-linecap="round"/>
<path d="M177.86 26.8791C178.342 26.6841 178.807 26.4622 179.292 26.2642" stroke="#A7A9AB" stroke-width="0.795737" stroke-linecap="round"/>
<path d="M76.9294 26.8822C77.3732 26.6927 77.8152 26.5011 78.2549 26.3052" stroke="#A7A9AB" stroke-width="0.904988" stroke-linecap="round"/>
<path d="M10.0889 27.1163C10.5275 26.9199 10.9666 26.724 11.4155 26.5435" stroke="#A7A9AB" stroke-width="0.944666" stroke-linecap="round"/>
<path d="M129.632 27.1065C130.112 26.9332 130.568 26.7126 131.03 26.5073" stroke="#A7A9AB" stroke-width="0.78994" stroke-linecap="round"/>
<path d="M163.106 27.075C163.494 26.9034 163.898 26.7466 164.29 26.5771" stroke="#A7A9AB" stroke-width="0.791751" stroke-linecap="round"/>
<path d="M109.671 27.3215C110.108 27.1405 110.54 26.9621 110.967 26.7734" stroke="#A7A9AB" stroke-width="0.763125" stroke-linecap="round"/>
<path d="M195.599 27.404C196.07 27.2022 196.554 27.025 197.016 26.8091" stroke="#A7A9AB" stroke-width="0.761495" stroke-linecap="round"/>
<path d="M209.994 27.4171C210.487 27.2416 210.966 27.0257 211.443 26.8179" stroke="#A7A9AB" stroke-width="0.779069" stroke-linecap="round"/>
<path d="M226.66 27.4135C227.122 27.2262 227.587 27.0452 228.034 26.8369" stroke="#A7A9AB" stroke-width="0.743377" stroke-linecap="round"/>
<path d="M93.4226 27.3832C93.8612 27.2145 94.2873 27.0348 94.7129 26.8394" stroke="#A7A9AB" stroke-width="0.777076" stroke-linecap="round"/>
<path d="M31.239 27.4687C31.6844 27.286 32.1424 27.1102 32.5866 26.9155" stroke="#A7A9AB" stroke-width="0.761676" stroke-linecap="round"/>
<path d="M177.85 27.5578C178.326 27.3448 178.833 27.151 179.307 26.939" stroke="#A7A9AB" stroke-width="0.766205" stroke-linecap="round"/>
<path d="M144.58 27.5731C145.049 27.3568 145.547 27.1702 146.027 26.9692" stroke="#A7A9AB" stroke-width="0.779794" stroke-linecap="round"/>
<path d="M76.9248 27.5849C77.3475 27.3711 77.8083 27.2165 78.2395 27.0181" stroke="#A7A9AB" stroke-width="0.752798" stroke-linecap="round"/>
<path d="M10.1235 27.7791C10.5854 27.5849 11.0303 27.366 11.4996 27.1812" stroke="#A7A9AB" stroke-width="0.96061" stroke-linecap="round"/>
<path d="M129.641 27.7963C130.072 27.5987 130.5 27.413 130.941 27.2256" stroke="#A7A9AB" stroke-width="0.794288" stroke-linecap="round"/>
<path d="M163.09 27.7643C163.494 27.5935 163.883 27.4061 164.295 27.2451" stroke="#A7A9AB" stroke-width="0.803347" stroke-linecap="round"/>
<path d="M109.697 28.0073C110.129 27.8131 110.559 27.6189 110.993 27.4307" stroke="#A7A9AB" stroke-width="0.795013" stroke-linecap="round"/>
<path d="M195.614 28.0864C196.102 27.9024 196.572 27.689 197.031 27.4663" stroke="#A7A9AB" stroke-width="0.792476" stroke-linecap="round"/>
<path d="M210 28.1118C210.501 27.9291 210.979 27.7166 211.443 27.4819" stroke="#A7A9AB" stroke-width="0.800448" stroke-linecap="round"/>
<path d="M93.4282 28.0804C93.8668 27.8998 94.2872 27.7065 94.7185 27.5127" stroke="#A7A9AB" stroke-width="0.795737" stroke-linecap="round"/>
<path d="M226.665 28.1166C227.139 27.9399 227.593 27.7308 228.038 27.5161" stroke="#A7A9AB" stroke-width="0.899734" stroke-linecap="round"/>
<path d="M32.6043 27.5933C32.1668 27.8198 31.689 27.9919 31.2283 28.1865" stroke="#A7A9AB" stroke-width="0.886689" stroke-linecap="round"/>
<path d="M145.988 27.6641C145.548 27.8659 145.09 28.0491 144.632 28.2275" stroke="#A7A9AB" stroke-width="0.78378" stroke-linecap="round"/>
<path d="M177.86 28.237C178.337 28.0538 178.817 27.8494 179.279 27.6382" stroke="#A7A9AB" stroke-width="0.765299" stroke-linecap="round"/>
<path d="M76.9248 28.2434C77.3526 28.0914 77.777 27.9112 78.1883 27.7285" stroke="#A7A9AB" stroke-width="0.739028" stroke-linecap="round"/>
<path d="M10.1768 28.3989C10.6182 28.2238 11.0528 28.0454 11.4943 27.8721" stroke="#A7A9AB" stroke-width="0.882522" stroke-linecap="round"/>
<path d="M129.641 28.4484C130.098 28.2559 130.566 28.0898 131.02 27.8896" stroke="#A7A9AB" stroke-width="0.752436" stroke-linecap="round"/>
<path d="M163.044 28.4529C163.438 28.263 163.894 28.1237 164.29 27.9351" stroke="#A7A9AB" stroke-width="0.745007" stroke-linecap="round"/>
<path d="M109.642 28.69C110.082 28.4898 110.532 28.2939 110.993 28.1206" stroke="#A7A9AB" stroke-width="0.775989" stroke-linecap="round"/>
<path d="M195.614 28.7808C196.073 28.5658 196.549 28.3635 197.034 28.1816" stroke="#A7A9AB" stroke-width="0.883971" stroke-linecap="round"/>
<path d="M93.4414 28.7304C93.8658 28.5494 94.2959 28.3688 94.7192 28.1831" stroke="#A7A9AB" stroke-width="0.799542" stroke-linecap="round"/>
<path d="M210 28.8067C210.468 28.6018 210.927 28.3859 211.413 28.207" stroke="#A7A9AB" stroke-width="0.898466" stroke-linecap="round"/>
<path d="M226.646 28.7957C227.123 28.6057 227.576 28.3724 228.067 28.1978" stroke="#A7A9AB" stroke-width="0.902633" stroke-linecap="round"/>
<path d="M31.2095 28.9012C31.6259 28.6483 32.1338 28.4877 32.5912 28.2773" stroke="#A7A9AB" stroke-width="0.912235" stroke-linecap="round"/>
<path d="M144.625 28.94C145.065 28.6875 145.571 28.5282 146.027 28.2974" stroke="#A7A9AB" stroke-width="0.798817" stroke-linecap="round"/>
<path d="M177.865 28.94C178.325 28.6934 178.818 28.5009 179.307 28.2974" stroke="#A7A9AB" stroke-width="0.793926" stroke-linecap="round"/>
<path d="M76.8977 28.958C77.3034 28.7672 77.7329 28.5871 78.1374 28.3882" stroke="#A7A9AB" stroke-width="0.89448" stroke-linecap="round"/>
<path d="M11.52 28.4995C11.074 28.6809 10.6649 28.9105 10.2036 29.0778" stroke="#A7A9AB" stroke-width="0.798817" stroke-linecap="round"/>
<path d="M129.693 29.1532C130.136 28.9522 130.604 28.7665 131.025 28.5396" stroke="#A7A9AB" stroke-width="0.921294" stroke-linecap="round"/>
<path d="M163.072 29.1647C163.48 28.9714 163.905 28.7998 164.306 28.5996" stroke="#A7A9AB" stroke-width="0.88379" stroke-linecap="round"/>
<path d="M111.017 28.7808C110.598 28.9843 110.155 29.1883 109.691 29.3502" stroke="#A7A9AB" stroke-width="0.775989" stroke-linecap="round"/>
<path d="M195.605 29.4612C196.089 29.2823 196.56 29.0872 197.016 28.8696" stroke="#A7A9AB" stroke-width="0.880167" stroke-linecap="round"/>
<path d="M93.4583 29.4307C93.8963 29.254 94.3434 29.0837 94.7485 28.8716" stroke="#A7A9AB" stroke-width="0.872014" stroke-linecap="round"/>
<path d="M210.011 29.4835C210.482 29.2919 210.955 29.1109 211.413 28.9014" stroke="#A7A9AB" stroke-width="0.86531" stroke-linecap="round"/>
<path d="M226.695 29.4612C227.158 29.2887 227.617 29.0949 228.053 28.8862" stroke="#A7A9AB" stroke-width="0.873463" stroke-linecap="round"/>
<path d="M31.293 29.5141C31.7174 29.3254 32.1742 29.1827 32.5832 28.9736" stroke="#A7A9AB" stroke-width="0.84538" stroke-linecap="round"/>
<path d="M144.619 29.5958C145.082 29.3952 145.585 29.2551 146.02 29.02" stroke="#A7A9AB" stroke-width="0.855345" stroke-linecap="round"/>
<path d="M177.897 29.5916C178.359 29.3936 178.841 29.2284 179.292 29.0142" stroke="#A7A9AB" stroke-width="0.839039" stroke-linecap="round"/>
<path d="M76.8174 29.6337C77.2395 29.4894 77.6412 29.3084 78.0491 29.1436" stroke="#A7A9AB" stroke-width="0.830342" stroke-linecap="round"/>
<path d="M11.4212 29.2632C11.0149 29.4199 10.611 29.5813 10.2087 29.7465" stroke="#A7A9AB" stroke-width="0.829437" stroke-linecap="round"/>
<path d="M129.676 29.8037C130.089 29.5951 130.562 29.4767 130.973 29.2676" stroke="#A7A9AB" stroke-width="0.85154" stroke-linecap="round"/>
<path d="M163.073 29.8037C163.462 29.6078 163.908 29.4898 164.298 29.3003" stroke="#A7A9AB" stroke-width="0.841032" stroke-linecap="round"/>
<path d="M109.697 30.0187C110.111 29.8254 110.529 29.638 110.97 29.4834" stroke="#A7A9AB" stroke-width="0.78686" stroke-linecap="round"/>
<path d="M195.614 30.1693C196.048 29.9155 196.535 29.7247 197.022 29.5356" stroke="#A7A9AB" stroke-width="0.944123" stroke-linecap="round"/>
<path d="M93.3594 30.1996C93.7605 29.9339 94.2389 29.7435 94.7138 29.5625" stroke="#A7A9AB" stroke-width="0.933071" stroke-linecap="round"/>
<path d="M209.983 30.223C210.436 29.9717 210.924 29.7643 211.413 29.5654" stroke="#A7A9AB" stroke-width="0.80534" stroke-linecap="round"/>
<path d="M226.665 30.1997C227.108 29.9561 227.576 29.7381 228.067 29.5566" stroke="#A7A9AB" stroke-width="0.81458" stroke-linecap="round"/>
<path d="M31.2788 30.2537C31.7163 30.034 32.1447 29.7942 32.6259 29.6328" stroke="#A7A9AB" stroke-width="0.801897" stroke-linecap="round"/>
<path d="M144.619 30.3204C145.076 30.1057 145.525 29.8915 145.982 29.6777" stroke="#A7A9AB" stroke-width="0.983801" stroke-linecap="round"/>
<path d="M177.879 30.3054C178.364 30.1154 178.781 29.8429 179.277 29.6636" stroke="#A7A9AB" stroke-width="0.970394" stroke-linecap="round"/>
<path d="M76.6316 30.4261C77.0367 30.257 77.452 30.0884 77.7855 29.8452" stroke="#A7A9AB" stroke-width="0.95753" stroke-linecap="round"/>
<path d="M10.1309 30.5014C10.5803 30.3349 11.0319 30.1484 11.4114 29.8979" stroke="#A7A9AB" stroke-width="0.856251" stroke-linecap="round"/>
<path d="M131.002 29.8979C130.616 30.1433 130.162 30.3234 129.719 30.5014" stroke="#A7A9AB" stroke-width="0.963328" stroke-linecap="round"/>
<path d="M163.116 30.5014C163.521 30.3246 163.983 30.1892 164.306 29.9277" stroke="#A7A9AB" stroke-width="0.926367" stroke-linecap="round"/>
<path d="M109.709 30.7026C110.136 30.5195 110.663 30.4096 111.017 30.1392" stroke="#A7A9AB" stroke-width="0.8423" stroke-linecap="round"/>
<path d="M93.4583 30.759C93.8792 30.5917 94.3281 30.4677 94.7235 30.2676" stroke="#A7A9AB" stroke-width="0.834691" stroke-linecap="round"/>
<path d="M195.653 30.7972C196.111 30.5996 196.641 30.471 197.062 30.2295" stroke="#A7A9AB" stroke-width="0.713482" stroke-linecap="round"/>
<path d="M209.997 30.8194C210.485 30.6614 210.957 30.4732 211.429 30.29" stroke="#A7A9AB" stroke-width="0.696089" stroke-linecap="round"/>
<path d="M226.665 30.8093C227.139 30.6487 227.615 30.4822 228.067 30.2808" stroke="#A7A9AB" stroke-width="0.694821" stroke-linecap="round"/>
<path d="M31.2485 30.8632C31.6928 30.6788 32.174 30.5562 32.5996 30.353" stroke="#A7A9AB" stroke-width="0.675253" stroke-linecap="round"/>
<path d="M144.619 30.9243C145.089 30.7305 145.591 30.5823 146.056 30.3809" stroke="#A7A9AB" stroke-width="0.822733" stroke-linecap="round"/>
<path d="M177.86 30.9481C178.331 30.7338 178.856 30.5937 179.326 30.3804" stroke="#A7A9AB" stroke-width="0.700256" stroke-linecap="round"/>
<path d="M129.648 31.1975C130.072 30.9582 130.548 30.7849 131.028 30.6196" stroke="#A7A9AB" stroke-width="0.784323" stroke-linecap="round"/>
<path d="M163.072 31.1839C163.441 30.9752 163.846 30.8176 164.268 30.6792" stroke="#A7A9AB" stroke-width="0.77309" stroke-linecap="round"/>
<path d="M9.97412 31.2712C10.3076 31.0251 10.74 30.8722 11.1473 30.7129" stroke="#A7A9AB" stroke-width="0.937238" stroke-linecap="round"/>
<path d="M76.4067 31.2031C76.6226 31.0166 76.9777 30.9429 77.2118 30.7632" stroke="#A7A9AB" stroke-width="0.965502" stroke-linecap="round"/>
<path d="M109.664 31.4391C110.085 31.2432 110.471 31.0094 110.909 30.8335" stroke="#A7A9AB" stroke-width="0.968219" stroke-linecap="round"/>
<path d="M93.3889 31.5518C93.8491 31.3359 94.2678 31.0723 94.7519 30.8892" stroke="#A7A9AB" stroke-width="0.864404" stroke-linecap="round"/>
<path d="M195.602 31.5381C196.113 31.3516 196.532 31.0556 197.044 30.8721" stroke="#A7A9AB" stroke-width="0.83306" stroke-linecap="round"/>
<path d="M209.996 31.5728C210.485 31.3756 210.919 31.092 211.414 30.8936" stroke="#A7A9AB" stroke-width="0.835053" stroke-linecap="round"/>
<path d="M226.665 31.5579C227.164 31.3731 227.572 31.0733 228.073 30.8936" stroke="#A7A9AB" stroke-width="0.841213" stroke-linecap="round"/>
<path d="M31.2417 31.6133C31.7286 31.4289 32.1638 31.1777 32.6172 30.9541" stroke="#A7A9AB" stroke-width="0.823277" stroke-linecap="round"/>
<path d="M144.688 31.6637C145.169 31.4831 145.609 31.2433 146.056 31.0146" stroke="#A7A9AB" stroke-width="0.877087" stroke-linecap="round"/>
<path d="M177.912 31.6688C178.406 31.4869 178.843 31.231 179.307 31.0146" stroke="#A7A9AB" stroke-width="0.850816" stroke-linecap="round"/>
<path d="M129.662 31.8628C130.131 31.7282 130.59 31.5345 131.01 31.3164" stroke="#A7A9AB" stroke-width="0.754066" stroke-linecap="round"/>
<path d="M163.06 31.8628C163.488 31.7227 163.946 31.566 164.319 31.3467" stroke="#A7A9AB" stroke-width="0.748087" stroke-linecap="round"/>
<path d="M109.657 32.0711C110.118 31.9084 110.585 31.7478 111.026 31.543" stroke="#A7A9AB" stroke-width="0.695002" stroke-linecap="round"/>
<path d="M9.76538 32.0211C10.0335 31.8303 10.4636 31.8039 10.717 31.5884" stroke="#A7A9AB" stroke-width="0.641735" stroke-linecap="round"/>
<path d="M93.3889 32.1621C93.8156 31.9679 94.2775 31.8188 94.7184 31.6489" stroke="#A7A9AB" stroke-width="0.731781" stroke-linecap="round"/>
<path d="M195.659 32.1411C196.095 31.9457 196.58 31.8073 197.021 31.6182" stroke="#A7A9AB" stroke-width="0.708409" stroke-linecap="round"/>
<path d="M209.984 32.1843C210.457 31.9914 210.947 31.8244 211.426 31.6392" stroke="#A7A9AB" stroke-width="0.715294" stroke-linecap="round"/>
<path d="M226.656 32.1782C227.123 31.973 227.63 31.8248 228.093 31.6187" stroke="#A7A9AB" stroke-width="0.694096" stroke-linecap="round"/>
<path d="M31.2485 32.2223C31.6905 32.0562 32.1326 31.8744 32.5837 31.7134" stroke="#A7A9AB" stroke-width="0.708771" stroke-linecap="round"/>
<path d="M177.873 32.3228C178.321 32.0839 178.822 31.9225 179.312 31.7437" stroke="#A7A9AB" stroke-width="0.76077" stroke-linecap="round"/>
<path d="M144.619 32.3427C145.027 32.1 145.52 31.962 145.974 31.7793" stroke="#A7A9AB" stroke-width="0.758958" stroke-linecap="round"/>
<path d="M129.641 32.5844C130.096 32.3702 130.528 32.1313 131.023 31.9707" stroke="#A7A9AB" stroke-width="0.806789" stroke-linecap="round"/>
<path d="M163.078 32.5666C163.469 32.3673 163.866 32.1676 164.296 32.0151" stroke="#A7A9AB" stroke-width="0.809507" stroke-linecap="round"/>
<path d="M109.687 32.7809C110.149 32.622 110.557 32.3942 110.987 32.1919" stroke="#A7A9AB" stroke-width="0.83143" stroke-linecap="round"/>
<path d="M195.64 32.8663C196.126 32.6844 196.595 32.4668 197.043 32.2305" stroke="#A7A9AB" stroke-width="0.811137" stroke-linecap="round"/>
<path d="M210.019 32.9062C210.494 32.6962 210.993 32.5109 211.429 32.2524" stroke="#A7A9AB" stroke-width="0.806608" stroke-linecap="round"/>
<path d="M93.4106 32.8589C93.872 32.7021 94.2867 32.4854 94.7191 32.2822" stroke="#A7A9AB" stroke-width="0.812043" stroke-linecap="round"/>
<path d="M226.665 32.9164C227.146 32.7209 227.607 32.5062 228.065 32.2822" stroke="#A7A9AB" stroke-width="0.924918" stroke-linecap="round"/>
<path d="M31.261 32.9565C31.7195 32.7661 32.2115 32.5987 32.6166 32.3428" stroke="#A7A9AB" stroke-width="0.890856" stroke-linecap="round"/>
<path d="M177.877 32.9991C178.375 32.8394 178.861 32.6158 179.315 32.3799" stroke="#A7A9AB" stroke-width="0.794831" stroke-linecap="round"/>
<path d="M144.619 33.007C145.114 32.8507 145.582 32.6339 146.039 32.4082" stroke="#A7A9AB" stroke-width="0.795013" stroke-linecap="round"/>
<path d="M129.68 33.2183C130.125 33.0339 130.573 32.8776 131.01 32.6753" stroke="#A7A9AB" stroke-width="0.749537" stroke-linecap="round"/>
<path d="M163.053 33.221C163.472 33.0523 163.928 32.8977 164.322 32.6997" stroke="#A7A9AB" stroke-width="0.725983" stroke-linecap="round"/>
<path d="M109.688 33.4533C110.101 33.2493 110.559 33.0947 110.987 32.9048" stroke="#A7A9AB" stroke-width="0.758777" stroke-linecap="round"/>
<path d="M195.629 33.559C196.091 33.3499 196.567 33.1548 197.042 32.9619" stroke="#A7A9AB" stroke-width="0.885783" stroke-linecap="round"/>
<path d="M210.005 33.6108C210.438 33.3804 210.928 33.1845 211.4 32.9971" stroke="#A7A9AB" stroke-width="0.890675" stroke-linecap="round"/>
<path d="M226.67 33.5831C227.133 33.3727 227.606 33.1764 228.073 32.9771" stroke="#A7A9AB" stroke-width="0.88832" stroke-linecap="round"/>
<path d="M94.7242 32.9858C94.2696 33.1242 93.864 33.35 93.4282 33.5203" stroke="#A7A9AB" stroke-width="0.778888" stroke-linecap="round"/>
<path d="M31.2822 33.6291C31.7095 33.4119 32.1918 33.2556 32.6174 33.0371" stroke="#A7A9AB" stroke-width="0.90227" stroke-linecap="round"/>
<path d="M9.3042 33.5389C9.66667 33.3766 10.0388 33.2233 10.4047 33.0679" stroke="#A7A9AB" stroke-width="0.884334" stroke-linecap="round"/>
<path d="M177.865 33.7059C178.34 33.5083 178.794 33.2702 179.285 33.0952" stroke="#A7A9AB" stroke-width="0.781062" stroke-linecap="round"/>
<path d="M144.619 33.7135C145.085 33.504 145.544 33.2847 146.032 33.1016" stroke="#A7A9AB" stroke-width="0.818385" stroke-linecap="round"/>
<path d="M129.68 33.9128C130.148 33.7365 130.581 33.5219 131.034 33.3281" stroke="#A7A9AB" stroke-width="0.787584" stroke-linecap="round"/>
<path d="M163.09 33.9228C163.506 33.7443 163.952 33.5838 164.329 33.3691" stroke="#A7A9AB" stroke-width="0.902995" stroke-linecap="round"/>
<path d="M109.697 34.124C110.141 33.9537 110.566 33.7808 110.987 33.5811" stroke="#A7A9AB" stroke-width="0.757509" stroke-linecap="round"/>
<path d="M195.633 34.2296C196.112 34.0222 196.633 33.8561 197.076 33.6108" stroke="#A7A9AB" stroke-width="0.885421" stroke-linecap="round"/>
<path d="M93.4082 34.2297C93.8542 34.0406 94.3076 33.863 94.7445 33.6611" stroke="#A7A9AB" stroke-width="0.874731" stroke-linecap="round"/>
<path d="M226.66 34.2623C227.13 34.0549 227.619 33.873 228.081 33.6562" stroke="#A7A9AB" stroke-width="0.873644" stroke-linecap="round"/>
<path d="M209.99 34.2753C210.456 34.064 210.956 33.8937 211.414 33.6714" stroke="#A7A9AB" stroke-width="0.861868" stroke-linecap="round"/>
<path d="M31.2678 34.2898C31.7212 34.1232 32.1575 33.9333 32.6041 33.7515" stroke="#A7A9AB" stroke-width="0.884153" stroke-linecap="round"/>
<path d="M144.58 34.4257C145.027 34.1833 145.543 34.0164 146.022 33.8184" stroke="#A7A9AB" stroke-width="0.874912" stroke-linecap="round"/>
<path d="M177.879 34.3805C178.35 34.1774 178.833 33.9892 179.307 33.792" stroke="#A7A9AB" stroke-width="0.868752" stroke-linecap="round"/>
<path d="M129.675 34.6256C130.096 34.4033 130.561 34.2248 131.01 34.0332" stroke="#A7A9AB" stroke-width="0.902089" stroke-linecap="round"/>
<path d="M163.089 34.6031C163.491 34.4089 163.921 34.2492 164.329 34.0635" stroke="#A7A9AB" stroke-width="0.915315" stroke-linecap="round"/>
<path d="M109.673 34.83C110.1 34.6512 110.517 34.4536 110.942 34.2666" stroke="#A7A9AB" stroke-width="0.796824" stroke-linecap="round"/>
<path d="M195.659 34.9176C196.13 34.7213 196.597 34.516 197.055 34.3022" stroke="#A7A9AB" stroke-width="0.925824" stroke-linecap="round"/>
<path d="M210.526 34.7379C210.829 34.6106 211.121 34.4756 211.413 34.3354" stroke="#A7A9AB" stroke-width="0.917308" stroke-linecap="round"/>
<path d="M93.4282 34.909C93.8748 34.7395 94.2895 34.5266 94.7185 34.335" stroke="#A7A9AB" stroke-width="0.910967" stroke-linecap="round"/>
<path d="M226.658 34.9644C227.147 34.7689 227.617 34.5534 228.089 34.335" stroke="#A7A9AB" stroke-width="0.805883" stroke-linecap="round"/>
<path d="M31.2822 34.995C31.7544 34.8319 32.1952 34.61 32.6418 34.4146" stroke="#A7A9AB" stroke-width="0.799723" stroke-linecap="round"/>
<path d="M145.081 34.8684C145.419 34.7836 145.706 34.6065 146.022 34.4834" stroke="#A7A9AB" stroke-width="0.947565" stroke-linecap="round"/>
<path d="M177.947 35.0374C178.411 34.8598 178.862 34.661 179.307 34.4565" stroke="#A7A9AB" stroke-width="0.88995" stroke-linecap="round"/>
<path d="M129.68 35.2718C130.13 35.0712 130.608 34.9154 131.054 34.7109" stroke="#A7A9AB" stroke-width="0.863861" stroke-linecap="round"/>
<path d="M163.061 35.2716C163.471 35.1008 163.904 34.9551 164.299 34.7656" stroke="#A7A9AB" stroke-width="0.850816" stroke-linecap="round"/>
<path d="M109.677 35.4977C110.121 35.3014 110.574 35.1208 111.026 34.939" stroke="#A7A9AB" stroke-width="0.872376" stroke-linecap="round"/>
<path d="M195.605 35.6198C196.08 35.4094 196.564 35.1879 197.067 35.0044" stroke="#A7A9AB" stroke-width="0.780156" stroke-linecap="round"/>
<path d="M93.4082 35.5885C93.8264 35.3777 94.2792 35.2138 94.7183 35.0298" stroke="#A7A9AB" stroke-width="0.910605" stroke-linecap="round"/>
<path d="M226.66 35.6253C227.133 35.4264 227.593 35.2122 228.079 35.0342" stroke="#A7A9AB" stroke-width="0.759502" stroke-linecap="round"/>
<path d="M31.3003 35.6737C31.7338 35.4672 32.186 35.3015 32.6167 35.0967" stroke="#A7A9AB" stroke-width="0.805883" stroke-linecap="round"/>
<path d="M177.86 35.785C178.344 35.5742 178.8 35.3251 179.307 35.1509" stroke="#A7A9AB" stroke-width="0.79773" stroke-linecap="round"/>
<path d="M129.674 35.9908C130.162 35.8089 130.621 35.5751 131.088 35.3613" stroke="#A7A9AB" stroke-width="0.83759" stroke-linecap="round"/>
<path d="M163.078 35.9896C163.496 35.835 163.879 35.6255 164.281 35.4458" stroke="#A7A9AB" stroke-width="0.817116" stroke-linecap="round"/>
<path d="M109.697 36.1768C110.138 36.0184 110.565 35.8369 110.975 35.6372" stroke="#A7A9AB" stroke-width="0.899915" stroke-linecap="round"/>
<path d="M195.691 36.2939C196.159 36.0674 196.7 35.92 197.139 35.6641" stroke="#A7A9AB" stroke-width="0.933252" stroke-linecap="round"/>
<path d="M93.4282 36.2675C93.8759 36.0805 94.3514 35.9255 94.7577 35.6938" stroke="#A7A9AB" stroke-width="0.790302" stroke-linecap="round"/>
<path d="M226.717 36.2876C227.151 36.0824 227.637 35.9325 228.067 35.7148" stroke="#A7A9AB" stroke-width="0.73776" stroke-linecap="round"/>
<path d="M31.2776 36.3431C31.7241 36.1702 32.1838 36.0101 32.6116 35.8057" stroke="#A7A9AB" stroke-width="0.758777" stroke-linecap="round"/>
<path d="M177.929 36.4043C178.401 36.2203 178.867 36.024 179.338 35.8413" stroke="#A7A9AB" stroke-width="0.746819" stroke-linecap="round"/>
<path d="M129.768 36.614C130.216 36.4015 130.702 36.2214 131.166 36.0259" stroke="#A7A9AB" stroke-width="0.952276" stroke-linecap="round"/>
<path d="M163.083 36.6389C163.48 36.483 163.874 36.2913 164.289 36.147" stroke="#A7A9AB" stroke-width="0.755153" stroke-linecap="round"/>
<path d="M195.765 36.9231C196.268 36.7242 196.738 36.4768 197.251 36.2886" stroke="#A7A9AB" stroke-width="0.854077" stroke-linecap="round"/>
<path d="M109.697 36.8718C110.129 36.67 110.573 36.4779 111.017 36.2905" stroke="#A7A9AB" stroke-width="0.89611" stroke-linecap="round"/>
<path d="M226.711 37.0027C227.203 36.7898 227.68 36.5522 228.185 36.355" stroke="#A7A9AB" stroke-width="0.963509" stroke-linecap="round"/>
<path d="M93.4226 36.9534C93.8811 36.7732 94.3095 36.5522 94.7668 36.3721" stroke="#A7A9AB" stroke-width="0.818928" stroke-linecap="round"/>
<path d="M31.3333 37.058C31.7832 36.8485 32.24 36.6479 32.7019 36.4541" stroke="#A7A9AB" stroke-width="1.00138" stroke-linecap="round"/>
<path d="M179.345 36.479C178.861 36.6911 178.386 36.9181 177.898 37.1255" stroke="#A7A9AB" stroke-width="0.802803" stroke-linecap="round"/>
<path d="M129.915 37.264C130.407 37.0524 130.916 36.8322 131.403 36.6035" stroke="#A7A9AB" stroke-width="0.823639" stroke-linecap="round"/>
<path d="M163.116 37.3363C163.511 37.157 163.912 37.0007 164.302 36.8154" stroke="#A7A9AB" stroke-width="0.790483" stroke-linecap="round"/>
<path d="M196.044 37.515C196.559 37.3038 197.062 37.0972 197.57 36.8711" stroke="#A7A9AB" stroke-width="0.827806" stroke-linecap="round"/>
<path d="M226.891 37.582C227.416 37.3993 227.909 37.1651 228.42 36.959" stroke="#A7A9AB" stroke-width="0.894299" stroke-linecap="round"/>
<path d="M109.677 37.5655C110.141 37.3764 110.612 37.1971 111.059 36.9829" stroke="#A7A9AB" stroke-width="0.752254" stroke-linecap="round"/>
<path d="M31.5237 37.6303C32.0066 37.4659 32.4651 37.2466 32.9366 37.0635" stroke="#A7A9AB" stroke-width="0.955175" stroke-linecap="round"/>
<path d="M93.4282 37.6264C93.8805 37.4569 94.314 37.2644 94.7577 37.083" stroke="#A7A9AB" stroke-width="0.754972" stroke-linecap="round"/>
<path d="M130.311 37.7511C130.809 37.5539 131.308 37.3558 131.798 37.1519" stroke="#A7A9AB" stroke-width="0.730694" stroke-linecap="round"/>
<path d="M177.912 37.7665C178.393 37.5728 178.885 37.3935 179.354 37.1797" stroke="#A7A9AB" stroke-width="0.755153" stroke-linecap="round"/>
<path d="M196.524 37.9276C197.007 37.7444 197.478 37.5302 197.972 37.3633" stroke="#A7A9AB" stroke-width="0.918577" stroke-linecap="round"/>
<path d="M227.357 38.0399C227.81 37.8418 228.269 37.6536 228.738 37.4756" stroke="#A7A9AB" stroke-width="0.875094" stroke-linecap="round"/>
<path d="M31.9592 38.1149C32.3933 37.8981 32.8671 37.7282 33.3205 37.5361" stroke="#A7A9AB" stroke-width="0.900459" stroke-linecap="round"/>
<path d="M163.078 37.9887C163.487 37.8154 163.91 37.6531 164.316 37.4854" stroke="#A7A9AB" stroke-width="0.729969" stroke-linecap="round"/>
<path d="M109.736 38.2116C110.196 37.991 110.665 37.7815 111.149 37.5996" stroke="#A7A9AB" stroke-width="0.786497" stroke-linecap="round"/>
<path d="M130.938 38.1499C131.406 37.9442 131.881 37.7487 132.359 37.5566" stroke="#A7A9AB" stroke-width="0.935245" stroke-linecap="round"/>
<path d="M94.7185 37.7466C94.277 37.9203 93.8668 38.1337 93.4282 38.3202" stroke="#A7A9AB" stroke-width="0.807333" stroke-linecap="round"/>
<path d="M197.257 38.3507C197.708 38.1412 198.166 37.9423 198.62 37.7383" stroke="#A7A9AB" stroke-width="0.901002" stroke-linecap="round"/>
<path d="M177.977 38.4711C178.465 38.2663 178.93 38.0346 179.417 37.8276" stroke="#A7A9AB" stroke-width="0.860056" stroke-linecap="round"/>
<path d="M227.956 38.5016C228.45 38.3015 228.913 38.0545 229.41 37.8564" stroke="#A7A9AB" stroke-width="0.94521" stroke-linecap="round"/>
<path d="M33.986 37.9277C33.4957 38.1211 33.0435 38.3987 32.5293 38.5469" stroke="#A7A9AB" stroke-width="0.955718" stroke-linecap="round"/>
<path d="M131.625 38.5469C132.1 38.3714 132.537 38.1402 132.997 37.9473" stroke="#A7A9AB" stroke-width="0.977641" stroke-linecap="round"/>
<path d="M197.922 38.713C198.425 38.5674 198.87 38.3123 199.349 38.124" stroke="#A7A9AB" stroke-width="0.922019" stroke-linecap="round"/>
<path d="M163.072 38.7044C163.495 38.5485 163.906 38.3722 164.303 38.1797" stroke="#A7A9AB" stroke-width="0.866216" stroke-linecap="round"/>
<path d="M109.925 38.7981C110.395 38.6128 110.854 38.4259 111.309 38.2134" stroke="#A7A9AB" stroke-width="0.720005" stroke-linecap="round"/>
<path d="M228.691 38.8447C229.154 38.6582 229.621 38.4738 230.067 38.2651" stroke="#A7A9AB" stroke-width="0.883971" stroke-linecap="round"/>
<path d="M33.2747 38.883C33.7383 38.751 34.1718 38.5355 34.6138 38.3545" stroke="#A7A9AB" stroke-width="0.895386" stroke-linecap="round"/>
<path d="M132.457 38.864C132.918 38.7187 133.338 38.5058 133.781 38.3389" stroke="#A7A9AB" stroke-width="0.908974" stroke-linecap="round"/>
<path d="M178.134 39.0448C178.632 38.8315 179.14 38.6326 179.646 38.4312" stroke="#A7A9AB" stroke-width="0.860418" stroke-linecap="round"/>
<path d="M93.4414 38.9946C93.8823 38.8068 94.3408 38.6373 94.7737 38.4414" stroke="#A7A9AB" stroke-width="0.847736" stroke-linecap="round"/>
<path d="M198.904 39.06C199.337 38.8906 199.761 38.7006 200.199 38.5469" stroke="#A7A9AB" stroke-width="0.824001" stroke-linecap="round"/>
<path d="M133.2 39.2261C133.653 39.0681 134.08 38.8522 134.531 38.6865" stroke="#A7A9AB" stroke-width="0.966045" stroke-linecap="round"/>
<path d="M229.591 39.237C230.029 39.0556 230.454 38.8473 230.908 38.6919" stroke="#A7A9AB" stroke-width="0.824545" stroke-linecap="round"/>
<path d="M34.0898 39.2763C34.4938 39.0936 34.9057 38.9186 35.3153 38.7427" stroke="#A7A9AB" stroke-width="0.921113" stroke-linecap="round"/>
<path d="M110.146 39.4071C110.648 39.2023 111.113 38.9493 111.632 38.7734" stroke="#A7A9AB" stroke-width="0.66402" stroke-linecap="round"/>
<path d="M163.09 39.3871C163.501 39.2006 163.922 39.0222 164.329 38.8335" stroke="#A7A9AB" stroke-width="0.887051" stroke-linecap="round"/>
<path d="M199.681 39.4321C200.102 39.2524 200.509 39.0514 200.937 38.8823" stroke="#A7A9AB" stroke-width="0.929628" stroke-linecap="round"/>
<path d="M13.6499 39.2199C13.9073 39.1475 14.1351 38.9997 14.393 38.9243" stroke="#A7A9AB" stroke-width="0.757871" stroke-linecap="round"/>
<path d="M133.982 39.5884C134.442 39.4245 134.881 39.2205 135.313 39.019" stroke="#A7A9AB" stroke-width="0.947203" stroke-linecap="round"/>
<path d="M14.7253 39.4524C15.0816 39.3472 15.3781 39.0989 15.7503 39.0576" stroke="#A7A9AB" stroke-width="0.859693" stroke-linecap="round"/>
<path d="M34.7676 39.6488C35.2306 39.484 35.6533 39.2677 36.097 39.0752" stroke="#A7A9AB" stroke-width="0.896473" stroke-linecap="round"/>
<path d="M178.608 39.6578C179.05 39.4649 179.498 39.281 179.933 39.0757" stroke="#A7A9AB" stroke-width="0.841938" stroke-linecap="round"/>
<path d="M230.332 39.6037C230.76 39.4419 231.16 39.2383 231.58 39.0654" stroke="#A7A9AB" stroke-width="0.857338" stroke-linecap="round"/>
<path d="M93.4282 39.6791C93.8867 39.5147 94.3236 39.3073 94.7577 39.105" stroke="#A7A9AB" stroke-width="0.887051" stroke-linecap="round"/>
<path d="M73.2097 39.4072C73.4654 39.3109 73.7114 39.1955 73.9625 39.0903" stroke="#A7A9AB" stroke-width="0.896654" stroke-linecap="round"/>
<path d="M74.1677 39.6579C74.5603 39.5391 74.8898 39.2989 75.3017 39.2261" stroke="#A7A9AB" stroke-width="0.828349" stroke-linecap="round"/>
<path d="M200.424 39.7797C200.852 39.6192 201.257 39.4258 201.675 39.2563" stroke="#A7A9AB" stroke-width="0.896473" stroke-linecap="round"/>
<path d="M15.6838 39.7331C16.0565 39.5819 16.4298 39.4299 16.798 39.2715" stroke="#A7A9AB" stroke-width="0.797368" stroke-linecap="round"/>
<path d="M110.557 39.9205C111.013 39.7182 111.486 39.5423 111.935 39.3311" stroke="#A7A9AB" stroke-width="0.889226" stroke-linecap="round"/>
<path d="M136.087 39.3965C135.646 39.5758 135.201 39.7913 134.754 39.9356" stroke="#A7A9AB" stroke-width="0.891219" stroke-linecap="round"/>
<path d="M231.084 39.9359C231.481 39.7813 231.875 39.616 232.264 39.4482" stroke="#A7A9AB" stroke-width="0.910242" stroke-linecap="round"/>
<path d="M35.5012 39.9963C35.9415 39.8392 36.3693 39.6454 36.8017 39.4683" stroke="#A7A9AB" stroke-width="0.859693" stroke-linecap="round"/>
<path d="M75.0085 39.9507C75.4261 39.8115 75.8028 39.6087 76.221 39.4678" stroke="#A7A9AB" stroke-width="0.828893" stroke-linecap="round"/>
<path d="M163.07 40.0577C163.482 39.8716 163.94 39.7293 164.329 39.5283" stroke="#A7A9AB" stroke-width="0.851178" stroke-linecap="round"/>
<path d="M16.4854 40.0564C16.9075 39.9112 17.2984 39.7135 17.7171 39.5581" stroke="#A7A9AB" stroke-width="0.893936" stroke-linecap="round"/>
<path d="M178.992 40.1578C179.416 39.944 179.885 39.7877 180.323 39.5884" stroke="#A7A9AB" stroke-width="0.879985" stroke-linecap="round"/>
<path d="M201.16 40.1734C201.602 40.003 202.015 39.7875 202.467 39.6338" stroke="#A7A9AB" stroke-width="0.872014" stroke-linecap="round"/>
<path d="M135.507 40.2824C135.99 40.1687 136.405 39.903 136.876 39.7441" stroke="#A7A9AB" stroke-width="0.969307" stroke-linecap="round"/>
<path d="M75.7051 40.3797C76.155 40.1723 76.6226 39.9853 77.0817 39.7852" stroke="#A7A9AB" stroke-width="0.92836" stroke-linecap="round"/>
<path d="M93.4226 40.365C93.8697 40.1734 94.3174 39.9941 94.7515 39.7905" stroke="#A7A9AB" stroke-width="0.874188" stroke-linecap="round"/>
<path d="M111.031 40.3779C111.506 40.1829 111.967 39.9738 112.443 39.7847" stroke="#A7A9AB" stroke-width="0.758596" stroke-linecap="round"/>
<path d="M233.098 39.7847C232.65 39.9567 232.241 40.1956 231.778 40.3277" stroke="#A7A9AB" stroke-width="0.908249" stroke-linecap="round"/>
<path d="M36.2051 40.3883C36.6744 40.2495 37.1135 39.994 37.5834 39.8296" stroke="#A7A9AB" stroke-width="0.902995" stroke-linecap="round"/>
<path d="M17.2109 40.4378C17.6922 40.2564 18.1342 40.014 18.6336 39.8633" stroke="#A7A9AB" stroke-width="0.920932" stroke-linecap="round"/>
<path d="M201.91 40.5245C202.357 40.3742 202.758 40.1268 203.208 39.9922" stroke="#A7A9AB" stroke-width="0.888501" stroke-linecap="round"/>
<path d="M180.792 40.0415C180.375 40.2238 179.951 40.4022 179.528 40.5747" stroke="#A7A9AB" stroke-width="0.93597" stroke-linecap="round"/>
<path d="M136.329 40.6602C136.766 40.4647 137.209 40.279 137.655 40.0972" stroke="#A7A9AB" stroke-width="0.913322" stroke-linecap="round"/>
<path d="M233.821 40.1621C233.377 40.3133 232.962 40.5552 232.521 40.6902" stroke="#A7A9AB" stroke-width="0.884877" stroke-linecap="round"/>
<path d="M36.9971 40.751C37.4408 40.5674 37.8731 40.3588 38.3237 40.188" stroke="#A7A9AB" stroke-width="0.932346" stroke-linecap="round"/>
<path d="M76.4072 40.7817C76.8725 40.5982 77.3242 40.384 77.785 40.1919" stroke="#A7A9AB" stroke-width="0.793563" stroke-linecap="round"/>
<path d="M111.73 40.766C112.184 40.5709 112.636 40.3686 113.097 40.1885" stroke="#A7A9AB" stroke-width="0.851722" stroke-linecap="round"/>
<path d="M163.123 40.7447C163.505 40.562 163.921 40.4142 164.298 40.2285" stroke="#A7A9AB" stroke-width="0.757327" stroke-linecap="round"/>
<path d="M17.9468 40.8144C18.3763 40.6241 18.8109 40.4392 19.2478 40.2612" stroke="#A7A9AB" stroke-width="0.88216" stroke-linecap="round"/>
<path d="M202.644 40.9015C203.07 40.7261 203.496 40.5378 203.905 40.3428" stroke="#A7A9AB" stroke-width="0.925099" stroke-linecap="round"/>
<path d="M137.179 40.9917C137.591 40.8099 137.992 40.6089 138.421 40.4487" stroke="#A7A9AB" stroke-width="0.842663" stroke-linecap="round"/>
<path d="M180.245 40.9771C180.647 40.7969 181.051 40.6117 181.459 40.4375" stroke="#A7A9AB" stroke-width="0.927092" stroke-linecap="round"/>
<path d="M93.4583 41.0615C93.9008 40.8733 94.3281 40.6607 94.778 40.4849" stroke="#A7A9AB" stroke-width="0.778344" stroke-linecap="round"/>
<path d="M233.274 41.0729C233.713 40.9094 234.136 40.6935 234.564 40.5244" stroke="#A7A9AB" stroke-width="0.955718" stroke-linecap="round"/>
<path d="M39.1089 40.5547C38.6345 40.691 38.1931 41.0087 37.6914 41.1134" stroke="#A7A9AB" stroke-width="1.0175" stroke-linecap="round"/>
<path d="M112.487 41.1484C112.943 40.9665 113.388 40.7685 113.829 40.5649" stroke="#A7A9AB" stroke-width="0.765118" stroke-linecap="round"/>
<path d="M76.876 41.2642C77.3481 41.0713 77.8214 40.8741 78.2838 40.668" stroke="#A7A9AB" stroke-width="0.819653" stroke-linecap="round"/>
<path d="M18.4995 41.2788C18.9625 41.0889 19.4154 40.8921 19.8761 40.6992" stroke="#A7A9AB" stroke-width="0.880529" stroke-linecap="round"/>
<path d="M203.23 41.235C203.717 41.092 204.133 40.8262 204.616 40.6865" stroke="#A7A9AB" stroke-width="0.915859" stroke-linecap="round"/>
<path d="M137.814 41.3394C138.286 41.1963 138.731 40.9919 139.164 40.7935" stroke="#A7A9AB" stroke-width="0.901365" stroke-linecap="round"/>
<path d="M180.978 41.3244C181.413 41.1911 181.825 40.9837 182.239 40.8262" stroke="#A7A9AB" stroke-width="0.88995" stroke-linecap="round"/>
<path d="M164.334 40.9209C163.932 41.0964 163.521 41.2641 163.104 41.4098" stroke="#A7A9AB" stroke-width="0.713482" stroke-linecap="round"/>
<path d="M234.066 41.4073C234.489 41.2531 234.901 41.0798 235.308 40.9048" stroke="#A7A9AB" stroke-width="0.810594" stroke-linecap="round"/>
<path d="M38.4731 41.4751C38.9328 41.3112 39.3833 41.0978 39.8418 40.939" stroke="#A7A9AB" stroke-width="0.814218" stroke-linecap="round"/>
<path d="M113.246 41.4751C113.673 41.3031 114.101 41.1353 114.527 40.9556" stroke="#A7A9AB" stroke-width="0.804072" stroke-linecap="round"/>
<path d="M203.937 41.5919C204.405 41.4287 204.853 41.2252 205.313 41.0425" stroke="#A7A9AB" stroke-width="0.862773" stroke-linecap="round"/>
<path d="M18.9661 41.7886C19.4473 41.5663 19.9546 41.3763 20.4353 41.1587" stroke="#A7A9AB" stroke-width="0.867665" stroke-linecap="round"/>
<path d="M77.3147 41.7881C77.7738 41.5556 78.2811 41.3822 78.7504 41.1685" stroke="#A7A9AB" stroke-width="0.794107" stroke-linecap="round"/>
<path d="M93.4346 41.741C93.8448 41.5289 94.2885 41.3679 94.7248 41.1929" stroke="#A7A9AB" stroke-width="0.737035" stroke-linecap="round"/>
<path d="M138.655 41.6863C139.105 41.5078 139.559 41.2877 140.021 41.1548" stroke="#A7A9AB" stroke-width="0.874731" stroke-linecap="round"/>
<path d="M181.809 41.6716C182.209 41.4983 182.614 41.3373 183.022 41.1733" stroke="#A7A9AB" stroke-width="0.868752" stroke-linecap="round"/>
<path d="M234.76 41.7923C235.182 41.6096 235.592 41.4154 236.031 41.2578" stroke="#A7A9AB" stroke-width="0.899734" stroke-linecap="round"/>
<path d="M39.2266 41.8526C39.6453 41.6533 40.0805 41.4728 40.5168 41.2969" stroke="#A7A9AB" stroke-width="0.860056" stroke-linecap="round"/>
<path d="M113.926 41.9218C114.381 41.7199 114.816 41.484 115.299 41.3247" stroke="#A7A9AB" stroke-width="0.820921" stroke-linecap="round"/>
<path d="M204.766 41.9736C205.204 41.7717 205.641 41.5669 206.092 41.3804" stroke="#A7A9AB" stroke-width="0.915496" stroke-linecap="round"/>
<path d="M139.457 42.0639C139.899 41.8888 140.307 41.6691 140.747 41.4902" stroke="#A7A9AB" stroke-width="0.94068" stroke-linecap="round"/>
<path d="M182.611 42.0341C183.026 41.8693 183.404 41.6504 183.823 41.4907" stroke="#A7A9AB" stroke-width="0.82382" stroke-linecap="round"/>
<path d="M163.099 42.1268C163.518 41.9586 163.926 41.7619 164.323 41.5762" stroke="#A7A9AB" stroke-width="0.771459" stroke-linecap="round"/>
<path d="M236.794 41.6162C236.356 41.8185 235.923 42.0459 235.455 42.1997" stroke="#A7A9AB" stroke-width="0.895567" stroke-linecap="round"/>
<path d="M19.3892 42.2903C19.8772 42.102 20.3328 41.8567 20.7908 41.6289" stroke="#A7A9AB" stroke-width="0.702793" stroke-linecap="round"/>
<path d="M39.9297 42.2551C40.4001 42.0702 40.8484 41.8628 41.2983 41.6533" stroke="#A7A9AB" stroke-width="0.906256" stroke-linecap="round"/>
<path d="M77.623 42.2965C78.1111 42.0998 78.5787 41.8758 79.0366 41.6411" stroke="#A7A9AB" stroke-width="0.38265" stroke-linecap="round"/>
<path d="M205.665 42.3359C206.084 42.1672 206.509 42.002 206.897 41.7925" stroke="#A7A9AB" stroke-width="0.614558" stroke-linecap="round"/>
<path d="M93.6333 42.3208C94.0418 42.1803 94.4105 42.0091 94.7968 41.8379" stroke="#A7A9AB" stroke-width="0.647352" stroke-linecap="round"/>
<path d="M140.121 42.366C140.575 42.228 140.974 42.0172 141.392 41.8379" stroke="#A7A9AB" stroke-width="0.326303" stroke-linecap="round"/>
<path d="M174.588 19.3514C175.085 19.1972 175.509 18.9425 175.975 18.7471" stroke="#A7A9AB" stroke-width="0.916402" stroke-linecap="round"/>
</svg>
