<svg width="254" height="43" viewBox="0 0 254 43" fill="none" xmlns="http://www.w3.org/2000/svg">
<path d="M7.53369 6.77584H12.6458V30.6832H7.53369V6.77584ZM25.5335 12.2099C23.2945 12.2099 21.4291 12.8543 19.6096 14.1247L19.5942 14.1356V12.7827H14.4398V30.6829H19.5942V18.8169L19.5962 18.8143C21.0811 17.2325 22.7497 16.3253 24.5083 16.3253C27.5914 16.3253 29.167 18.0552 29.167 21.0713V30.6832H34.2791V20.8091C34.2794 15.6657 30.8791 12.2099 25.5335 12.2099ZM129.447 24.6484L129.445 24.6507C127.961 26.2327 126.292 27.1402 124.534 27.1402C121.451 27.1402 119.875 25.4104 119.875 22.3946V12.7821H114.763V22.6562C114.763 27.7996 118.163 31.2556 123.508 31.2556C125.748 31.2556 127.614 30.611 129.432 29.34L129.448 29.3299V30.6929H134.602V12.7821H129.448L129.447 24.6484ZM113.285 12.7721H106.726L97.9906 20.7006V6.77584H92.8795V30.6829H97.9906V26.6561L101.509 23.4571L107.73 30.6694L107.742 30.6829H114.406L105.069 20.2158L113.285 12.7721ZM47.8664 16.4987L47.8606 12.4822V12.4486H47.8223C45.0748 12.4564 43.0451 13.1468 41.241 14.686L41.2249 14.7001V12.7721H36.0705V30.6829H41.2249V19.4087L41.2268 19.4064C42.9405 17.5857 45.1009 16.6353 47.8297 16.5002L47.8664 16.4987ZM188.222 12.1705C185.934 12.1705 183.848 12.8952 182.192 13.9122L182.177 13.9217V6.78529H177.021V30.6803H182.177V29.5283L182.192 29.5367C183.849 30.5543 185.934 31.0917 188.222 31.0917C190.979 31.0917 193.559 30.1201 195.487 28.356C197.42 26.5913 198.484 24.2297 198.484 21.7053C198.484 16.551 193.88 12.1705 188.222 12.1705ZM187.498 27.165C185.233 27.165 183.443 26.3541 182.179 24.7545L182.176 24.7522V18.6602L182.179 18.6577C183.449 17.0825 185.238 16.2845 187.498 16.2845C190.791 16.2845 193.372 18.6657 193.372 21.7057C193.372 24.7675 190.791 27.165 187.498 27.165ZM199.929 6.77584H205.084V30.6803H199.929V6.77584ZM172.655 6.21973C170.865 6.21973 169.515 7.3889 169.515 8.94022C169.515 10.4237 170.894 11.5859 172.655 11.5859C174.415 11.5859 175.793 10.4237 175.793 8.94022C175.793 7.3889 174.444 6.21973 172.655 6.21973ZM170.12 12.7827H175.231V30.6829H170.12V12.7827ZM217.346 12.3465C214.194 12.3465 211.482 13.2776 209.499 15.0394C207.584 16.7402 206.53 19.1177 206.53 21.7329C206.53 24.3327 207.585 26.6978 209.499 28.3937C211.483 30.1515 214.196 31.0811 217.346 31.0811C222.005 31.0811 225.763 28.9677 226.919 25.6956L226.959 25.58H221.513L221.483 25.6249C220.783 26.675 219.396 27.23 217.473 27.23C214.507 27.23 212.409 25.8777 211.716 23.5201L211.712 23.5094H227.164L227.177 23.4346C227.307 22.7529 227.307 22.0812 227.307 21.4313C227.266 16.1672 223.076 12.3465 217.346 12.3465ZM211.667 20.1069L211.669 20.0962C212.313 17.6561 214.339 16.1991 217.09 16.1991C219.844 16.1991 221.668 17.6199 222.093 20.0968L222.095 20.1069H211.667ZM240.361 20.0701L236.607 19.5456C234.765 19.2609 233.831 18.6093 233.831 17.6089C233.831 16.5016 235.215 15.7859 237.358 15.7859C239.91 15.7859 241.46 16.6997 241.61 18.2916L241.615 18.3344H246.391L246.381 18.2395C245.858 12.8529 239.896 12.2715 237.358 12.2715C232.135 12.2715 228.761 14.5428 228.761 18.0587C228.761 21.5512 232.057 22.8075 234.823 23.246L239.215 23.8824C240.732 24.1351 241.568 24.7692 241.568 25.6683C241.568 26.782 239.979 27.5296 237.614 27.5296C234.789 27.5296 233.157 26.5456 232.762 24.6041L232.748 24.5311L228.031 24.5288L228.036 24.5895C228.443 28.8113 231.887 31.2313 237.487 31.2313C242.942 31.2313 246.466 28.901 246.466 25.2949C246.466 22.4306 244.469 20.7226 240.361 20.0701L240.361 20.0701ZM165.702 8.47957H160.589V12.7827H157.966V16.5979H160.589V30.6935H165.702V16.5979H168.326V12.7827H165.702V8.47957ZM147.595 12.3701C145.307 12.3701 143.221 12.9081 141.564 13.9252L141.549 13.9344V12.7828H136.393V36.7804H141.549V29.5416L141.564 29.5499C143.221 30.5676 145.307 31.105 147.595 31.105C153.253 31.105 157.855 26.9114 157.855 21.7562C157.855 19.2339 156.792 16.8717 154.86 15.1055C152.928 13.3417 150.348 12.3701 147.595 12.3701ZM146.869 27.1785C144.603 27.1785 142.814 26.3676 141.551 24.768L141.548 24.7658V18.71L141.551 18.7083C142.814 17.1089 144.603 16.2977 146.869 16.2977C150.163 16.2977 152.743 18.6953 152.743 21.7563C152.744 24.7971 150.163 27.1785 146.869 27.1785ZM81.4067 16.4878C83.8283 16.4878 85.6908 17.6748 86.1505 19.5131L86.1708 19.5959H91.4339L91.4159 19.4763C90.7698 15.2784 86.6541 12.3468 81.4063 12.3468C75.2382 12.3468 70.5864 16.3828 70.5864 21.7358C70.5864 27.0684 75.2382 31.0895 81.4063 31.0895C86.66 31.0895 90.7757 28.1573 91.4159 23.9586L91.4339 23.8395H86.1701L86.1498 23.9221C85.6937 25.7839 83.8316 26.9862 81.4067 26.9862C78.1163 26.9862 75.7284 24.7778 75.7284 21.7355C75.7284 18.695 78.1163 16.4878 81.4067 16.4878ZM14.4366 6.77584H15.4182V11.2811H14.4366V6.77584ZM17.9531 11.3625C18.8663 11.3625 19.6024 10.9545 19.8306 10.3084H18.7901C18.6463 10.5237 18.3673 10.635 17.978 10.635C17.3016 10.635 16.9293 10.3006 16.8104 9.86267H19.8814C19.9069 9.72839 19.9069 9.59525 19.9069 9.46902C19.898 8.41372 19.0608 7.68536 17.9531 7.68536C16.6755 7.68536 15.8294 8.481 15.8294 9.52825C15.8294 10.5683 16.6755 11.3625 17.9531 11.3625ZM17.9021 8.41343C18.4852 8.41343 18.8415 8.72513 18.9171 9.22317H16.8029C16.9119 8.77057 17.276 8.41343 17.9021 8.41343ZM22.1377 10.6943C21.5961 10.6943 21.2405 10.5163 21.1567 10.1002L20.2602 10.0924C20.3522 11.0588 21.1983 11.3927 22.1122 11.3927C23.1187 11.3927 23.8721 10.9846 23.8721 10.2341C23.8721 9.55064 23.2876 9.31313 22.6793 9.21651L21.935 9.11275C21.5035 9.04547 21.3673 8.88242 21.3673 8.71104C21.3673 8.50315 21.6128 8.33263 22.0866 8.33263C22.5434 8.33263 22.9153 8.48877 22.95 8.84504L23.8551 8.83756C23.7618 7.87917 22.7716 7.67098 22.0869 7.67098C21.0893 7.67098 20.4036 8.09512 20.4036 8.80076C20.4036 9.43969 20.9793 9.7143 21.5879 9.8112L22.4589 9.93744C22.7716 9.98948 22.9412 10.1226 22.9412 10.3092C22.9409 10.5459 22.6115 10.6943 22.1377 10.6943ZM58.5092 12.36C52.3224 12.36 47.6566 16.39 47.6503 21.7358C47.6569 27.0822 52.3047 31.1119 58.467 31.1119L58.5092 31.1114L58.5514 31.1119C64.7137 31.1119 69.3619 27.0819 69.3674 21.7358C69.3616 16.3897 64.6957 12.36 58.5092 12.36ZM64.2549 21.7358C64.2491 24.785 61.8529 26.9971 58.5511 26.9971C58.5364 26.9971 58.523 26.9955 58.5089 26.9955C58.4948 26.9955 58.4807 26.9971 58.4666 26.9971C55.1649 26.9971 52.7681 24.785 52.7628 21.7358H52.7616C52.7669 18.687 55.1823 16.4748 58.509 16.4748C61.8357 16.4748 64.2504 18.687 64.2563 21.7358H64.2549Z" fill="#A7A9AB"/>
</svg>
