<svg width="50" height="50" viewBox="0 0 50 50" fill="none" xmlns="http://www.w3.org/2000/svg">
<path d="M24.9722 0.274658C11.3321 0.274658 0.274902 11.3319 0.274902 24.9719C0.274902 38.6119 11.3321 49.6692 24.9722 49.6692C38.6122 49.6692 49.6694 38.6119 49.6694 24.9719C49.6694 11.3319 38.6122 0.274658 24.9722 0.274658ZM17.3912 38.6685H11.7026V20.3711H17.3912V38.6685ZM14.5472 17.8712C12.7251 17.8712 11.2515 16.3937 11.2515 14.5744C11.2515 12.7534 12.7251 11.2754 14.5472 11.2754C16.3654 11.2754 17.8429 12.7528 17.8429 14.5744C17.8429 16.3937 16.3649 17.8712 14.5472 17.8712ZM38.6929 38.6685H33.0087V29.7703C33.0087 27.648 32.9719 24.9187 30.0532 24.9187C27.0939 24.9187 26.6423 27.232 26.6423 29.6178V38.6685H20.958V20.3711H26.4128V22.8732H26.4902C27.2493 21.4342 29.1048 19.9178 31.8709 19.9178C37.6298 19.9178 38.6929 23.7063 38.6929 28.6332V38.6685Z" fill="#A7A9AB"/>
</svg>
