<svg width="254" height="37" viewBox="0 0 254 37" fill="none" xmlns="http://www.w3.org/2000/svg">
<g clip-path="url(#clip0_118_956)">
<rect width="254" height="37" fill="black"/>
<path d="M55.5807 30.8302L53.467 23.5273L52.5797 19.5935C52.7107 19.5595 52.604 19.2966 52.5991 19.2576C51.8477 13.021 47.0531 13.722 43.9407 14.7931C43.9407 14.7931 43.7757 14.9489 43.7806 14.7445C43.7904 14.4913 43.7951 11.9644 43.7951 11.2828C43.7951 11.1222 43.9358 11.0735 43.9358 11.0735C47.8239 9.3598 53.4523 9.50585 56.9139 11.2439C59.5123 12.5535 61.0249 14.5351 62.4551 20.4844C62.8478 22.1301 63.2986 24.3939 64.5494 29.3112C65.1506 31.6724 65.7856 32.5537 67.08 32.3054C67.2401 32.2762 67.2448 32.3589 67.2448 32.5001C67.2401 33.6199 67.2401 35.4943 67.2401 35.6257C67.2401 36.0152 67.2401 36.0152 67.1092 36.0104C66.9443 36.0055 63.5313 36.0152 63.5313 36.0152C61.975 36.0055 60.0795 36.0055 57.6168 33.8438L55.5807 30.8302Z" fill="#A7A9AB"/>
<path d="M55.5807 30.8302C55.6389 31.0055 55.3868 31.1807 55.222 31.2587C49.8455 34.3307 47.8917 25.2313 53.1276 23.4787C53.341 23.4203 53.467 23.5273 53.467 23.5273L52.5798 19.5935C49.7825 20.2118 45.3853 21.4825 43.4802 23.2888C39.2188 27.3297 41.0562 33.839 45.7345 35.5235C48.3475 36.4632 53.7481 37.2081 57.6168 33.8438L55.5807 30.8302Z" fill="#A7A9AB"/>
<path d="M92.1264 9.36905C95.0884 9.36905 97.493 7.42165 97.493 5.01656C97.493 2.61154 95.0884 0.664062 92.1264 0.664062C89.1592 0.664062 86.7595 2.61154 86.7595 5.01656C86.7595 7.42165 89.1592 9.36905 92.1264 9.36905Z" fill="#A7A9AB"/>
<path d="M116.078 21.2055C116.243 21.1617 116.892 21.1763 116.839 20.2561C116.698 17.9095 116.116 16.3077 115.433 15.3729C114.143 13.6154 111.782 13.5521 110.565 16.1568C109.853 17.6758 109.712 20.4411 109.809 22.2863C109.843 22.8608 109.935 22.89 110.459 22.7635L110.881 26.2347C110.696 26.3321 110.469 26.2494 110.735 26.9651C112.417 31.5074 114.832 32.1257 118.061 31.9407C119.733 31.8482 121.604 30.9719 122.264 30.6262C122.918 30.2757 122.816 30.6943 122.816 30.9426V34.0148C122.816 34.5113 122.86 34.6866 121.987 35.0031C117.576 36.6243 111.782 37.0089 107.283 34.7839C103.502 32.9145 100.06 27.9826 100.356 22.6028C100.826 14.039 106.125 9.40897 114.071 9.66697C120.329 9.87149 125.114 14.482 125.696 21.259C125.72 21.5414 125.715 21.9747 125.449 22.1257L116.078 21.2055Z" fill="#A7A9AB"/>
<path d="M116.078 21.2056C114.972 21.5415 110.459 22.7635 110.459 22.7635L110.881 26.2348C111.06 26.1326 125.449 22.1258 125.449 22.1258L116.078 21.2056Z" fill="#A7A9AB"/>
<path d="M38.5556 34.0298C38.5507 35.2032 38.8222 35.6511 38.9142 35.8458C38.9919 36.0211 38.7592 35.9968 38.7592 35.9968H36.9461H29.388C29.388 35.9968 29.2038 36.0065 29.2619 35.8458C29.3735 35.5294 29.6013 34.9598 29.6013 34.0298L29.5915 32.8127V21.245V19.0687C29.5868 18.2508 29.0826 16.4933 27.1094 16.4884C25.4756 16.503 23.9534 17.9928 23.9486 20.057V24.3755L23.9438 32.9928C23.9438 32.9928 23.9486 33.9861 23.9486 34.0298C23.9438 35.2032 24.2152 35.6511 24.3073 35.8458C24.3849 36.0211 24.1522 35.9968 24.1522 35.9968H22.3438H14.781C14.781 35.9968 14.5968 36.0065 14.655 35.8458C14.7665 35.5294 14.9895 34.9598 14.9943 34.0298V33.3823V21.2596V19.0833C14.9895 18.2605 14.4853 16.5078 12.5073 16.4981C10.8784 16.5127 9.35129 18.0025 9.35129 20.0668V21.1817V33.3337L9.34167 34.0298C9.34167 35.2032 9.61316 35.6511 9.7003 35.8458C9.77798 36.0211 9.55013 35.9968 9.55013 35.9968H7.73688H0.178923C0.178923 35.9968 -0.0101559 36.0065 0.0479878 35.8458C0.164424 35.5294 0.3825 34.9598 0.392265 34.0298V33.2119C0.392265 30.1886 0.387382 16.912 0.3825 15.6899C0.392265 14.8914 0.14016 14.3219 0.0189901 14.0102C-0.0538004 13.8496 0.106132 13.7766 0.106132 13.7766C0.106132 13.7766 3.55319 12.2235 9.20098 9.60418C9.25912 9.57989 9.35617 9.61391 9.35129 9.71621V11.9995V13.9616C9.35129 14.0687 9.46773 14.1271 9.55487 14.0346C9.6034 13.9859 9.66154 13.908 9.73921 13.8204C12.837 9.07837 22.4797 8.30918 23.997 13.9859C24.0262 14.0833 24.1328 14.0735 24.1959 13.9859C26.1059 11.4153 28.0209 10.1203 31.9574 10.1203C39.656 10.1203 38.5458 16.7123 38.541 20.7727L38.5458 32.8127L38.5556 34.0298Z" fill="#A7A9AB"/>
<path d="M78.6805 34.0483C78.6756 35.2168 78.9471 35.6696 79.0344 35.8643C79.1168 36.0396 78.884 36.0153 78.884 36.0153H76.5908H69.0329C69.0329 36.0153 68.8438 36.0202 68.9019 35.8643C69.0135 35.543 69.2365 34.9783 69.2413 34.0483L69.2462 33.3473C69.2462 30.3337 69.2413 17.466 69.2413 16.244C69.2413 15.5624 68.7857 14.2917 68.6984 14.0628C68.6402 13.9412 68.8293 13.8924 68.8293 13.8924C68.8293 13.8924 72.9113 11.799 78.5349 9.18453C78.5932 9.16017 78.6852 9.19427 78.6852 9.29649V11.8379C78.6852 12.1787 78.7192 13.2449 78.7192 13.3861C78.7192 13.4981 78.8355 13.5565 78.9179 13.464C78.9664 13.4104 79.0295 13.3374 79.1021 13.2449C81.2014 9.10668 84.5367 9.2381 87.0722 9.61786C87.397 9.66652 87.3534 9.77364 87.2662 10.2021C87.1014 11.02 85.9814 15.65 85.8845 15.9908C85.8068 16.2781 85.7293 16.4046 85.3852 16.3316C82.2 15.6597 78.6852 16.7016 78.6852 20.689V21.2635C78.6852 24.17 78.6852 31.2782 78.6901 33.3522L78.6805 34.0483Z" fill="#A7A9AB"/>
<path d="M97.146 34.0483C97.1411 35.2168 97.4126 35.6696 97.4999 35.8643C97.5823 36.0397 97.3496 36.0153 97.3496 36.0153H95.0419H87.4839C87.4839 36.0153 87.2948 36.025 87.3481 35.8643C87.4645 35.543 87.6875 34.9783 87.6924 34.0483L87.6972 33.912V14.1749C87.6972 13.688 87.6972 13.6831 88.0414 13.5273C88.2208 13.4446 88.1578 13.4738 88.1578 13.4738C88.1578 13.4738 91.4156 11.8574 96.8502 9.28678C96.9084 9.25758 97.1362 9.29651 97.1313 9.3988C97.1313 10.1777 97.1411 31.8624 97.146 33.9559V34.0483Z" fill="#A7A9AB"/>
<path d="M154.368 31.5206C152.104 32.6793 148.725 33.0542 146.708 30.4788C144.701 27.913 143.712 25.6686 143.717 21.9928C143.722 13.6383 149.496 12.5429 153.878 15.0015V10.7074C151.406 9.44646 148.143 9.22739 145.69 9.48546C138.384 10.2693 134.118 16.4183 134.113 23.4144C134.108 31.0386 138.956 40.1623 154.368 35.9218V31.5206Z" fill="#A7A9AB"/>
<path d="M166.477 33.0815C166.477 33.0815 166.443 -0.0638063 166.457 0.106612C166.457 0.106612 159.646 3.26633 156.083 4.97519C156.437 5.26729 157.183 6.5429 157.183 10.7444V21.3823C157.188 24.4251 157.183 30.2577 157.14 34.8731C157.135 35.3794 156.815 36.0854 156.815 36.1341H167.107C167.005 36.1341 166.477 33.0815 166.477 33.0815Z" fill="#A7A9AB"/>
<path d="M183.886 31.102C183.944 31.2871 183.847 31.3454 183.677 31.4331C182.504 32.1828 180.492 32.3484 179.31 31.2432C178.194 29.919 177.613 28.4049 178.083 26.511C178.456 25.3474 179.644 23.3172 181.627 22.9618L180.992 19.1545C180.997 19.2227 180.992 19.2178 180.793 19.2617C180.192 19.4126 179.872 19.471 178.829 19.6463C176.633 20.0114 174.151 20.7612 172.086 22.3776C166.196 26.9735 168.959 33.7359 173.744 35.7223C176.536 36.8811 181.467 37.5578 185.539 34.1449L183.886 31.102Z" fill="#A7A9AB"/>
<path d="M183.886 31.102L181.699 22.9959C181.699 22.9959 181.699 22.9375 181.627 22.9618L180.992 19.1546C180.555 12.3532 175.116 12.9813 172.096 14.1156C172.096 14.1156 171.926 14.2763 171.935 14.062C171.94 13.7992 171.95 11.175 171.95 10.469C171.945 10.2986 172.091 10.2548 172.091 10.2548C175.935 8.56057 181.811 8.78938 185.204 10.4982C188.181 11.9929 189.66 14.7388 190.256 17.1C190.256 17.1 192.927 29.3396 193.228 30.6639C193.47 31.7252 194.159 32.6503 195.235 32.6454C195.662 32.6454 195.72 32.7282 195.725 33.1712C195.729 34.2423 195.734 35.8928 195.729 36.1216C195.725 36.3991 195.705 36.5013 195.497 36.5013C195.327 36.5013 191.803 36.5062 191.803 36.5062C189.907 36.4964 188.346 36.4916 185.539 34.1449L183.886 31.102Z" fill="#A7A9AB"/>
<path d="M202.881 9.03119C205.954 9.03119 208.446 7.01076 208.446 4.51318C208.446 2.0205 205.954 0 202.881 0C199.802 0 197.31 2.0205 197.31 4.51318C197.31 7.01076 199.802 9.03119 202.881 9.03119Z" fill="#A7A9AB"/>
<path d="M207.726 34.0484V34.5791C207.726 35.3484 208.07 35.9277 208.152 36.1322C208.157 36.1566 208.128 36.1711 208.128 36.1711H205.505H197.477C197.477 36.1711 197.443 36.1566 197.453 36.1322C197.526 35.9423 197.875 35.3387 197.875 34.5791V34.0047C197.875 30.8644 197.88 15.4408 197.88 13.5226C197.88 13.0503 198.098 13.0308 198.098 13.0308C198.098 13.0308 201.7 11.1808 207.566 8.4592C207.624 8.43001 207.726 8.46411 207.721 8.57123C207.721 9.38424 207.726 31.877 207.726 34.0484Z" fill="#A7A9AB"/>
<path d="M228.657 16.1359C226.34 16.1019 225.758 15.9559 224.536 16.3891C223.014 16.9734 221.967 18.1905 221.938 20.0454V21.1701V34.0621V34.5781C221.938 35.3279 222.272 35.8927 222.35 36.0923C222.36 36.1118 222.331 36.1263 222.331 36.1263H219.785H211.98C211.98 36.1263 211.951 36.1118 211.956 36.0874C212.029 35.9072 212.368 35.3181 212.368 34.5781V34.0231V15.6248C212.315 14.9286 212.033 14.0863 211.951 13.8672C211.893 13.7455 212.082 13.7016 212.082 13.7016C212.082 13.7016 216.081 11.8419 221.783 9.2031C221.836 9.1739 221.938 9.208 221.933 9.31513V11.6179C221.933 11.9588 221.972 13.0444 221.972 13.1905C221.972 13.2976 222.088 13.356 222.175 13.2635C222.224 13.2099 222.282 13.1369 222.36 13.0444C224.658 8.76985 228.41 9.31022 230.32 9.61206C230.65 9.66079 230.601 9.76784 230.514 10.2012C230.344 11.0288 229.263 15.4446 229.166 15.7903C229.084 16.0824 229.011 16.1457 228.657 16.1359Z" fill="#A7A9AB"/>
<path d="M244.376 21.7801C244.536 21.7314 245.186 21.746 245.133 20.8258C244.992 18.4792 244.41 16.8823 243.727 15.9475C242.437 14.1851 240.076 14.1218 238.859 16.7314C238.152 18.2455 238.011 21.0157 238.108 22.8561C238.137 23.4305 238.234 23.4597 238.753 23.3381L239.174 26.8045C238.995 26.9067 238.762 26.824 239.029 27.5397C240.711 32.082 243.13 32.6954 246.354 32.5153C248.027 32.4228 249.898 31.5416 250.558 31.1959C251.217 30.8454 251.115 31.269 251.115 31.5172V34.5894C251.115 35.0811 251.154 35.2563 250.286 35.5777C245.87 37.194 240.076 37.5787 235.582 35.3537C231.801 33.4891 228.359 28.5523 228.65 23.1774C229.12 14.6087 234.424 9.97866 242.365 10.2416C248.628 10.4461 253.408 15.0518 253.99 21.8288C254.014 22.1112 254.014 22.5445 253.748 22.6954L244.376 21.7801Z" fill="#A7A9AB"/>
<path d="M244.377 21.78C243.271 22.1111 238.753 23.338 238.753 23.338L239.175 26.8045C239.354 26.7071 253.748 22.6953 253.748 22.6953L244.377 21.78Z" fill="#A7A9AB"/>
</g>
<defs>
<clipPath id="clip0_118_956">
<rect width="254" height="37" fill="white"/>
</clipPath>
</defs>
</svg>
