<svg width="148" height="53" viewBox="0 0 148 53" fill="none" xmlns="http://www.w3.org/2000/svg">
<path d="M128.015 9.68155V0.0386948H101.274L96.8761 32.2535L92.5243 0.0388513H82.8809L83.9612 8.63482C82.8473 6.43272 78.8991 0.0388513 70.2104 0.0388513C70.1532 0.0350945 60.5538 0.0388513 60.5538 0.0388513L60.5169 46.9944L53.488 0.0388513L40.8584 0.0314941L33.5869 48.6839L33.5906 0.0385384H21.5033L17.1458 27.3667L12.9013 0.0388513H0.810059V52.932H10.3317V27.4376L14.6629 52.9314H19.7249L23.9952 27.4376V52.9314H42.3513L43.4651 44.7925H50.8555L51.9656 52.9314L69.9869 52.9425H70.0015V52.9314H70.0127H70.024V35.7622L72.2333 35.4392L76.807 52.9425H76.8183H86.1174H86.1283L86.1246 52.9314H86.1411H86.1524L80.1503 32.4168C83.1919 30.1593 86.6263 24.4263 85.7123 18.9418V18.9382C85.7232 19.0124 91.3776 52.9652 91.3776 52.9652L102.464 52.9314L110.039 4.98809V52.9316H128.016V43.4186H119.483V31.288H128.016V21.6303H119.483V9.68155H128.015ZM44.5868 36.4049L47.201 13.7921L49.9154 36.4049H44.5868ZM72.2641 25.9636C71.5314 26.3201 70.7673 26.4984 70.0235 26.4984V9.48479C70.0365 9.48479 70.0514 9.48134 70.0699 9.48134C70.8155 9.47759 76.3752 9.70769 76.3752 17.8987C76.3752 22.1835 74.4843 24.8832 72.2641 25.9636ZM147.2 43.4113V52.924H129.664V0.0314941H139.106V43.4113H147.2Z" fill="#A7A9AB"/>
</svg>
