<svg width="121" height="73" viewBox="0 0 121 73" fill="none" xmlns="http://www.w3.org/2000/svg">
<path d="M120.862 36.1804C120.868 56.1575 104.677 72.3551 84.7003 72.3604C64.7228 72.3653 48.5256 56.1758 48.5203 36.1988C48.5203 36.1923 48.5203 36.187 48.5203 36.1804C48.515 16.2038 64.7053 0.00530827 84.6815 1.30429e-06C104.659 -0.00530566 120.857 16.185 120.862 36.162C120.862 36.1682 120.862 36.1739 120.862 36.1804Z" fill="#9E9E9E"/>
<path d="M35.9379 0.00945878C16.0793 0.135601 0 16.292 0 36.1805C0 56.1465 16.2046 72.3511 36.171 72.3511C45.5419 72.3511 54.0837 68.7799 60.5112 62.9268C60.5112 62.9268 60.51 62.9259 60.5083 62.9251H60.5161C61.8322 61.7257 63.0598 60.4317 64.1881 59.0519H56.7776C55.788 57.8566 54.8887 56.6111 54.0808 55.326H66.8616C67.6389 54.0821 68.3427 52.7905 68.9672 51.4527H51.9707C51.3914 50.2109 50.8885 48.9409 50.459 47.6525H70.4805C71.6873 44.047 72.3421 40.1897 72.3421 36.1801C72.3421 33.5217 72.0538 30.9299 71.5085 28.4344H49.3972C49.6711 27.1501 50.0169 25.8813 50.4292 24.6346H70.4581C70.0103 23.3078 69.4902 22.015 68.8987 20.7617H51.9686C52.5793 19.457 53.2713 18.1878 54.0441 16.9623H66.8155C65.9655 15.6083 65.025 14.3146 64.0081 13.0891H56.8874C57.9884 11.7934 59.2004 10.5732 60.5161 9.43544C54.0881 3.58145 45.5439 0.00945878 36.171 0.00945878C36.0931 0.00945878 36.0159 0.00905055 35.9379 0.00945878Z" fill="#7B7B7B"/>
<path d="M117.233 55.0898C117.43 55.0898 117.622 55.1409 117.809 55.2413C117.996 55.3417 118.141 55.4866 118.245 55.6748C118.35 55.861 118.402 56.0573 118.402 56.2606C118.402 56.4615 118.35 56.6558 118.247 56.842C118.145 57.0277 118 57.1726 117.814 57.2759C117.63 57.3776 117.435 57.429 117.233 57.429C117.03 57.429 116.836 57.3776 116.651 57.2759C116.465 57.1722 116.321 57.0281 116.217 56.842C116.114 56.6558 116.063 56.4615 116.063 56.2606C116.063 56.0573 116.115 55.861 116.22 55.6748C116.325 55.4866 116.47 55.3429 116.657 55.2413C116.846 55.1409 117.037 55.0898 117.233 55.0898ZM117.233 55.2837C117.07 55.2837 116.91 55.3262 116.753 55.4107C116.598 55.4952 116.477 55.6148 116.39 55.7732C116.301 55.9292 116.257 56.0908 116.257 56.2606C116.257 56.4288 116.3 56.5913 116.385 56.7456C116.473 56.8995 116.594 57.0204 116.748 57.1069C116.904 57.193 117.065 57.2355 117.233 57.2355C117.402 57.2355 117.564 57.193 117.718 57.1069C117.873 57.0204 117.993 56.8995 118.079 56.7456C118.165 56.5913 118.207 56.4292 118.207 56.2606C118.207 56.0908 118.164 55.9288 118.076 55.7732C117.989 55.6148 117.867 55.4952 117.711 55.4107C117.556 55.3258 117.397 55.2837 117.233 55.2837ZM116.721 56.9065V55.6483H117.154C117.301 55.6483 117.408 55.6597 117.474 55.6842C117.54 55.7075 117.593 55.7471 117.633 55.8055C117.671 55.863 117.691 55.9243 117.691 55.9896C117.691 56.0818 117.659 56.1618 117.593 56.2296C117.528 56.2974 117.44 56.3362 117.332 56.3443C117.376 56.3627 117.412 56.386 117.44 56.4113C117.491 56.4603 117.552 56.5431 117.625 56.6603L117.778 56.9065H117.531L117.42 56.7085C117.332 56.5525 117.262 56.4554 117.207 56.4154C117.17 56.3872 117.116 56.3725 117.045 56.3725H116.926V56.9077H116.721M116.924 56.1982H117.171C117.288 56.1982 117.368 56.1802 117.411 56.1455C117.454 56.1096 117.475 56.0639 117.475 56.0059C117.475 55.9683 117.466 55.9349 117.445 55.9063C117.424 55.8765 117.395 55.8553 117.358 55.8402C117.322 55.8259 117.254 55.8177 117.155 55.8177H116.925V56.1982" fill="#FCB340"/>
<path d="M48.1741 46.5575L48.6558 43.2835C48.3925 43.2835 48.0055 43.3974 47.6634 43.3974C46.3227 43.3974 46.1554 42.6809 46.2607 42.1576L47.5817 35.5729H49.6196L50.0397 31.8568H48.1189L48.51 29.605H44.4922C44.4073 29.6899 42.2192 42.269 42.2192 43.8015C42.2192 46.0692 43.4921 47.0784 45.2875 47.0624C46.6926 47.0506 47.7879 46.6616 48.1741 46.5575Z" fill="#000066"/>
<path d="M49.3936 40.3161C49.3936 45.7586 52.9856 47.0514 56.0464 47.0514C58.8718 47.0514 60.3532 46.3966 60.3532 46.3966L61.0317 42.6818C61.0317 42.6818 58.6444 43.6525 56.7041 43.6525C52.5683 43.6525 53.2934 40.5688 53.2934 40.5688L61.2387 40.5929C61.2387 40.5929 61.7445 38.0982 61.7445 37.0813C61.7445 34.5433 60.3618 31.4277 56.1334 31.4277C52.261 31.4286 49.3936 35.601 49.3936 40.3161ZM56.1481 34.8764C58.3215 34.8764 57.9206 37.3193 57.9206 37.5173H53.6448C53.6448 37.2642 54.0486 34.8764 56.1481 34.8764Z" fill="#000066"/>
<path d="M80.5349 46.5561L81.2244 42.3579C81.2244 42.3579 79.3335 43.3054 78.0374 43.3054C75.3051 43.3054 74.209 41.2193 74.209 38.9777C74.209 34.4313 76.5596 31.9297 79.1763 31.9297C81.1391 31.9297 82.7136 33.0315 82.7136 33.0315L83.3423 28.9521C83.3423 28.9521 81.4832 27.6094 79.4821 27.6017C73.4628 27.578 70.0186 31.7689 70.0186 39.0137C70.0186 43.8157 72.5692 47.0835 77.165 47.0835C78.4644 47.0835 80.5349 46.5561 80.5349 46.5561Z" fill="#000066"/>
<path d="M26.9915 31.4883C24.3507 31.4883 22.3267 32.337 22.3267 32.337L21.7674 35.6547C21.7674 35.6547 23.4383 34.9758 25.9644 34.9758C27.3985 34.9758 28.4477 35.137 28.4477 36.3025C28.4477 37.0104 28.3195 37.2716 28.3195 37.2716C28.3195 37.2716 27.1879 37.1773 26.6637 37.1773C22.9039 37.1773 19.8345 38.5988 19.8345 42.8844C19.8345 46.2616 22.1299 47.036 23.5526 47.036C26.2702 47.036 27.3459 45.3203 27.4079 45.3154L27.3765 46.7393H30.7676L32.2805 36.1335C32.2805 31.6328 28.355 31.4883 26.9915 31.4883ZM27.5786 40.1003C27.6524 40.7477 27.4112 43.8094 25.0916 43.8094C23.8955 43.8094 23.5849 42.895 23.5849 42.3553C23.5849 41.3004 24.1576 40.0353 26.9793 40.0353C27.6365 40.0353 27.4679 40.0827 27.5786 40.1003Z" fill="#000066"/>
<path d="M35.8849 46.9574C36.7524 46.9574 41.7111 47.1783 41.7111 42.0611C41.7111 37.2763 37.121 38.2222 37.121 36.2994C37.121 35.3433 37.8693 35.0421 39.2373 35.0421C39.7798 35.0421 41.8691 35.2148 41.8691 35.2148L42.3545 31.8142C42.3545 31.8142 41.0024 31.5117 38.8013 31.5117C35.9523 31.5117 33.0604 32.649 33.0604 36.5403C33.0604 40.9499 37.8824 40.507 37.8824 42.3645C37.8824 43.6042 36.5352 43.7063 35.4967 43.7063C33.7001 43.7063 32.0827 43.0895 32.0769 43.1193L31.563 46.4851C31.6565 46.5137 32.6546 46.9574 35.8849 46.9574Z" fill="#000066"/>
<path d="M112.302 28.4028L111.606 33.591C111.606 33.591 110.155 31.5886 107.886 31.5886C103.616 31.5886 101.416 35.8436 101.416 40.7313C101.416 43.8869 102.985 46.9801 106.192 46.9801C108.499 46.9801 109.778 45.3712 109.778 45.3712L109.608 46.7449H113.355L116.297 28.431L112.302 28.4028ZM110.648 38.4865C110.648 40.5207 109.64 43.2382 107.553 43.2382C106.167 43.2382 105.517 42.0744 105.517 40.2484C105.517 37.2622 106.858 35.2925 108.551 35.2925C109.936 35.2925 110.648 36.2437 110.648 38.4865Z" fill="#000066"/>
<path d="M6.13892 46.7602L8.48337 32.9335L8.82792 46.7602H11.481L16.4308 32.9335L14.2382 46.7602H18.1808L21.2168 28.4218L14.9538 28.374L11.2283 39.6019L11.1262 28.4218H5.38656L2.30688 46.7602H6.13892Z" fill="#000066"/>
<path d="M65.4756 46.7863C66.5966 40.4118 66.9958 35.3775 70.2649 36.4201C70.7344 33.9528 71.8533 31.8072 72.3644 30.7629C72.3644 30.7629 72.2028 30.5225 71.1924 30.5225C69.4676 30.5225 67.1648 34.0226 67.1648 34.0226L67.509 31.8586H63.9223L61.5203 46.7858L65.4756 46.7863Z" fill="#000066"/>
<path d="M88.6013 31.4883C85.9593 31.4883 83.9353 32.337 83.9353 32.337L83.3764 35.6547C83.3764 35.6547 85.0481 34.9758 87.573 34.9758C89.0075 34.9758 90.0562 35.137 90.0562 36.3025C90.0562 37.0104 89.9285 37.2716 89.9285 37.2716C89.9285 37.2716 88.7973 37.1773 88.2731 37.1773C84.5129 37.1773 81.4438 38.5988 81.4438 42.8844C81.4438 46.2616 83.7389 47.036 85.1616 47.036C87.8783 47.036 88.9548 45.3203 89.0165 45.3154L88.9846 46.7393H92.3766L93.8891 36.1335C93.8895 31.6328 89.964 31.4883 88.6013 31.4883ZM89.1875 40.1003C89.261 40.7477 89.0197 43.8094 86.7006 43.8094C85.5037 43.8094 85.1934 42.895 85.1934 42.3553C85.1934 41.3004 85.7658 40.0353 88.5878 40.0353C89.2455 40.0353 89.0773 40.0827 89.1875 40.1003Z" fill="#000066"/>
<path d="M97.7928 46.786C98.4084 42.0963 99.5478 35.5124 102.582 36.4199C103.051 33.9525 102.598 33.9591 101.589 33.9591C99.8625 33.9591 99.4804 34.0219 99.4804 34.0219L99.825 31.8579H96.2387L93.8367 46.7856L97.7928 46.786Z" fill="#000066"/>
<path d="M49.178 45.3899L49.6602 42.1163C49.3969 42.1163 49.0094 42.229 48.6678 42.229C47.3271 42.229 47.1794 41.5162 47.2647 40.9892L48.3477 34.3098H50.3852L50.8771 30.6888H48.956L49.3471 28.437H45.4958C45.4109 28.5219 43.2224 41.1015 43.2224 42.6331C43.2224 44.9008 44.4957 45.9108 46.2911 45.8945C47.697 45.8826 48.7919 45.4936 49.178 45.3899Z" fill="white"/>
<path d="M50.3982 39.148C50.3982 44.5905 53.9906 45.8838 57.0511 45.8838C59.876 45.8838 61.1191 45.2523 61.1191 45.2523L61.7975 41.5378C61.7975 41.5378 59.6486 42.4845 57.7079 42.4845C53.5726 42.4845 54.2968 39.4011 54.2968 39.4011H62.1233C62.1233 39.4011 62.6287 36.9056 62.6287 35.8887C62.6287 33.3512 61.3656 30.2593 57.1372 30.2593C53.2648 30.2601 50.3982 34.4326 50.3982 39.148ZM57.1519 33.7084C59.3253 33.7084 58.9244 36.1508 58.9244 36.3484H54.6487C54.6487 36.0961 55.0528 33.7084 57.1519 33.7084Z" fill="white"/>
<path d="M81.5394 45.388L82.2285 41.1894C82.2285 41.1894 80.3388 42.1369 79.0419 42.1369C76.31 42.1369 75.2143 40.0508 75.2143 37.8097C75.2143 33.2632 77.5649 30.762 80.1816 30.762C82.144 30.762 83.7189 31.8638 83.7189 31.8638L84.3476 27.7844C84.3476 27.7844 82.0121 26.8394 80.0102 26.8394C75.5642 26.8394 71.239 30.6963 71.239 37.9399C71.239 42.7431 73.5745 45.9154 78.1703 45.9154C79.4697 45.9158 81.5394 45.388 81.5394 45.388Z" fill="white"/>
<path d="M27.9963 30.3198C25.3555 30.3198 23.3311 31.1685 23.3311 31.1685L22.7722 34.4862C22.7722 34.4862 24.4431 33.8073 26.9688 33.8073C28.4029 33.8073 29.4521 33.9686 29.4521 35.1341C29.4521 35.8419 29.3235 36.1032 29.3235 36.1032C29.3235 36.1032 28.1923 36.0085 27.6685 36.0085C24.3378 36.0085 20.8389 37.4299 20.8389 41.7155C20.8389 45.0924 23.1343 45.8672 24.557 45.8672C27.2742 45.8672 28.4454 44.104 28.5078 44.0987L28.3809 45.5704H31.772L33.2849 34.9642C33.2849 30.4647 29.3598 30.3198 27.9963 30.3198ZM28.8214 38.9555C28.8948 39.6033 28.4152 42.6401 26.0964 42.6401C24.9003 42.6401 24.5893 41.7265 24.5893 41.186C24.5893 40.132 25.162 38.8665 27.9841 38.8665C28.6405 38.8673 28.7107 38.9375 28.8214 38.9555Z" fill="white"/>
<path d="M36.8891 45.7894C37.7566 45.7894 42.7158 46.0098 42.7158 40.8927C42.7158 36.1087 38.1252 37.0537 38.1252 35.1318C38.1252 34.1749 38.8735 33.8736 40.2411 33.8736C40.784 33.8736 42.8729 34.0463 42.8729 34.0463L43.3587 30.6458C43.3587 30.6458 42.0067 30.3433 39.8055 30.3433C36.9565 30.3433 34.0646 31.4806 34.0646 35.3718C34.0646 39.7811 38.8866 39.3386 38.8866 41.196C38.8866 42.4358 37.5394 42.5366 36.5013 42.5366C34.7047 42.5366 33.0869 41.9202 33.0812 41.9496L32.5676 45.3158C32.6607 45.3444 33.6584 45.7894 36.8891 45.7894Z" fill="white"/>
<path d="M113.44 27.2683L112.609 32.423C112.609 32.423 111.16 30.4207 108.89 30.4207C105.362 30.4207 102.42 34.6752 102.42 39.5637C102.42 42.7193 103.989 45.8113 107.196 45.8113C109.503 45.8113 110.782 44.2028 110.782 44.2028L110.613 45.5765H114.359L117.301 27.2622L113.44 27.2683ZM111.652 37.3189C111.652 39.3531 110.645 42.0703 108.556 42.0703C107.171 42.0703 106.521 40.9068 106.521 39.0808C106.521 36.095 107.862 34.1249 109.554 34.1249C110.941 34.1245 111.652 35.0769 111.652 37.3189Z" fill="white"/>
<path d="M7.14342 45.5922L9.48787 31.7656L9.832 45.5922H12.4855L17.4352 31.7656L15.2427 45.5922H19.1853L22.2217 27.2534H16.1248L12.3279 38.5054L12.1303 27.2534H6.51026L3.43018 45.5922H7.14342Z" fill="white"/>
<path d="M66.4803 45.6175C67.6013 39.2426 67.8091 34.0663 70.4842 35.0138C70.9524 32.5465 71.4043 31.592 71.9154 30.5478C71.9154 30.5478 71.6758 30.4976 71.1729 30.4976C69.4481 30.4976 68.1704 32.8538 68.1704 32.8538L68.5137 30.6898H64.9278L62.5254 45.6175H66.4803Z" fill="white"/>
<path d="M90.4258 30.3198C87.785 30.3198 85.7606 31.1685 85.7606 31.1685L85.2022 34.4862C85.2022 34.4862 86.873 33.8073 89.3987 33.8073C90.8328 33.8073 91.8812 33.9686 91.8812 35.1341C91.8812 35.8419 91.7534 36.1032 91.7534 36.1032C91.7534 36.1032 90.6222 36.0085 90.098 36.0085C86.7677 36.0085 83.2688 37.4299 83.2688 41.7155C83.2688 45.0924 85.5639 45.8672 86.9865 45.8672C89.7037 45.8672 90.8749 44.104 90.9369 44.0987L90.8108 45.5704C90.8108 45.5704 94.2007 45.5704 94.2019 45.5704L95.7144 34.9642C95.7148 30.4647 91.7893 30.3198 90.4258 30.3198ZM91.2521 38.9555C91.3256 39.6033 90.8455 42.6401 88.526 42.6401C87.3298 42.6401 87.0196 41.7265 87.0196 41.186C87.0196 40.132 87.5923 38.8665 90.414 38.8665C91.0704 38.8673 91.1402 38.9375 91.2521 38.9555Z" fill="white"/>
<path d="M98.8139 45.6175C99.9353 39.2426 100.143 34.0663 102.817 35.0138C103.286 32.5465 103.739 31.592 104.249 30.5478C104.249 30.5478 104.01 30.4976 103.507 30.4976C101.782 30.4976 100.504 32.8538 100.504 32.8538L100.848 30.6898H97.2618L94.8594 45.6175H98.8139Z" fill="white"/>
<path d="M117.218 43.3145C117.413 43.3145 117.606 43.3647 117.792 43.4667C117.979 43.5655 118.125 43.7108 118.229 43.899C118.334 44.086 118.386 44.2807 118.386 44.4844C118.386 44.6857 118.334 44.88 118.231 45.0658C118.129 45.2515 117.984 45.3972 117.799 45.4997C117.613 45.6018 117.419 45.6532 117.217 45.6532C117.014 45.6532 116.82 45.6018 116.634 45.4997C116.449 45.3964 116.305 45.2515 116.202 45.0658C116.098 44.88 116.047 44.6857 116.047 44.4844C116.047 44.2807 116.098 44.086 116.203 43.899C116.309 43.7108 116.455 43.5663 116.641 43.4667C116.83 43.3647 117.022 43.3145 117.218 43.3145ZM117.218 43.5071C117.054 43.5071 116.894 43.5496 116.738 43.6349C116.582 43.7182 116.461 43.8386 116.373 43.9962C116.285 44.1517 116.241 44.3146 116.241 44.4836C116.241 44.6526 116.284 44.8143 116.369 44.9686C116.456 45.1225 116.577 45.2433 116.733 45.3303C116.887 45.4152 117.048 45.4581 117.218 45.4581C117.386 45.4581 117.549 45.4152 117.703 45.3303C117.857 45.2433 117.978 45.1225 118.064 44.9686C118.15 44.8131 118.192 44.6526 118.192 44.4836C118.192 44.3146 118.148 44.1517 118.061 43.9962C117.974 43.8386 117.853 43.7182 117.696 43.6349C117.541 43.55 117.382 43.5071 117.218 43.5071ZM116.706 45.1302V43.8717H117.139C117.286 43.8717 117.394 43.8835 117.459 43.9076C117.525 43.9301 117.577 43.9705 117.618 44.0289C117.657 44.0868 117.677 44.1476 117.677 44.213C117.677 44.3048 117.644 44.3852 117.577 44.453C117.513 44.5208 117.426 44.56 117.317 44.5673C117.361 44.5861 117.397 44.6085 117.424 44.6338C117.475 44.6837 117.537 44.7669 117.61 44.8833L117.764 45.1298H117.515L117.405 44.9319C117.317 44.7755 117.246 44.6783 117.192 44.6387C117.155 44.6098 117.101 44.5955 117.029 44.5955H116.91V45.1307L116.706 45.1302ZM116.909 44.422H117.155C117.273 44.422 117.353 44.4044 117.395 44.3693C117.438 44.335 117.461 44.2881 117.461 44.2297C117.461 44.1926 117.451 44.1591 117.43 44.1309C117.409 44.1007 117.38 44.0791 117.343 44.064C117.306 44.0497 117.239 44.0423 117.14 44.0423H116.909V44.422" fill="white"/>
</svg>
