<svg width="141" height="42" viewBox="0 0 141 42" fill="none" xmlns="http://www.w3.org/2000/svg">
<path d="M16.9339 0.596111H6.01121C5.26364 0.596111 4.62803 1.18864 4.5114 1.99383L0.0937454 32.548C0.00588161 33.1506 0.434006 33.6943 0.994512 33.6943H6.20918C6.95662 33.6943 7.59223 33.1021 7.70886 32.2954L8.90029 24.0545C9.01536 23.2477 9.65253 22.6552 10.3984 22.6552H13.8562C21.0513 22.6552 25.2038 18.8571 26.2883 11.3305C26.777 8.03752 26.309 5.45032 24.8955 3.63837C23.3431 1.64849 20.5897 0.596111 16.9339 0.596111ZM18.1941 11.7556C17.5967 16.0312 14.6021 16.0312 11.7065 16.0312H10.0583L11.2146 8.04636C11.2833 7.56368 11.6665 7.20827 12.1138 7.20827H12.8691C14.8416 7.20827 16.7023 7.20827 17.6637 8.4347C18.2372 9.16657 18.4129 10.2537 18.1941 11.7556Z" fill="#7B7B7B"/>
<path d="M49.5838 11.6183H44.3534C43.9078 11.6183 43.523 11.9737 43.454 12.4563L43.2227 14.0522L42.8568 13.4738C41.7245 11.6809 39.1993 11.0817 36.6791 11.0817C30.8991 11.0817 25.9624 15.8572 25.0009 22.5563C24.5011 25.8979 25.2118 29.0933 26.9494 31.3215C28.5433 33.3704 30.824 34.2241 33.5377 34.2241C38.1949 34.2241 40.7775 30.9576 40.7775 30.9576L40.5442 32.543C40.4562 33.1493 40.8844 33.6929 41.4419 33.6929H46.1532C46.9023 33.6929 47.5347 33.1005 47.653 32.2939L50.4798 12.7646C50.5695 12.1635 50.1429 11.6183 49.5838 11.6183ZM42.293 22.7235C41.7885 25.9832 39.4166 28.1717 36.3918 28.1717C34.8729 28.1717 33.659 27.6402 32.8795 26.6332C32.1066 25.6331 31.8126 24.2097 32.0587 22.6241C32.5298 19.3923 34.9416 17.1326 37.92 17.1326C39.4056 17.1326 40.6129 17.6709 41.4083 18.6865C42.2054 19.7127 42.5213 21.1449 42.293 22.7235Z" fill="#7B7B7B"/>
<path d="M77.4408 11.6182H72.1848C71.6833 11.6182 71.2121 11.89 70.9278 12.3448L63.6784 23.9936L60.6057 12.7995C60.4124 12.099 59.8199 11.6182 59.1491 11.6182H53.984C53.3562 11.6182 52.9203 12.2871 53.1199 12.9318L58.9095 31.4661L53.4665 39.8483C53.0383 40.5084 53.4695 41.4165 54.2093 41.4165H59.459C59.9572 41.4165 60.4237 41.1515 60.7063 40.7055L78.1883 13.1776C78.6068 12.5189 78.1773 11.6182 77.4408 11.6182Z" fill="#7B7B7B"/>
<path d="M94.8433 0.596111H83.919C83.1732 0.596111 82.5374 1.18864 82.4208 1.99383L78.0031 32.548C77.9155 33.1506 78.3434 33.6943 78.9008 33.6943H84.5068C85.0273 33.6943 85.4732 33.2799 85.5545 32.7153L86.8081 24.0545C86.9231 23.2477 87.5605 22.6552 88.3063 22.6552H91.7626C98.959 22.6552 103.11 18.8571 104.196 11.3305C104.687 8.03752 104.215 5.45032 102.802 3.63837C101.251 1.64849 98.4992 0.596111 94.8433 0.596111ZM96.1036 11.7556C95.5078 16.0312 92.5133 16.0312 89.6159 16.0312H87.9694L89.1274 8.04636C89.196 7.56368 89.5759 7.20827 90.0248 7.20827H90.7802C92.7513 7.20827 94.6134 7.20827 95.5747 8.4347C96.1482 9.16657 96.3222 10.2537 96.1036 11.7556Z" fill="#7B7B7B"/>
<path d="M127.492 11.6183H122.264C121.816 11.6183 121.434 11.9737 121.367 12.4563L121.135 14.0522L120.768 13.4738C119.636 11.6809 117.112 11.0817 114.592 11.0817C108.812 11.0817 103.877 15.8572 102.915 22.5563C102.417 25.8979 103.124 29.0933 104.862 31.3215C106.459 33.3704 108.737 34.2241 111.45 34.2241C116.107 34.2241 118.69 30.9576 118.69 30.9576L118.457 32.543C118.369 33.1493 118.797 33.6929 119.358 33.6929H124.068C124.813 33.6929 125.449 33.1005 125.566 32.2939L128.394 12.7646C128.48 12.1635 128.052 11.6183 127.492 11.6183ZM120.201 22.7235C119.699 25.9832 117.324 28.1717 114.3 28.1717C112.784 28.1717 111.567 27.6402 110.787 26.6332C110.014 25.6331 109.724 24.2097 109.967 22.6241C110.441 19.3923 112.849 17.1326 115.828 17.1326C117.313 17.1326 118.521 17.6709 119.316 18.6865C120.116 19.7127 120.432 21.1449 120.201 22.7235Z" fill="#7B7B7B"/>
<path d="M133.658 1.43438L129.175 32.548C129.087 33.1506 129.515 33.6943 130.073 33.6943H134.58C135.329 33.6943 135.965 33.1021 136.08 32.2954L140.5 1.743C140.588 1.13993 140.16 0.594658 139.603 0.594658H134.556C134.11 0.596111 133.727 0.951992 133.658 1.43438Z" fill="#7B7B7B"/>
</svg>
