<svg width="192" height="94" viewBox="0 0 192 94" fill="none" xmlns="http://www.w3.org/2000/svg">
<path d="M50.4299 17.4326H69.9997V21.3065H62.4729V42.2253H57.9568V21.3065H50.4299V17.4326ZM68.8707 24.0182H72.6341V27.5046C72.6341 27.1173 73.0105 26.7299 73.3868 25.9551C73.7632 25.1803 74.1395 25.1803 74.5158 24.7929C74.8922 24.4056 75.6449 24.0182 76.0212 24.0182C76.3975 23.6308 77.1502 23.6308 77.9029 23.6308C78.2793 23.6308 78.6556 23.6308 78.6556 23.6308H79.0319V27.5046C78.6556 27.5046 78.6556 27.5046 78.2793 27.5046C77.9029 27.5046 77.9029 27.5046 77.5266 27.5046C76.7739 27.5046 76.3976 27.5046 75.6449 27.892C74.8922 28.2794 74.5158 28.6668 74.1395 29.0542C73.7632 29.4416 73.3868 30.2163 73.0105 30.9911C72.6341 31.7659 72.6341 32.5406 72.6341 33.7028V42.2253H68.8707V24.0182ZM96.72 42.2253H92.9566V39.901C92.5803 40.6757 91.8276 41.4505 90.6986 42.2253C89.9459 42.6127 88.8168 43 87.6878 43C85.4298 43 83.9244 42.6127 82.7954 41.0631C81.6663 39.5136 81.29 37.964 81.29 35.6397V24.4055H85.0534V35.2523C85.0534 36.8019 85.4298 37.964 85.8061 38.7388C86.5588 39.5136 87.3115 39.901 88.4405 39.901C89.1932 39.901 89.9459 39.901 90.3222 39.5136C90.6986 39.1262 91.4512 38.7388 91.4512 38.3514C91.8276 37.964 92.2039 37.5767 92.2039 36.8019C92.2039 36.0271 92.5803 35.6397 92.5803 34.865V24.4055H96.3437V42.2253H96.72ZM103.118 36.4145C103.118 37.5767 103.494 38.3514 104.247 38.7388C105 39.1262 105.752 39.5136 106.881 39.5136C107.258 39.5136 107.634 39.5136 108.01 39.5136C108.387 39.5136 108.763 39.5136 109.139 39.1262C109.516 39.1262 109.892 38.7388 110.268 38.3514C110.645 37.964 110.645 37.5767 110.645 37.1893C110.645 36.8019 110.268 36.4145 110.268 36.0271C109.892 35.6397 109.516 35.6397 109.139 35.2523C108.763 35.2523 108.01 34.865 107.258 34.865C106.505 34.865 105.752 34.4776 105.376 34.4776C104.623 34.4776 103.871 34.0902 103.494 33.7028C103.118 33.3154 102.365 33.3154 101.612 32.928C101.236 32.5406 100.483 32.1533 100.483 31.3785C100.107 30.6037 100.107 29.8289 100.107 29.0542C100.107 27.892 100.483 27.1172 100.86 26.7299C101.236 26.3425 101.989 25.5677 102.742 25.1803C103.494 24.7929 104.247 24.4055 105 24.4055C105.752 24.4055 106.881 24.0182 107.634 24.0182C108.387 24.0182 109.516 24.0182 110.268 24.4055C111.021 24.4055 111.774 24.7929 112.526 25.1803C113.279 25.5677 113.655 26.3425 114.032 26.7299C114.408 27.5046 114.784 28.2794 114.784 29.4416H110.645C110.645 28.6668 109.892 27.892 109.516 27.5046C108.387 27.1173 107.634 26.7299 106.881 26.7299C106.505 26.7299 106.129 26.7299 105.752 26.7299C105.376 26.7299 105 26.7299 104.623 27.1172C104.247 27.1172 103.871 27.5046 103.871 27.5046C103.494 27.892 103.494 27.892 103.494 28.2794C103.494 28.6668 103.494 29.0542 103.871 29.4416C104.247 29.8289 104.623 29.8289 105 30.2163C105.376 30.2163 106.129 30.6037 106.881 30.6037C107.634 30.6037 108.387 30.9911 109.139 30.9911C109.892 30.9911 110.645 31.3785 111.021 31.7659C111.774 32.1533 112.15 32.1533 112.903 32.5406C113.655 32.928 114.032 33.3154 114.032 34.0902C114.408 34.865 114.408 35.2523 114.408 36.4145C114.408 37.5767 114.032 38.3514 113.655 39.1262C113.279 39.901 112.526 40.2884 111.774 41.0631C111.397 41.8379 110.645 42.2253 109.892 42.2253C109.139 42.2253 108.01 42.6127 107.258 42.6127C106.129 42.6127 105 42.6127 104.247 42.2253C103.494 41.8379 102.365 41.4505 101.989 41.0631C101.236 40.6757 100.86 39.901 100.483 39.1262C99.7308 38.3514 99.3544 37.5767 99.3544 36.4145H103.118ZM115.913 24.0182H118.924V18.9822H122.688V24.4055H126.075V27.5046H122.688V37.1893C122.688 37.5767 122.688 37.964 122.688 38.3514C122.688 38.7388 122.688 38.7388 123.064 39.1262C123.44 39.5136 123.44 39.5136 123.44 39.5136C123.817 39.5136 124.193 39.5136 124.569 39.5136C124.946 39.5136 124.946 39.5136 125.322 39.5136C125.698 39.5136 125.698 39.5136 126.075 39.5136V42.2253C125.698 42.2253 125.322 42.2253 124.946 42.2253C124.569 42.2253 124.193 42.2253 123.817 42.2253C122.688 42.2253 121.935 42.2253 121.559 41.8379C120.806 41.8379 120.43 41.4505 120.053 41.0631C119.677 40.6757 119.301 40.2883 119.301 39.5136C119.301 39.1262 118.924 38.3514 118.924 37.5766V27.1172H115.913V24.0182ZM128.709 24.0182H132.473V26.7299C132.849 25.5677 133.602 24.7929 134.731 24.4055C135.86 24.0182 136.612 23.6308 137.741 23.6308C139.247 23.6308 140.376 24.0182 141.505 24.4055C142.634 24.7929 143.386 25.5677 144.139 26.3425C144.892 27.1172 145.268 28.2794 145.645 29.4416C146.021 30.6037 146.021 31.7659 146.021 33.3154C146.021 34.4776 146.021 35.6397 145.645 36.8019C145.268 37.964 144.892 38.7388 144.139 39.901C143.386 40.6757 142.634 41.4505 141.881 41.8379C140.752 42.2253 139.999 42.6127 138.494 42.6127C138.118 42.6127 137.365 42.6127 136.989 42.6127C136.612 42.6127 135.86 42.2253 135.483 42.2253C135.107 41.8379 134.354 41.8379 133.978 41.4505C133.602 41.0631 133.225 40.6757 132.849 40.2883V49.1982H129.085V24.0182H128.709ZM142.257 33.3154C142.257 32.5406 142.257 31.7659 141.881 30.9911C141.505 30.2163 141.505 29.4416 141.128 29.0542C140.752 28.6668 140.376 27.892 139.623 27.5046C138.87 27.1173 138.494 27.1172 137.365 27.1172C135.86 27.1172 134.354 27.5046 133.602 28.6668C132.849 29.8289 132.473 31.3785 132.473 33.3154C132.473 34.0902 132.473 35.2523 132.849 35.6397C133.225 36.4145 133.225 37.1893 133.978 37.5766C134.354 37.964 134.731 38.7388 135.483 38.7388C136.236 39.1262 136.612 39.1262 137.365 39.1262C138.118 39.1262 138.87 39.1262 139.623 38.7388C140.376 38.3514 140.752 37.964 141.128 37.1893C141.505 36.4145 141.881 36.0271 141.881 35.2523C141.881 34.865 142.257 34.0902 142.257 33.3154ZM149.032 17.4326H152.795V21.3065H149.032V17.4326ZM149.032 24.0182H152.795V42.2253H149.032V24.0182ZM156.182 17.4326H159.946V42.2253H156.182V17.4326ZM171.612 42.6127C170.107 42.6127 168.978 42.2253 167.849 41.8379C166.72 41.4505 165.967 40.6757 165.214 39.901C164.462 39.1262 163.709 37.964 163.333 36.8019C162.956 35.6397 162.58 34.4776 162.58 32.928C162.58 31.3785 162.956 30.2163 163.333 29.0542C163.709 27.892 164.462 26.7299 165.214 25.9551C165.967 25.1803 166.72 24.4055 167.849 24.0182C168.978 23.6308 170.107 23.2434 171.612 23.2434C173.118 23.2434 174.247 23.6308 175.376 24.0182C176.505 24.4055 177.257 25.1803 178.01 25.9551C178.763 26.7299 179.515 27.892 179.892 29.0542C180.268 30.2163 180.644 31.3785 180.644 32.928C180.644 34.4776 180.268 35.6397 179.892 36.8019C179.515 37.964 178.763 39.1262 178.01 39.901C177.257 40.6757 176.505 41.4505 175.376 41.8379C174.247 42.2253 173.118 42.6127 171.612 42.6127ZM171.612 39.5136C172.365 39.5136 173.118 39.5136 173.87 39.1262C174.623 38.7388 174.999 38.3514 175.376 37.5766C175.752 36.8019 176.128 36.4145 176.128 35.6397C176.128 34.865 176.505 34.0902 176.505 33.3154C176.505 32.5406 176.505 31.7659 176.128 30.9911C176.128 30.2163 175.752 29.4416 175.376 29.0542C174.999 28.6668 174.623 27.892 173.87 27.5046C173.118 27.1173 172.365 27.1172 171.612 27.1172C170.859 27.1172 170.107 27.1173 169.354 27.5046C168.601 27.892 168.225 28.2794 167.849 29.0542C167.472 29.8289 167.096 30.2163 167.096 30.9911C167.096 31.7659 166.72 32.5406 166.72 33.3154C166.72 34.0902 166.72 34.865 167.096 35.6397C167.096 36.4145 167.472 37.1893 167.849 37.5766C168.225 38.3514 168.601 38.7388 169.354 39.1262C170.107 39.1262 170.859 39.5136 171.612 39.5136ZM181.773 24.0182H184.784V18.9822H188.548V24.4055H191.935V27.5046H188.548V37.1893C188.548 37.5767 188.548 37.964 188.548 38.3514C188.548 38.7388 188.548 38.7388 188.924 39.1262C189.3 39.5136 189.3 39.5136 189.3 39.5136C189.677 39.5136 190.053 39.5136 190.429 39.5136C190.806 39.5136 190.806 39.5136 191.182 39.5136C191.558 39.5136 191.558 39.5136 191.935 39.5136V42.2253C191.558 42.2253 191.182 42.2253 190.806 42.2253C190.429 42.2253 190.053 42.2253 189.677 42.2253C188.548 42.2253 187.795 42.2253 187.419 41.8379C186.666 41.8379 186.29 41.4505 185.913 41.0631C185.537 40.6757 185.16 40.2883 185.16 39.5136C185.16 39.1262 184.784 38.3514 184.784 37.5766V27.1172H181.773V24.0182Z" fill="#D3D3D3"/>
<path d="M45.9138 17.4323H28.2257L22.9569 0L17.3117 17.4323H0L13.9247 27.8917L8.65587 45.3241L22.9569 34.4773L36.8815 45.3241L31.6128 27.8917L45.9138 17.4323Z" fill="#00B67A"/>
<path d="M32.7417 31.7655L31.6127 27.8916L22.9568 34.4772L32.7417 31.7655Z" fill="#005128"/>
<path d="M36.1289 56.1711H0V93.3601H36.1289V56.1711Z" fill="#00B67A"/>
<path d="M74.8921 56.1711H38.7632V93.3601H74.8921V56.1711Z" fill="#00B67A"/>
<path d="M114.032 56.1711H77.9028V93.3601H114.032V56.1711Z" fill="#00B67A"/>
<path d="M152.795 56.1711H116.666V93.3601H152.795V56.1711Z" fill="#00B67A"/>
<path d="M191.935 56.1711H155.806V93.3601H191.935V56.1711Z" fill="#00B67A"/>
<path d="M155.806 56.1711H173.87V92.9727H155.806V56.1711Z" fill="#00B67A"/>
<path d="M17.6881 80.9636L23.3332 79.4141L25.5913 86.7744L17.6881 80.9636ZM30.4837 71.6664H20.6988L17.6881 62.3691L14.6774 71.6664H5.2688L13.172 77.4772L10.1613 86.7744L18.0644 80.9636L22.9569 77.4772L30.4837 71.6664Z" fill="#D3D3D3"/>
<path d="M56.8277 80.9636L62.4729 79.4141L64.7309 86.7744L56.8277 80.9636ZM69.247 71.6664H59.4621L56.4514 62.3691L53.4407 71.6664H43.6558L51.5589 77.4772L48.5482 86.7744L56.4514 80.9636L61.3438 77.4772L69.247 71.6664Z" fill="#D3D3D3"/>
<path d="M95.9674 80.9636L101.613 79.4141L103.871 86.7744L95.9674 80.9636ZM108.387 71.6664H98.6018L95.591 62.3691L92.5803 71.6664H82.7954L90.6986 77.4772L88.0642 86.7744L95.9674 80.9636L100.86 77.4772L108.387 71.6664Z" fill="#D9D9D9"/>
<path d="M134.731 80.9636L140.376 79.4141L142.634 86.7744L134.731 80.9636ZM147.526 71.6664H137.741L134.731 62.3691L131.72 71.6664H121.935L129.838 77.4772L126.828 86.7744L134.731 80.9636L139.623 77.4772L147.526 71.6664Z" fill="#D9D9D9"/>
<path d="M173.87 80.9636L179.515 79.4141L181.774 86.7744L173.87 80.9636ZM186.29 71.6664H176.505L173.494 62.3691L170.86 71.6664H161.075L168.978 77.4772L165.967 86.7744L173.87 80.9636L178.763 77.4772L186.29 71.6664Z" fill="#D9D9D9"/>
</svg>
