<svg width="99" height="41" viewBox="0 0 99 41" fill="none" xmlns="http://www.w3.org/2000/svg">
<path d="M43.0182 39.4474H35.0154L40.0209 1.28638H48.0232L43.0182 39.4474Z" fill="#7B7B7B"/>
<path d="M72.0288 2.21939C70.4503 1.44726 67.9467 0.594727 64.851 0.594727C56.948 0.594727 51.3828 5.79085 51.3486 13.2197C51.283 18.7008 55.3332 21.745 58.3624 23.5726C61.4585 25.4401 62.511 26.659 62.511 28.3236C62.4795 30.8801 60.0091 32.0585 57.7051 32.0585C54.51 32.0585 52.798 31.451 50.1964 30.0286L49.1426 29.4189L48.0227 37.9852C49.8997 39.0396 53.3577 39.9752 56.948 40.0162C65.345 40.0162 70.8118 34.9005 70.8766 26.9838C70.9085 22.6397 68.7699 19.311 64.1591 16.591C61.3601 14.8449 59.6459 13.6676 59.6459 11.8811C59.6787 10.2569 61.0957 8.59341 64.2554 8.59341C66.857 8.51193 68.7686 9.28299 70.2166 10.0546L70.9405 10.4598L72.0288 2.21939Z" fill="#7B7B7B"/>
<path d="M82.6653 25.9283C83.3244 23.736 85.8604 15.2512 85.8604 15.2512C85.8271 15.3326 86.5181 13.0184 86.9133 11.5977L87.4726 14.8859C87.4726 14.8859 88.988 24.0204 89.3171 25.9283C88.0664 25.9283 84.246 25.9283 82.6653 25.9283ZM92.5437 1.28638H86.3536C84.4447 1.28638 82.9944 1.97596 82.1708 4.45261L70.2837 39.4469H78.6808C78.6808 39.4469 80.0632 34.7369 80.3603 33.7225C81.2815 33.7225 89.4502 33.7225 90.6352 33.7225C90.865 35.0623 91.5901 39.4469 91.5901 39.4469H98.9999L92.5437 1.28638Z" fill="#7B7B7B"/>
<path d="M28.3311 1.28638L20.4938 27.3085L19.6374 22.0309C18.1884 15.9413 13.6441 9.32499 8.573 6.03519L15.7517 39.4069H24.2144L36.7934 1.28638H28.3311Z" fill="#7B7B7B"/>
<path d="M13.2161 1.28638H0.340464L0.20874 2.05743C10.2526 5.22421 16.9044 12.8576 19.6374 22.0326L16.8383 4.49416C16.3775 2.05689 14.9614 1.36677 13.2161 1.28638Z" fill="#A7A9AB"/>
</svg>
