<svg width="540" height="137" viewBox="0 0 540 137" fill="none" xmlns="http://www.w3.org/2000/svg">
<g filter="url(#filter0_i_124_3659)">
<path d="M10.16 27.3416H0.96V19.3415H28.16V27.3416H18.96V75.3416H10.16V27.3416ZM32.4206 19.3415H41.2206V42.1416H50.6606V19.3415H59.4606V75.3416H50.6606V50.1416H41.2206V75.3416H32.4206V19.3415ZM66.0144 19.3415H90.0144V27.3416H74.8144V42.1416H86.8944V50.1416H74.8144V67.3416H90.0144V75.3416H66.0144V19.3415ZM107.889 19.3415H116.689V42.1416H126.129V19.3415H134.929V75.3416H126.129V50.1416H116.689V75.3416H107.889V19.3415ZM141.483 19.3415H165.483V27.3416H150.283V42.1416H162.363V50.1416H150.283V67.3416H165.483V75.3416H141.483V19.3415ZM170.546 19.3415H183.586C188.119 19.3415 191.426 20.4082 193.506 22.5416C195.586 24.6215 196.626 27.8482 196.626 32.2215V35.6616C196.626 41.4749 194.706 45.1549 190.866 46.7016V46.8616C192.999 47.5016 194.492 48.8082 195.346 50.7816C196.252 52.7549 196.706 55.3949 196.706 58.7016V68.5416C196.706 70.1416 196.759 71.4482 196.866 72.4616C196.972 73.4216 197.239 74.3816 197.666 75.3416H188.706C188.386 74.4349 188.172 73.5816 188.066 72.7816C187.959 71.9816 187.906 70.5416 187.906 68.4616V58.2216C187.906 55.6616 187.479 53.8749 186.626 52.8616C185.826 51.8482 184.412 51.3416 182.386 51.3416H179.346V75.3416H170.546V19.3415ZM182.546 43.3416C184.306 43.3416 185.612 42.8882 186.466 41.9816C187.372 41.0749 187.826 39.5549 187.826 37.4215V33.1016C187.826 31.0749 187.452 29.6082 186.706 28.7016C186.012 27.7949 184.892 27.3416 183.346 27.3416H179.346V43.3416H182.546ZM215.531 76.1416C211.211 76.1416 207.905 74.9149 205.611 72.4616C203.318 70.0082 202.171 66.5416 202.171 62.0616V32.6215C202.171 28.1416 203.318 24.6749 205.611 22.2215C207.905 19.7682 211.211 18.5415 215.531 18.5415C219.851 18.5415 223.158 19.7682 225.451 22.2215C227.745 24.6749 228.891 28.1416 228.891 32.6215V62.0616C228.891 66.5416 227.745 70.0082 225.451 72.4616C223.158 74.9149 219.851 76.1416 215.531 76.1416ZM215.531 68.1416C218.571 68.1416 220.091 66.3016 220.091 62.6216V32.0616C220.091 28.3816 218.571 26.5416 215.531 26.5416C212.491 26.5416 210.971 28.3816 210.971 32.0616V62.6216C210.971 66.3016 212.491 68.1416 215.531 68.1416ZM247.655 19.3415H271.655V27.3416H256.455V42.1416H268.535V50.1416H256.455V67.3416H271.655V75.3416H247.655V19.3415ZM284.634 46.7016L274.954 19.3415H284.234L290.154 37.4215H290.314L296.394 19.3415H304.714L295.034 46.7016L305.194 75.3416H295.914L289.514 55.8216H289.354L282.794 75.3416H274.474L284.634 46.7016ZM309.374 19.3415H322.334C326.707 19.3415 329.987 20.5149 332.174 22.8616C334.36 25.2082 335.454 28.6482 335.454 33.1816V38.7016C335.454 43.2349 334.36 46.6749 332.174 49.0216C329.987 51.3682 326.707 52.5416 322.334 52.5416H318.174V75.3416H309.374V19.3415ZM322.334 44.5416C323.774 44.5416 324.84 44.1416 325.534 43.3416C326.28 42.5416 326.654 41.1816 326.654 39.2615V32.6215C326.654 30.7015 326.28 29.3415 325.534 28.5415C324.84 27.7416 323.774 27.3416 322.334 27.3416H318.174V44.5416H322.334ZM340.233 19.3415H364.233V27.3416H349.033V42.1416H361.113V50.1416H349.033V67.3416H364.233V75.3416H340.233V19.3415ZM369.296 19.3415H382.336C386.869 19.3415 390.176 20.4082 392.256 22.5416C394.336 24.6215 395.376 27.8482 395.376 32.2215V35.6616C395.376 41.4749 393.456 45.1549 389.616 46.7016V46.8616C391.749 47.5016 393.242 48.8082 394.096 50.7816C395.002 52.7549 395.456 55.3949 395.456 58.7016V68.5416C395.456 70.1416 395.509 71.4482 395.616 72.4616C395.722 73.4216 395.989 74.3816 396.416 75.3416H387.456C387.136 74.4349 386.922 73.5816 386.816 72.7816C386.709 71.9816 386.656 70.5416 386.656 68.4616V58.2216C386.656 55.6616 386.229 53.8749 385.376 52.8616C384.576 51.8482 383.162 51.3416 381.136 51.3416H378.096V75.3416H369.296V19.3415ZM381.296 43.3416C383.056 43.3416 384.362 42.8882 385.216 41.9816C386.122 41.0749 386.576 39.5549 386.576 37.4215V33.1016C386.576 31.0749 386.202 29.6082 385.456 28.7016C384.762 27.7949 383.642 27.3416 382.096 27.3416H378.096V43.3416H381.296ZM401.561 19.3415H410.361V75.3416H401.561V19.3415ZM416.952 19.3415H440.952V27.3416H425.752V42.1416H437.832V50.1416H425.752V67.3416H440.952V75.3416H416.952V19.3415ZM446.014 19.3415H457.054L465.614 52.8616H465.774V19.3415H473.614V75.3416H464.574L454.014 34.4615H453.854V75.3416H446.014V19.3415ZM492.555 76.1416C488.342 76.1416 485.115 74.9416 482.875 72.5416C480.688 70.1416 479.595 66.7549 479.595 62.3816V32.3015C479.595 27.9282 480.688 24.5416 482.875 22.1416C485.115 19.7416 488.342 18.5415 492.555 18.5415C496.768 18.5415 499.968 19.7416 502.155 22.1416C504.395 24.5416 505.515 27.9282 505.515 32.3015V38.2216H497.195V31.7416C497.195 28.2749 495.728 26.5416 492.795 26.5416C489.862 26.5416 488.395 28.2749 488.395 31.7416V63.0216C488.395 66.4349 489.862 68.1416 492.795 68.1416C495.728 68.1416 497.195 66.4349 497.195 63.0216V54.4616H505.515V62.3816C505.515 66.7549 504.395 70.1416 502.155 72.5416C499.968 74.9416 496.768 76.1416 492.555 76.1416ZM510.78 19.3415H534.78V27.3416H519.58V42.1416H531.66V50.1416H519.58V67.3416H534.78V75.3416H510.78V19.3415Z" fill="#00008B"/>
</g>
<rect y="90.2195" width="540" height="3.34146" fill="#00008B"/>
<rect width="540" height="3.34146" fill="#00008B"/>
<path d="M268.323 110.268L271.335 119.504H281.082L273.197 125.212L276.209 134.447L268.323 128.739L260.437 134.447L263.449 125.212L255.563 119.504H265.311L268.323 110.268Z" fill="#00008B"/>
<defs>
<filter id="filter0_i_124_3659" x="0.959961" y="18.5415" width="533.82" height="61.6001" filterUnits="userSpaceOnUse" color-interpolation-filters="sRGB">
<feFlood flood-opacity="0" result="BackgroundImageFix"/>
<feBlend mode="normal" in="SourceGraphic" in2="BackgroundImageFix" result="shape"/>
<feColorMatrix in="SourceAlpha" type="matrix" values="0 0 0 0 0 0 0 0 0 0 0 0 0 0 0 0 0 0 127 0" result="hardAlpha"/>
<feOffset dy="4"/>
<feGaussianBlur stdDeviation="2"/>
<feComposite in2="hardAlpha" operator="arithmetic" k2="-1" k3="1"/>
<feColorMatrix type="matrix" values="0 0 0 0 0.607552 0 0 0 0 0.0805125 0 0 0 0 0.0805125 0 0 0 1 0"/>
<feBlend mode="normal" in2="shape" result="effect1_innerShadow_124_3659"/>
</filter>
</defs>
</svg>
